<?xml version="1.0" encoding="UTF-8"?>
<svg version="1.1" xmlns="http://www.w3.org/2000/svg" width="512" height="512">
<path d="M0 0 C1.80460802 -0.00704366 3.6092114 -0.01537321 5.41380817 -0.02487212 C10.35617639 -0.04704477 15.29840643 -0.0505739 20.2408179 -0.05087268 C25.57775206 -0.05438118 30.91462535 -0.07500496 36.25152588 -0.09320068 C47.91272239 -0.12957744 59.57388118 -0.14357155 71.23512626 -0.15303779 C78.52030103 -0.15906417 85.80546393 -0.16982657 93.09063148 -0.18154335 C113.27330747 -0.21329246 133.45597291 -0.24000096 153.63867474 -0.24629498 C155.57470837 -0.24690568 155.57470837 -0.24690568 157.54985379 -0.24752872 C160.16621737 -0.2483364 162.78258094 -0.24914212 165.39894452 -0.2499459 C167.34700829 -0.25055427 167.34700829 -0.25055427 169.33442688 -0.25117493 C171.28487628 -0.2517779 171.28487628 -0.2517779 173.27472869 -0.25239304 C194.34495174 -0.25988301 215.41491912 -0.30436447 236.48504975 -0.36503234 C258.13309875 -0.42686239 279.78102039 -0.45865509 301.42915946 -0.46012241 C313.57760774 -0.46162231 325.72574064 -0.47581287 337.87410545 -0.52293968 C348.21792452 -0.5628994 358.56131984 -0.57522955 368.90519776 -0.55195405 C374.17920813 -0.54089608 379.452376 -0.54258271 384.72628784 -0.579422 C389.56232537 -0.61288368 394.39688269 -0.6088365 399.23291085 -0.57595644 C400.97446781 -0.57052868 402.71613266 -0.57838791 404.45754465 -0.60150524 C419.0901302 -0.78318883 429.70826803 2.9498836 440.7077179 12.97709656 C451.59943309 24.9244945 454.46146471 36.05254086 454.25917053 51.76583862 C454.26553704 53.57690978 454.27540542 55.38797138 454.28843617 57.19900686 C454.31390405 62.13631044 454.28996718 67.07228649 454.25737906 72.00950181 C454.23092309 77.34902603 454.25089673 82.68841066 454.26490784 88.0279541 C454.2850171 98.47165543 454.26258485 108.91484785 454.22550663 119.3584859 C454.18385986 131.52867353 454.1842543 143.69875272 454.18619695 155.86899821 C454.18819704 177.5863718 454.15161644 199.30350931 454.09346008 221.02079773 C454.03709435 242.08041178 454.00877811 263.13981814 454.01142883 284.19950867 C454.01166857 286.14587623 454.01166857 286.14587623 454.01191315 288.13156434 C454.01207457 289.42693053 454.01223599 290.72229671 454.0124023 292.05691642 C454.01516361 316.05619356 453.9915931 340.05538272 453.95578943 364.05463132 C453.94373941 372.53259061 453.93947304 381.01053369 453.93766022 389.4885006 C453.93492796 399.82161968 453.91701733 410.15459039 453.88032898 420.48764654 C453.86189838 425.75700741 453.84965968 431.02617892 453.85470581 436.29557419 C453.85910496 441.12352532 453.84489818 445.95105854 453.81611171 450.7789226 C453.80889457 452.52092239 453.80830181 454.26296559 453.81518087 456.00496676 C453.8707378 471.83186802 451.06440505 484.02012359 439.9811554 495.85990906 C430.90260029 504.59261444 421.3693381 508.56862506 408.85088348 508.55719757 C408.10950134 508.56044859 407.3681192 508.56369961 406.60427094 508.56704915 C404.11225507 508.57673763 401.62028273 508.57933944 399.12825012 508.58195496 C397.32653602 508.58740238 395.52482314 508.59326596 393.72311163 508.59951067 C388.76562123 508.61535957 383.80813579 508.62487652 378.8506279 508.63327551 C374.59999491 508.64128119 370.34937526 508.65297137 366.09875113 508.66469032 C350.87467409 508.70658873 335.65058137 508.73380339 320.4264679 508.75834656 C318.62418279 508.76130891 318.62418279 508.76130891 316.78548789 508.7643311 C292.92659893 508.80349496 269.06770472 508.83719519 245.20879364 508.85941315 C239.96364331 508.86438242 234.71849307 508.86942675 229.4733429 508.8745575 C228.16969117 508.87582817 226.86603944 508.87709884 225.52288312 508.87840801 C204.40576343 508.89976705 183.28879938 508.94876229 162.171758 509.00880164 C140.48999061 509.0699382 118.80830351 509.10460318 97.12645102 509.11388636 C84.95341639 509.11979591 72.78064545 509.13753643 60.60769653 509.18527222 C50.2403212 509.22589023 39.87325262 509.24274408 29.50580126 509.2286194 C24.21795877 509.22215644 18.93076951 509.22696625 13.64302826 509.26249313 C8.79654578 509.29479323 3.95117517 509.29441832 -0.89533645 509.2686761 C-2.64306875 509.26503987 -4.39087561 509.27311056 -6.13848132 509.29445761 C-21.24032968 509.46772461 -31.27581749 505.56287998 -42.50712585 494.87944031 C-46.21378896 490.76888773 -49.06723025 486.25238972 -51.7297821 481.41459656 C-52.50616278 480.08041628 -52.50616278 480.08041628 -53.29822791 478.71928287 C-54.91911822 474.97752161 -55.14835538 471.86205529 -55.10730553 467.86383438 C-55.11166585 467.12039961 -55.11602617 466.37696483 -55.12051862 465.61100173 C-55.13147383 463.11787774 -55.12105177 460.62530692 -55.11073303 458.13218689 C-55.11418951 456.32747004 -55.11895401 454.52275531 -55.12491477 452.718045 C-55.1374562 447.75696056 -55.13124001 442.79604891 -55.12195611 437.8349638 C-55.11517864 432.48512276 -55.12564051 427.13531178 -55.13389587 421.78547668 C-55.1472504 411.30328248 -55.14434749 400.82115265 -55.13565795 390.33895591 C-55.12888714 381.818965 -55.12796208 373.29899215 -55.1312294 364.77899933 C-55.1316891 363.56709127 -55.1321488 362.35518322 -55.13262243 361.10655068 C-55.1335816 358.64465119 -55.13455423 356.1827517 -55.1355402 353.72085223 C-55.14409951 330.62267311 -55.13425224 307.52452967 -55.1181391 284.42635641 C-55.10474222 264.60861648 -55.10705779 244.79092928 -55.12089539 224.97319031 C-55.13695333 201.96474932 -55.14326834 178.95633966 -55.13405859 155.94789386 C-55.13310294 153.49374819 -55.13215983 151.03960252 -55.1312294 148.58545685 C-55.13076657 147.3779536 -55.13030375 146.17045035 -55.1298269 144.92635609 C-55.12723715 136.419003 -55.13160783 127.91166978 -55.13866806 119.40431976 C-55.14708592 109.03290874 -55.14479714 98.66156582 -55.12882583 88.29016259 C-55.12094598 82.99884768 -55.11784664 77.70764629 -55.12777328 72.41633224 C-55.13672689 67.57032816 -55.13177619 62.72454258 -55.11584063 57.87855825 C-55.11249558 56.12756403 -55.11418067 54.37655127 -55.12146799 52.62556902 C-55.18264924 36.70060843 -52.71741118 24.51357642 -41.4172821 12.60209656 C-29.33782949 1.1488363 -15.90870242 -0.03394314 0 0 Z M29.73035812 23.42238617 C23.06961461 23.42665837 16.40958492 23.46321263 9.7490648 23.52221704 C7.33078108 23.53909592 4.91240333 23.5459964 2.49406397 23.54202437 C-0.78570356 23.53845829 -4.06308695 23.5717222 -7.3425293 23.61457825 C-8.28704834 23.6050674 -9.23156739 23.59555655 -10.20470822 23.58575749 C-18.35165119 23.76274333 -22.62988531 27.23521523 -28.1672821 32.91459656 C-31.19612805 37.76075006 -30.85726817 43.27166964 -30.86958981 48.84600639 C-30.87254123 49.57653337 -30.87549265 50.30706035 -30.87853351 51.05972451 C-30.88719873 53.50874529 -30.88880278 55.9577187 -30.89041138 58.40675354 C-30.89514408 60.17989562 -30.90029523 61.95303662 -30.90582901 63.72617638 C-30.91971963 68.59984966 -30.92731424 73.47351547 -30.93380201 78.34720349 C-30.94017832 82.52697195 -30.95024749 86.70672819 -30.96036267 90.88648902 C-30.99366003 104.65270512 -31.0151991 118.41892864 -31.03356251 132.18517178 C-31.03835835 135.76870236 -31.04334153 139.35223263 -31.04836774 142.93576288 C-31.07933093 165.1865031 -31.1060168 187.43724592 -31.12278652 209.68800163 C-31.12673602 214.83986796 -31.13073903 219.99173424 -31.1348114 225.14360046 C-31.13581976 226.42407332 -31.13682812 227.70454618 -31.13786704 229.02382125 C-31.1548862 249.78211075 -31.1960118 270.5402813 -31.24683439 291.29851268 C-31.29857392 312.60625474 -31.32772359 333.91393553 -31.33498341 355.22173989 C-31.33964932 367.18721261 -31.35443977 379.15249027 -31.39472771 391.11790085 C-31.42898402 401.30421754 -31.44298463 411.49030394 -31.43030357 421.67667495 C-31.42446713 426.87472849 -31.42841037 432.07229469 -31.45847321 437.27027512 C-31.48577025 442.02878078 -31.4853865 446.78645135 -31.46296275 451.54497506 C-31.45973168 453.26633869 -31.4666556 454.9877576 -31.48475998 456.70902906 C-31.81090118 468.26041136 -31.81090118 468.26041136 -26.25471646 478.0328685 C-25.49987395 478.71682389 -25.49987395 478.71682389 -24.7297821 479.41459656 C-23.9254071 480.21897156 -23.1210321 481.02334656 -22.2922821 481.85209656 C-16.30208262 485.50465722 -8.35411002 484.5517963 -1.5620575 484.52812195 C-0.45888184 484.52826797 0.64429382 484.528414 1.78089905 484.52856445 C5.41147355 484.52787021 9.04199615 484.52010066 12.67256165 484.51225281 C15.19604464 484.5103869 17.71952799 484.50896381 20.24301147 484.50796509 C26.19621079 484.50454272 32.14939358 484.4966687 38.10258442 484.4866156 C46.74082667 484.47234684 55.37907527 484.467134 64.01732635 484.4608078 C76.10163884 484.45112245 88.18590302 484.43195631 100.2702179 484.41459656 C100.2702179 459.33459656 100.2702179 434.25459656 100.2702179 408.41459656 C97.3002179 406.76459656 94.3302179 405.11459656 91.2702179 403.41459656 C86.06633746 399.25149221 82.82120518 394.0969596 82.0332489 387.40080261 C81.70288059 382.45833568 81.70097357 377.51884991 81.74873352 372.56742859 C81.77017008 369.92050038 81.74887359 367.27628565 81.7233429 364.62944031 C81.70694503 354.55384079 82.00989169 346.74000432 88.5202179 338.60209656 C96.95623571 331.89162784 104.8107245 331.66846776 115.2702179 331.41459656 C114.92088196 330.53416687 114.57154602 329.65373718 114.21162415 328.74662781 C113.75658508 327.5851825 113.30154602 326.42373718 112.8327179 325.22709656 C112.38025696 324.07854187 111.92779602 322.92998718 111.46162415 321.74662781 C108.76412313 314.20246923 109.08659613 306.84945556 109.0827179 298.91459656 C109.0704718 297.59588562 109.05822571 296.27717468 109.04560852 294.91850281 C109.04367493 293.64877625 109.04174133 292.37904968 109.03974915 291.07084656 C109.03564026 289.91391296 109.03153137 288.75697937 109.02729797 287.56498718 C109.27407976 284.36451265 109.66865104 282.19684824 111.2702179 279.41459656 C114.0888422 278.43980449 116.75911895 278.27151164 119.72480774 278.22172546 C120.60027252 278.20566254 121.4757373 278.18959961 122.37773132 278.17304993 C126.40389377 278.12805212 130.42989668 278.08747117 134.45625305 278.0644989 C136.56443902 278.04803626 138.67257146 278.02087667 140.7804718 277.98246765 C153.24343506 277.75693803 163.88739172 277.90372491 175.2702179 283.41459656 C175.26133545 282.78090149 175.252453 282.14720642 175.24330139 281.49430847 C175.1545373 274.87538203 175.09436311 268.25662579 175.05049133 261.63725281 C175.03042495 259.16973498 175.00316545 256.70226441 174.96846008 254.23490906 C174.91972483 250.68010262 174.89719851 247.12592712 174.8795929 243.57084656 C174.85894775 242.47470032 174.83830261 241.37855408 174.81703186 240.24919128 C174.81522458 234.02514347 175.16102539 228.39707512 179.2702179 223.41459656 C182.71095359 221.31937656 185.24426817 221.00378536 189.2702179 221.41459656 C193.07202832 223.14269221 194.71729254 224.57987072 196.2702179 228.41459656 C196.53193092 230.51537704 196.53193092 230.51537704 196.5486908 232.80589294 C196.55985428 233.67804947 196.57101776 234.55020599 196.58251953 235.4487915 C196.58467972 236.39753647 196.5868399 237.34628143 196.58906555 238.32377625 C196.60413399 239.83157906 196.60413399 239.83157906 196.61950684 241.36984253 C196.65039508 244.6920464 196.66738982 248.01416946 196.6842804 251.33647156 C196.70298748 253.64004718 196.72256055 255.94361592 196.7429657 258.24717712 C196.79434129 264.31012416 196.83393807 270.37309342 196.87110901 276.43614197 C196.91111457 282.62302677 196.96222265 288.80981866 197.0124054 294.99662781 C197.10922899 307.13588551 197.19361327 319.27519561 197.2702179 331.41459656 C199.2502179 331.41459656 201.2302179 331.41459656 203.2702179 331.41459656 C203.27608414 330.73665543 203.28195038 330.05871429 203.28799438 329.36022949 C203.35193368 322.30345121 203.43635535 315.24712875 203.53266907 308.1907196 C203.56592115 305.5573172 203.59395214 302.92384347 203.61665344 300.29032898 C203.65019319 296.50461944 203.7025111 292.71956367 203.75849915 288.93412781 C203.76488907 287.75687637 203.77127899 286.57962494 203.77786255 285.36669922 C203.79765671 284.26593552 203.81745087 283.16517181 203.83784485 282.03105164 C203.85449944 280.58210258 203.85449944 280.58210258 203.87149048 279.10388184 C204.34306815 275.92324552 205.41748409 274.0203861 207.2702179 271.41459656 C210.48543927 269.0863328 213.37852214 269.01748475 217.2702179 269.41459656 C220.03980104 270.67349799 221.74840717 271.68406154 223.5202179 274.16459656 C224.53115005 277.19739301 224.84372803 280.25268892 225.2702179 283.41459656 C226.00748108 283.06018494 226.74474426 282.70577332 227.50434875 282.34062195 C238.16213802 277.83936719 248.24331334 277.67762019 259.70503235 277.81767273 C262.85850842 277.85238041 266.00923419 277.83817754 269.16279602 277.81889343 C271.17908394 277.82578281 273.19536473 277.83544693 275.21162415 277.84819031 C276.61632713 277.8407505 276.61632713 277.8407505 278.04940796 277.8331604 C282.30660797 277.91017579 284.65471041 278.03109898 288.33638 280.32499695 C292.89865178 285.25473866 291.53558032 291.8509545 291.5827179 298.22709656 C291.62622375 300.12491882 291.62622375 300.12491882 291.67060852 302.06108093 C291.74212273 312.79371414 289.28458187 321.55192386 285.2702179 331.41459656 C286.3324054 331.44037781 287.3945929 331.46615906 288.4889679 331.49272156 C297.9353295 331.82773852 304.45657129 332.58555948 312.0202179 338.60209656 C319.03733907 347.37349802 318.95604387 356.29512912 318.90156555 367.0969696 C318.89525502 369.71171369 318.94220879 372.32189625 318.99287415 374.93608093 C319.06798234 384.81674603 318.48476357 393.20111037 312.2702179 401.41459656 C309.73517464 403.55641052 307.28835475 405.05826785 304.2702179 406.41459656 C302.9502179 407.07459656 301.6302179 407.73459656 300.2702179 408.41459656 C300.2702179 433.49459656 300.2702179 458.57459656 300.2702179 484.41459656 C321.69380921 484.59489704 321.69380921 484.59489704 343.11750793 484.71611977 C350.78061781 484.74934489 358.44333505 484.79149899 366.1061554 484.86723328 C372.82352313 484.93359149 379.54037811 484.96831565 386.25808716 484.98386002 C388.81934293 484.99493569 391.38057577 485.01656414 393.94165039 485.0489769 C397.53280152 485.09261358 401.12220315 485.09852717 404.71357727 485.0957489 C405.76950073 485.11732056 406.82542419 485.13889221 407.91334534 485.16111755 C415.09438759 485.10111068 419.11120344 483.41361346 424.2702179 478.41459656 C429.59027957 472.95812305 429.39483635 467.3859619 429.39885235 460.04286289 C429.4014819 458.95675327 429.4014819 458.95675327 429.40416458 457.84870204 C429.40881772 455.42163747 429.40636085 452.99463298 429.40393066 450.56756592 C429.40579897 448.81021098 429.40809976 447.05285646 429.41079599 445.2955026 C429.41691778 440.46549781 429.41677995 435.63551032 429.41560161 430.80550253 C429.4153977 425.59683377 429.42091536 420.38817057 429.42565918 415.17950439 C429.43396804 404.97506651 429.43671411 394.7706344 429.43727156 384.56619341 C429.43774654 376.27358405 429.43980042 367.9809766 429.44297218 359.68836784 C429.45177888 336.18548831 429.45639146 312.68261335 429.45564171 289.17973215 C429.45560175 287.91250352 429.4555618 286.64527489 429.45552063 285.33964539 C429.45547975 284.07087268 429.45543887 282.80209996 429.45539675 281.4948796 C429.45499013 260.92349496 429.46456373 240.35212861 429.478659 219.78074927 C429.49301247 198.66624251 429.49992977 177.55174468 429.49906522 156.43723291 C429.49873293 144.57974026 429.50149425 132.72226678 429.51224327 120.86477852 C429.52133468 110.77107581 429.52353468 100.67740098 429.51673385 90.58369596 C429.51346195 85.43251474 429.5134361 80.28138705 429.5220871 75.13021088 C429.5299233 70.41579035 429.52855024 65.70146606 429.51980297 60.98704796 C429.51826163 59.28051874 429.52010788 57.57398244 429.52566304 55.86746157 C429.53271133 53.54891475 429.52743886 51.23070664 429.51910686 48.91217136 C429.51932423 47.62399496 429.5195416 46.33581855 429.51976556 45.00860649 C429.14346237 39.58905106 428.15727287 34.76436724 424.4577179 30.66459656 C423.73648743 29.83701843 423.73648743 29.83701843 423.00068665 28.99272156 C417.94319999 24.38047639 413.82391956 23.95362075 407.24633789 23.907547 C406.32693739 23.88991326 405.40753689 23.87227952 404.46027577 23.85411143 C401.34577334 23.79930297 398.23147337 23.76691699 395.11665344 23.73539734 C392.84895003 23.70261012 390.581256 23.66916874 388.31357098 23.63513374 C358.37188005 23.22325301 328.42362769 23.26763737 298.4797671 23.27929424 C292.36935042 23.28161915 286.25893652 23.28185182 280.14851952 23.28078079 C279.26405486 23.28062756 278.3795902 23.28047433 277.46832358 23.28031645 C275.66902378 23.27999658 273.86972397 23.27967236 272.07042416 23.27934386 C255.36627615 23.27652137 238.66213371 23.27972412 221.95798662 23.28514422 C207.77291705 23.28960533 193.58785568 23.28883566 179.40278625 23.28422546 C162.74811043 23.27881481 146.09343943 23.2767998 129.43876284 23.27983773 C127.6461736 23.28015612 125.85358435 23.2804705 124.0609951 23.28078079 C122.73958539 23.28101221 122.73958539 23.28101221 121.39148054 23.28124829 C115.32476561 23.28209452 109.25805393 23.28066076 103.19133949 23.27830124 C83.68963056 23.27170678 64.1885673 23.30172651 44.68705029 23.39021232 C39.70147119 23.41168255 34.71597914 23.4196272 29.73035812 23.42238617 Z M130.2702179 298.41459656 C129.67897574 307.53286444 129.72187339 314.84993638 135.2702179 322.41459656 C140.70969138 328.36208465 146.30624595 330.66577774 154.2702179 331.41459656 C157.91731698 331.52938014 161.55929402 331.50951591 165.2077179 331.47709656 C166.17773743 331.47258484 167.14775696 331.46807312 168.14717102 331.46342468 C170.52158549 331.45172806 172.89586811 331.43533742 175.2702179 331.41459656 C175.86146005 322.29632867 175.8185624 314.97925673 170.2702179 307.41459656 C164.83074441 301.46710846 159.23418985 299.16341537 151.2702179 298.41459656 C147.62311881 298.29981298 143.98114177 298.31967721 140.3327179 298.35209656 C138.8776886 298.35886414 138.8776886 298.35886414 137.39326477 298.36576843 C135.0188503 298.37746506 132.64456768 298.3938557 130.2702179 298.41459656 Z M231.2702179 306.41459656 C226.7132989 312.41113922 225.13810868 317.01469244 225.2077179 324.60209656 C225.21674133 325.87440125 225.22576477 327.14670593 225.23506165 328.45756531 C225.24666321 329.43338562 225.25826477 330.40920593 225.2702179 331.41459656 C228.56180655 331.47365073 231.85325545 331.50854031 235.1452179 331.53959656 C236.52193665 331.56473328 236.52193665 331.56473328 237.9264679 331.59037781 C247.00250299 331.65429355 255.28944999 331.15064926 262.5124054 325.19975281 C266.94167042 320.7015881 270.18173374 315.45491216 270.36787415 309.05912781 C270.35627258 307.7945575 270.34467102 306.52998718 270.3327179 305.22709656 C270.32369446 303.95479187 270.31467102 302.68248718 270.30537415 301.37162781 C270.29377258 300.3958075 270.28217102 299.41998718 270.2702179 298.41459656 C266.97862924 298.35554239 263.68718034 298.32065281 260.3952179 298.28959656 C259.4774054 298.27283875 258.5595929 298.25608093 257.6139679 298.23881531 C247.5189493 298.16772363 238.64596936 298.92411119 231.2702179 306.41459656 Z M103.2702179 354.41459656 C102.80181894 357.58368825 102.80181894 357.58368825 102.8717804 361.32084656 C102.86891022 362.00135071 102.86604004 362.68185486 102.86308289 363.38298035 C102.86104094 364.82207572 102.86658003 366.26119877 102.87910461 367.70024109 C102.89515852 369.90643715 102.87926259 372.1108014 102.86006165 374.31694031 C102.86204406 375.71407978 102.86588769 377.11121811 102.8717804 378.50834656 C102.87516418 379.7838739 102.87854797 381.05940125 102.8820343 382.37358093 C103.01013489 383.37711609 103.13823547 384.38065125 103.2702179 385.41459656 C106.90231482 387.83599451 109.55213037 387.69453761 113.7480011 387.66856384 C114.51615552 387.67168382 115.28430994 387.67480381 116.07574177 387.67801833 C118.65757158 387.68601512 121.23916745 387.67966819 123.82099915 387.67338562 C125.6687687 387.67609474 127.51653717 387.67965522 129.36430359 387.68400574 C134.38898733 387.69314144 139.41358916 387.68958062 144.43827438 387.68324757 C149.68995641 387.67819369 154.9416313 387.68287731 160.1933136 387.6860199 C169.01355757 387.68966133 177.83376807 387.6848558 186.65400696 387.67533875 C196.85996209 387.66445386 207.06583731 387.66797932 217.2717905 387.67899156 C226.02512326 387.68805938 234.77843192 387.68935218 243.53176785 387.68411422 C248.7638219 387.68099174 253.99583836 387.68059278 259.22789001 387.68718719 C264.14606604 387.6929527 269.06413878 387.68897837 273.98230362 387.67739868 C275.79033359 387.67474783 277.59837221 387.6755244 279.40639877 387.67992401 C281.86852923 387.68536417 284.33032569 387.67856409 286.79243469 387.66856384 C287.87350479 387.67525601 287.87350479 387.67525601 288.97641468 387.68208337 C292.63718653 387.65311115 294.13471288 387.50493324 297.2702179 385.41459656 C297.73861685 382.24550487 297.73861685 382.24550487 297.6686554 378.50834656 C297.67152557 377.82784241 297.67439575 377.14733826 297.67735291 376.44621277 C297.67939485 375.00711739 297.67385576 373.56799435 297.66133118 372.12895203 C297.64527727 369.92275596 297.6611732 367.71839172 297.68037415 365.51225281 C297.67839173 364.11511334 297.6745481 362.71797501 297.6686554 361.32084656 C297.66357971 359.40755554 297.66357971 359.40755554 297.65840149 357.45561218 C297.5303009 356.45207703 297.40220032 355.44854187 297.2702179 354.41459656 C293.63812097 351.99319861 290.98830542 352.13465551 286.79243469 352.16062927 C285.64020306 352.1559493 285.64020306 352.1559493 284.46469402 352.15117478 C281.88286421 352.14317799 279.30126834 352.14952493 276.71943665 352.1558075 C274.87166709 352.15309838 273.02389862 352.14953789 271.1761322 352.14518738 C266.15144846 352.13605167 261.12684663 352.1396125 256.10216141 352.14594555 C250.85047938 352.15099943 245.59880449 352.1463158 240.34712219 352.14317322 C231.52687823 352.13953179 222.70666772 352.14433732 213.88642883 352.15385437 C203.68047371 352.16473925 193.47459848 352.1612138 183.26864529 352.15020156 C174.51531254 352.14113373 165.76200388 352.13984093 157.00866795 352.1450789 C151.77661389 352.14820138 146.54459743 352.14860033 141.31254578 352.14200592 C136.39436975 352.13624042 131.47629701 352.14021475 126.55813217 352.15179443 C124.7501022 352.15444529 122.94206358 352.15366871 121.13403702 352.1492691 C118.67190656 352.14382894 116.2101101 352.15062903 113.7480011 352.16062927 C113.0272877 352.15616783 112.30657431 352.15170639 111.56402111 352.14710975 C107.90324926 352.17608197 106.40572291 352.32425988 103.2702179 354.41459656 Z M122.2702179 408.41459656 C122.2702179 433.49459656 122.2702179 458.57459656 122.2702179 484.41459656 C173.7502179 484.41459656 225.2302179 484.41459656 278.2702179 484.41459656 C278.2702179 459.33459656 278.2702179 434.25459656 278.2702179 408.41459656 C226.7902179 408.41459656 175.3102179 408.41459656 122.2702179 408.41459656 Z " fill="#030303" transform="translate(56.72978210449219,1.5854034423828125)"/>
<path d="M0 0 C1.78653526 -0.00604381 3.57306535 -0.01382317 5.3595863 -0.02318513 C10.26110688 -0.04375281 15.162335 -0.03937973 20.06387961 -0.03082395 C25.3530179 -0.02589089 30.64208564 -0.0439159 35.93119812 -0.05889893 C46.28979679 -0.08440047 56.6482918 -0.08797944 67.00691658 -0.0832984 C75.4258067 -0.07973284 83.84466535 -0.08322962 92.26355171 -0.09174728 C93.4616007 -0.09293766 94.65964969 -0.09412804 95.8940032 -0.09535449 C98.32780035 -0.09777798 100.7615975 -0.10020625 103.19539464 -0.10263924 C126.02029735 -0.12439293 148.84514096 -0.12006379 171.67004699 -0.10786955 C192.5536465 -0.09752919 213.43705948 -0.12004687 234.32062208 -0.15806599 C255.76292179 -0.19680317 277.20513321 -0.21333836 298.64746815 -0.20581949 C310.68613737 -0.20199263 322.7246478 -0.20699802 334.7632885 -0.23524857 C345.01103813 -0.25905314 355.2585312 -0.261912 365.50628429 -0.23766823 C370.73483467 -0.22587476 375.96291551 -0.22373485 381.19143486 -0.24767303 C385.97893197 -0.2693374 390.76556601 -0.26324972 395.55302227 -0.23514967 C397.28375236 -0.22984088 399.01454951 -0.23463584 400.74521392 -0.25062139 C411.89294761 -0.34643282 418.75920262 0.872768 427.03517151 8.79483032 C427.83954651 9.83510376 427.83954651 9.83510376 428.66017151 10.89639282 C429.49548401 11.92893188 429.49548401 11.92893188 430.34767151 12.98233032 C433.13420406 18.37294389 432.78524826 25.06840953 432.78601265 31.0187273 C432.78746609 31.73209107 432.78891953 32.44545484 432.79041702 33.18043569 C432.79405211 35.55906864 432.79060221 37.93763649 432.78715515 40.31626892 C432.78830796 42.04362543 432.78989656 43.77098169 432.7918824 45.49833745 C432.7960539 50.23629199 432.79399483 54.97422636 432.79089618 59.71218097 C432.78863339 64.82545602 432.79212611 69.9387276 432.7948761 75.05200195 C432.79932363 85.06633861 432.79836175 95.08066777 432.79546346 105.09500472 C432.79320507 113.23545306 432.7928988 121.37589931 432.79398727 129.51634789 C432.79414051 130.67496437 432.79429374 131.83358086 432.79445162 133.02730694 C432.79477134 135.38105463 432.79509556 137.73480231 432.79542421 140.08854999 C432.79827612 162.16286674 432.79499669 184.23717933 432.78962384 206.31149539 C432.78515784 225.24596523 432.78593062 244.18042895 432.7905426 263.11489868 C432.79589651 285.10559143 432.79799959 307.09628054 432.79493034 329.08697385 C432.79461179 331.43297938 432.79429742 333.77898492 432.79398727 336.12499046 C432.793833 337.27924493 432.79367872 338.4334994 432.79351977 339.62273127 C432.79265694 347.75041928 432.79411251 355.87810497 432.79646683 364.00579262 C432.79927415 373.91523994 432.79850693 383.82467935 432.79318608 393.73412577 C432.79056141 398.78858861 432.78952308 403.84303826 432.79283524 408.89750099 C432.79582371 413.52814155 432.79416296 418.15875673 432.78885768 422.789395 C432.78774435 424.46094188 432.78830053 426.13249093 432.79073347 427.80403642 C432.82518029 453.44579224 432.82518029 453.44579224 428.66017151 458.33389282 C428.12392151 459.00033813 427.58767151 459.66678345 427.03517151 460.35342407 C419.46582889 467.26293913 413.88451772 469.40567954 403.62281799 469.20254517 C402.45107529 469.20342133 401.27933258 469.20429749 400.07208252 469.2052002 C396.22444974 469.20104202 392.37859102 469.15446832 388.53126526 469.10733032 C385.85366873 469.09613186 383.17616865 469.08729948 380.49856567 469.081604 C374.18743791 469.06301903 367.87694015 469.0138699 361.56608874 468.95350707 C353.66983659 468.87963338 345.77348029 468.84696948 337.87696838 468.81436157 C323.80421307 468.75606889 309.73283076 468.63585639 295.66017151 468.52139282 C295.66017151 441.13139282 295.66017151 413.74139282 295.66017151 385.52139282 C300.61017151 383.54139282 300.61017151 383.54139282 305.66017151 381.52139282 C309.94567006 378.05652166 313.1679036 374.03492438 313.9546051 368.41989136 C314.08878308 365.95189116 314.1283444 363.50086821 314.12892151 361.02920532 C314.13653503 360.12443451 314.14414856 359.2196637 314.1519928 358.28747559 C314.16276377 356.37963612 314.16565915 354.47173783 314.16114807 352.56387329 C314.16017673 349.6619821 314.20181116 346.7627459 314.24610901 343.86123657 C314.25131755 342.00056496 314.25400418 340.13988423 314.25392151 338.27920532 C314.2785144 336.99132614 314.2785144 336.99132614 314.30360413 335.6774292 C314.23287162 329.43758174 312.55045237 325.39877317 308.66017151 320.52139282 C300.94703535 313.32755692 288.50326169 314.5944638 278.66017151 314.52139282 C279.15388245 313.47338501 279.64759338 312.4253772 280.15626526 311.34561157 C280.80348778 309.9667462 281.4506184 308.5878377 282.09767151 307.20889282 C282.42315979 306.51859985 282.74864807 305.82830688 283.08399963 305.11709595 C285.78690603 299.34903797 286.8025642 295.10295245 286.75782776 288.79092407 C286.75641281 288.04050339 286.75499786 287.2900827 286.75354004 286.516922 C286.7479471 284.12253822 286.73539595 281.72824829 286.72267151 279.33389282 C286.71765559 277.70954522 286.71309285 276.08519614 286.70899963 274.46084595 C286.69797999 270.48099213 286.68072024 266.50120839 286.66017151 262.52139282 C283.89068513 261.74386926 281.39859491 261.38456711 278.52516174 261.34439087 C277.72009689 261.33155563 276.91503204 261.3187204 276.08557129 261.30549622 C275.2220253 261.29810928 274.35847931 261.29072235 273.46876526 261.28311157 C272.56827957 261.27503983 271.66779388 261.26696808 270.74002075 261.25865173 C268.83280854 261.24483248 266.92557183 261.23410068 265.01832581 261.22622681 C263.08368087 261.21474475 261.14906666 261.19435328 259.21461487 261.16470337 C243.97372008 260.79189074 243.97372008 260.79189074 229.66017151 265.52139282 C228.65599182 266.01123657 227.65181213 266.50108032 226.61720276 267.00576782 C225.55565979 267.6322522 225.55565979 267.6322522 224.47267151 268.27139282 C223.73661682 268.69936157 223.00056213 269.12733032 222.24220276 269.56826782 C221.72013245 269.88279907 221.19806213 270.19733032 220.66017151 270.52139282 C220.61118713 269.46178345 220.56220276 268.40217407 220.51173401 267.31045532 C220.43670442 265.92240785 220.36115666 264.53438831 220.28517151 263.14639282 C220.23876526 262.09838501 220.23876526 262.09838501 220.19142151 261.02920532 C220.06517653 256.81953455 220.06517653 256.81953455 217.66017151 253.52139282 C215.75010845 253.20376822 215.75010845 253.20376822 213.66017151 253.27139282 C212.95892151 253.26623657 212.25767151 253.26108032 211.53517151 253.25576782 C209.4166046 253.36433767 209.4166046 253.36433767 207.66017151 255.52139282 C207.32819403 258.1096771 207.32819403 258.1096771 207.34132385 261.16445923 C207.32145416 262.34553253 207.30158447 263.52660583 207.28111267 264.74346924 C207.26956146 266.02369965 207.25801025 267.30393005 207.24610901 268.62295532 C207.22674286 269.92969208 207.20737671 271.23642883 207.18742371 272.58276367 C207.13602981 276.05806391 207.09644329 279.53340295 207.0592804 283.00888062 C207.01928598 286.55481623 206.96817292 290.10058944 206.91798401 293.64639282 C206.82113895 300.60461427 206.73778925 307.56293062 206.66017151 314.52139282 C202.04017151 314.52139282 197.42017151 314.52139282 192.66017151 314.52139282 C192.65208466 313.1853299 192.6439978 311.84926697 192.63566589 310.47271729 C192.55831305 297.90566533 192.47060161 285.33872309 192.37264442 272.77181435 C192.32261467 266.31043282 192.27628535 259.84906819 192.23829651 253.38760376 C192.20152795 247.15652405 192.1551913 240.92558339 192.102108 234.69462204 C192.0835191 232.31271163 192.06842794 229.93077137 192.05682755 227.54881668 C192.04004186 224.22263477 192.01102571 220.89677448 191.97901917 217.57070923 C191.97685898 216.57737076 191.97469879 215.58403229 191.97247314 214.56059265 C191.96130966 213.65752884 191.95014618 212.75446503 191.93864441 211.82403564 C191.93311365 211.03682444 191.92758289 210.24961323 191.92188454 209.43854713 C191.82444518 207.28235454 191.82444518 207.28235454 189.66017151 205.52139282 C187.75010845 205.20376822 187.75010845 205.20376822 185.66017151 205.27139282 C184.95892151 205.26623657 184.25767151 205.26108032 183.53517151 205.25576782 C181.4166046 205.36433767 181.4166046 205.36433767 179.66017151 207.52139282 C179.32773523 210.27242243 179.32773523 210.27242243 179.34132385 213.53164673 C179.32145416 214.79280304 179.30158447 216.05395935 179.28111267 217.35333252 C179.26923537 218.73487167 179.25757256 220.11641268 179.24610901 221.49795532 C179.22740441 222.90758406 179.20783153 224.31720153 179.18742371 225.72680664 C179.13602139 229.43884645 179.09643932 233.15092259 179.0592804 236.86312866 C179.01929129 240.65035041 178.9681758 244.43741998 178.91798401 248.22451782 C178.82112894 255.6567052 178.73675514 263.088966 178.66017151 270.52139282 C178.00017151 270.52139282 177.34017151 270.52139282 176.66017151 270.52139282 C176.66017151 269.86139282 176.66017151 269.20139282 176.66017151 268.52139282 C175.70110901 268.15014282 175.70110901 268.15014282 174.72267151 267.77139282 C171.4129073 266.42046866 168.1805973 264.93497176 164.94142151 263.42373657 C159.41098114 261.23618225 153.948233 261.37515762 148.08985901 261.38858032 C146.71279282 261.38714523 146.71279282 261.38714523 145.3079071 261.38568115 C143.37308178 261.38500232 141.43825414 261.3868359 139.50343323 261.39102173 C136.53870048 261.39638644 133.57411839 261.3910604 130.60939026 261.38467407 C128.72787951 261.38533467 126.84636885 261.38661544 124.96485901 261.38858032 C124.07732941 261.38655609 123.1897998 261.38453186 122.27537537 261.38244629 C121.45086884 261.38559845 120.6263623 261.38875061 119.77687073 261.39199829 C119.0524881 261.39279388 118.32810547 261.39358948 117.58177185 261.39440918 C115.43876661 261.4546473 115.43876661 261.4546473 112.66017151 262.52139282 C112.56034224 267.18034813 112.48825718 271.8386636 112.44044495 276.4984436 C112.42048729 278.07928328 112.39331091 279.66005065 112.3584137 281.2406311 C112.1618155 290.38244734 112.22993825 298.26607732 116.66017151 306.52139282 C117.04141174 307.30562622 117.42265198 308.08985962 117.81544495 308.89785767 C118.73500458 310.78660527 119.69318139 312.6564833 120.66017151 314.52139282 C120.07115051 314.52550171 119.48212952 314.5296106 118.8752594 314.53384399 C116.15677166 314.56712943 113.44042335 314.63780475 110.72267151 314.70889282 C109.7964801 314.7146936 108.8702887 314.72049438 107.91603088 314.72647095 C101.34107589 314.93410111 95.68721168 316.03319723 90.66017151 320.52139282 C85.97613161 326.18948632 84.91885921 330.98280171 85.03126526 338.20889282 C85.0288533 339.11083374 85.02644135 340.01277466 85.0239563 340.94204712 C85.02493036 342.83800682 85.03821802 344.73399653 85.06324768 346.62979126 C85.09758258 349.51392287 85.08387666 352.39498879 85.06446838 355.27920532 C85.07136753 357.13078072 85.08104054 358.98234829 85.09376526 360.83389282 C85.08880539 361.68620483 85.08384552 362.53851685 85.07873535 363.41665649 C85.19200039 369.24175654 86.44436755 373.6243557 89.66017151 378.52139282 C91.47228113 380.3997515 91.47228113 380.3997515 93.53517151 381.45889282 C94.17196838 381.83916626 94.80876526 382.2194397 95.46485901 382.61123657 C98.20597467 383.84454051 98.20597467 383.84454051 103.66017151 384.52139282 C103.66017151 412.24139282 103.66017151 439.96139282 103.66017151 468.52139282 C75.61074418 468.56150163 75.61074418 468.56150163 63.62501526 468.57022095 C55.45687705 468.57619128 47.28875 468.58309225 39.12062073 468.59683228 C32.53297833 468.60790835 25.94534482 468.61368275 19.35769272 468.61627007 C16.84839564 468.61811318 14.3390992 468.62171229 11.82980728 468.62712288 C8.30661356 468.63441534 4.78346926 468.63538031 1.26026917 468.63491821 C0.23023773 468.63851349 -0.7997937 468.64210876 -1.86103821 468.64581299 C-20.19437694 468.6199104 -20.19437694 468.6199104 -25.08982849 464.52139282 C-25.76529724 463.98514282 -26.44076599 463.44889282 -27.13670349 462.89639282 C-27.86373474 462.11264282 -28.59076599 461.32889282 -29.33982849 460.52139282 C-30.08322424 459.73248041 -30.08322424 459.73248041 -30.84163809 458.92763036 C-36.85912195 451.45017873 -36.1674282 443.34821047 -36.07481384 434.25785828 C-36.07886554 432.49179545 -36.0855478 430.72573704 -36.094625 428.9596929 C-36.11188893 424.11918057 -36.09182144 419.27943826 -36.06554031 414.4389931 C-36.04371689 409.21394651 -36.05657466 403.98896992 -36.06510925 398.76390076 C-36.07637113 388.53268245 -36.05575545 378.30176418 -36.02453333 368.070597 C-35.98944119 356.15421126 -35.9866145 344.23788357 -35.98530215 332.32145422 C-35.98192648 311.05771338 -35.95030324 289.79410908 -35.90232849 268.53042603 C-35.85581898 247.90118273 -35.82747972 227.27202601 -35.82029724 206.64273071 C-35.81985171 205.37231515 -35.81940617 204.10189958 -35.81894714 202.79298658 C-35.81806193 200.23366896 -35.81717788 197.67435133 -35.816295 195.11503371 C-35.81585587 193.85251136 -35.81541673 192.58998901 -35.81496429 191.28920841 C-35.81453232 190.02985655 -35.81410035 188.77050468 -35.81365529 187.47299064 C-35.80624967 167.80897044 -35.78353002 148.1449642 -35.7587035 128.48095934 C-35.74983947 121.35646711 -35.74296021 114.23197618 -35.73745924 107.10748059 C-35.72858631 95.80499812 -35.71301187 84.50256717 -35.68391043 73.20011718 C-35.67071611 68.03640218 -35.66056778 62.87273242 -35.65898895 57.70899963 C-35.65741081 52.97972133 -35.64655612 48.25055737 -35.62834996 43.52131467 C-35.6233492 41.81280995 -35.62166085 40.10429155 -35.62366754 38.39578069 C-35.64592134 14.9083036 -35.64592134 14.9083036 -29.71482849 8.64639282 C-29.08318787 7.94772095 -28.45154724 7.24904907 -27.80076599 6.52920532 C-19.12561796 -0.54861387 -10.63988132 -0.05084872 0 0 Z M29.12031174 3.52918243 C22.45956823 3.53345463 15.79953854 3.57000889 9.13901842 3.6290133 C6.7207347 3.64589219 4.30235695 3.65279266 1.88401759 3.64882064 C-1.39574995 3.64525455 -4.67313334 3.67851846 -7.95257568 3.72137451 C-8.89709473 3.71186366 -9.84161377 3.70235281 -10.81475461 3.69255376 C-18.96169757 3.86953959 -23.2399317 7.34201149 -28.77732849 13.02139282 C-31.80617443 17.86754633 -31.46731455 23.3784659 -31.47963619 28.95280266 C-31.48258762 29.68332964 -31.48553904 30.41385661 -31.4885799 31.16652077 C-31.49724511 33.61554155 -31.49884917 36.06451497 -31.50045776 38.5135498 C-31.50519047 40.28669188 -31.51034161 42.05983289 -31.5158754 43.83297265 C-31.52976602 48.70664592 -31.53736062 53.58031174 -31.5438484 58.45399976 C-31.55022471 62.63376821 -31.56029387 66.81352445 -31.57040905 70.99328528 C-31.60370641 84.75950138 -31.62524549 98.5257249 -31.6436089 112.29196805 C-31.64840473 115.87549862 -31.65338792 119.45902889 -31.65841413 123.04255915 C-31.68937731 145.29329936 -31.71606319 167.54404218 -31.73283291 189.7947979 C-31.73678241 194.94666422 -31.74078541 200.0985305 -31.74485779 205.25039673 C-31.74586615 206.53086959 -31.74687451 207.81134245 -31.74791343 209.13061751 C-31.76493259 229.88890701 -31.80605819 250.64707757 -31.85688078 271.40530895 C-31.90862031 292.713051 -31.93776998 314.0207318 -31.9450298 335.32853615 C-31.94969571 347.29400888 -31.96448616 359.25928653 -32.00477409 371.22469711 C-32.03903041 381.4110138 -32.05303102 391.59710021 -32.04034995 401.78347121 C-32.03451352 406.98152475 -32.03845676 412.17909096 -32.06851959 417.37707138 C-32.09581663 422.13557705 -32.09543289 426.89324762 -32.07300914 431.65177132 C-32.06977806 433.37313496 -32.07670198 435.09455387 -32.09480637 436.81582533 C-32.42094756 448.36720762 -32.42094756 448.36720762 -26.86476284 458.13966477 C-26.10992034 458.82362016 -26.10992034 458.82362016 -25.33982849 459.52139282 C-24.53545349 460.32576782 -23.73107849 461.13014282 -22.90232849 461.95889282 C-16.912129 465.61145349 -8.9641564 464.65859257 -2.17210388 464.63491821 C-1.06892822 464.63506424 0.03424744 464.63521027 1.17085266 464.63536072 C4.80142716 464.63466647 8.43194977 464.62689693 12.06251526 464.61904907 C14.58599825 464.61718316 17.1094816 464.61576007 19.63296509 464.61476135 C25.58616441 464.61133898 31.5393472 464.60346496 37.49253803 464.59341186 C46.13078029 464.5791431 54.76902889 464.57393027 63.40727997 464.56760406 C75.49159245 464.55791871 87.57585663 464.53875257 99.66017151 464.52139282 C99.66017151 439.44139282 99.66017151 414.36139282 99.66017151 388.52139282 C96.69017151 386.87139282 93.72017151 385.22139282 90.66017151 383.52139282 C85.45629107 379.35828847 82.21115879 374.20375586 81.42320251 367.50759888 C81.0928342 362.56513195 81.09092718 357.62564618 81.13868713 352.67422485 C81.1601237 350.02729665 81.1388272 347.38308191 81.11329651 344.73623657 C81.09689864 334.66063706 81.3998453 326.84680058 87.91017151 318.70889282 C96.34618932 311.99842411 104.20067811 311.77526402 114.66017151 311.52139282 C114.31083557 310.64096313 113.96149963 309.76053345 113.60157776 308.85342407 C113.1465387 307.69197876 112.69149963 306.53053345 112.22267151 305.33389282 C111.77021057 304.18533813 111.31774963 303.03678345 110.85157776 301.85342407 C108.15407674 294.3092655 108.47654974 286.95625182 108.47267151 279.02139282 C108.46042542 277.70268188 108.44817932 276.38397095 108.43556213 275.02529907 C108.43362854 273.75557251 108.43169495 272.48584595 108.42970276 271.17764282 C108.42559387 270.02070923 108.42148499 268.86377563 108.41725159 267.67178345 C108.66403337 264.47130892 109.05860465 262.30364451 110.66017151 259.52139282 C113.47879581 258.54660075 116.14907256 258.3783079 119.11476135 258.32852173 C119.99022614 258.3124588 120.86569092 258.29639587 121.76768494 258.27984619 C125.79384739 258.23484839 129.81985029 258.19426744 133.84620667 258.17129517 C135.95439264 258.15483253 138.06252507 258.12767294 140.17042542 258.08926392 C152.63338867 257.86373429 163.27734534 258.01052117 174.66017151 263.52139282 C174.65128906 262.88769775 174.64240662 262.25400269 174.633255 261.60110474 C174.54449091 254.9821783 174.48431672 248.36342205 174.44044495 241.74404907 C174.42037856 239.27653124 174.39311907 236.80906068 174.3584137 234.34170532 C174.30967845 230.78689889 174.28715212 227.23272338 174.26954651 223.67764282 C174.24890137 222.58149658 174.22825623 221.48535034 174.20698547 220.35598755 C174.20517819 214.13193974 174.550979 208.50387138 178.66017151 203.52139282 C182.10090721 201.42617283 184.63422179 201.11058163 188.66017151 201.52139282 C192.46198194 203.24948847 194.10724615 204.68666698 195.66017151 208.52139282 C195.92188454 210.62217331 195.92188454 210.62217331 195.93864441 212.91268921 C195.94980789 213.78484573 195.96097137 214.65700226 195.97247314 215.55558777 C195.97463333 216.50433273 195.97679352 217.4530777 195.97901917 218.43057251 C195.9940876 219.93837532 195.9940876 219.93837532 196.00946045 221.47663879 C196.04034869 224.79884266 196.05734343 228.12096573 196.07423401 231.44326782 C196.0929411 233.74684344 196.11251416 236.05041218 196.13291931 238.35397339 C196.1842949 244.41692042 196.22389168 250.47988969 196.26106262 256.54293823 C196.30106818 262.72982303 196.35217626 268.91661493 196.40235901 275.10342407 C196.49918261 287.24268178 196.58356688 299.38199187 196.66017151 311.52139282 C198.64017151 311.52139282 200.62017151 311.52139282 202.66017151 311.52139282 C202.66603775 310.84345169 202.67190399 310.16551056 202.677948 309.46702576 C202.7418873 302.41024748 202.82630896 295.35392501 202.92262268 288.29751587 C202.95587476 285.66411346 202.98390575 283.03063974 203.00660706 280.39712524 C203.0401468 276.61141571 203.09246471 272.82635994 203.14845276 269.04092407 C203.15484268 267.86367264 203.1612326 266.6864212 203.16781616 265.47349548 C203.18761032 264.37273178 203.20740448 263.27196808 203.22779846 262.1378479 C203.24445305 260.68889885 203.24445305 260.68889885 203.26144409 259.2106781 C203.73302177 256.03004178 204.8074377 254.12718236 206.66017151 251.52139282 C209.87539288 249.19312907 212.76847576 249.12428101 216.66017151 249.52139282 C219.42975465 250.78029425 221.13836078 251.7908578 222.91017151 254.27139282 C223.92110366 257.30418927 224.23368164 260.35948519 224.66017151 263.52139282 C225.39743469 263.1669812 226.13469788 262.81256958 226.89430237 262.44741821 C237.55209163 257.94616346 247.63326695 257.78441646 259.09498596 257.92446899 C262.24846203 257.95917668 265.3991878 257.9449738 268.55274963 257.9256897 C270.56903755 257.93257908 272.58531834 257.94224319 274.60157776 257.95498657 C276.00628075 257.94754677 276.00628075 257.94754677 277.43936157 257.93995667 C281.69656159 258.01697205 284.04466402 258.13789524 287.72633362 260.43179321 C292.28860539 265.36153493 290.92553394 271.95775077 290.97267151 278.33389282 C291.01617737 280.23171509 291.01617737 280.23171509 291.06056213 282.1678772 C291.13207635 292.9005104 288.67453549 301.65872012 284.66017151 311.52139282 C285.72235901 311.54717407 286.78454651 311.57295532 287.87892151 311.59951782 C297.32528311 311.93453478 303.8465249 312.69235575 311.41017151 318.70889282 C318.42729268 327.48029429 318.34599749 336.40192539 318.29151917 347.20376587 C318.28520863 349.81850996 318.33216241 352.42869252 318.38282776 355.0428772 C318.45793595 364.9235423 317.87471718 373.30790664 311.66017151 381.52139282 C309.12512825 383.66320678 306.67830837 385.16506411 303.66017151 386.52139282 C302.34017151 387.18139282 301.02017151 387.84139282 299.66017151 388.52139282 C299.66017151 413.60139282 299.66017151 438.68139282 299.66017151 464.52139282 C321.08376282 464.70169331 321.08376282 464.70169331 342.50746155 464.82291603 C350.17057143 464.85614116 357.83328866 464.89829525 365.49610901 464.97402954 C372.21347674 465.04038775 378.93033172 465.07511191 385.64804077 465.09065628 C388.20929654 465.10173196 390.77052938 465.12336041 393.331604 465.15577316 C396.92275513 465.19940984 400.51215676 465.20532343 404.10353088 465.20254517 C405.15945435 465.22411682 406.21537781 465.24568848 407.30329895 465.26791382 C414.48434121 465.20790695 418.50115705 463.52040972 423.66017151 458.52139282 C428.98023318 453.06491931 428.78478996 447.49275817 428.78880596 440.14965916 C428.79143552 439.06354954 428.79143552 439.06354954 428.7941182 437.95549831 C428.79877133 435.52843373 428.79631447 433.10142924 428.79388428 430.67436218 C428.79575259 428.91700725 428.79805337 427.15965273 428.8007496 425.40229887 C428.80687139 420.57229408 428.80673356 415.74230658 428.80555522 410.9122988 C428.80535132 405.70363003 428.81086897 400.49496684 428.81561279 395.28630066 C428.82392165 385.08186277 428.82666773 374.87743066 428.82722517 364.67298967 C428.82770016 356.38038031 428.82975403 348.08777286 428.8329258 339.79516411 C428.8417325 316.29228458 428.84634507 292.78940961 428.84559532 269.28652842 C428.84555537 268.01929978 428.84551541 266.75207115 428.84547424 265.44644165 C428.84543336 264.17766894 428.84539248 262.90889623 428.84535036 261.60167586 C428.84494374 241.03029122 428.85451734 220.45892488 428.86861261 199.88754553 C428.88296609 178.77303877 428.88988338 157.65854094 428.88901883 136.54402918 C428.88868654 124.68653652 428.89144787 112.82906305 428.90219688 100.97157478 C428.91128829 90.87787207 428.91348829 80.78419724 428.90668746 70.69049222 C428.90341556 65.539311 428.90338972 60.38818331 428.91204071 55.23700714 C428.91987692 50.52258661 428.91850386 45.80826233 428.90975658 41.09384423 C428.90821524 39.38731501 428.91006149 37.68077871 428.91561665 35.97425783 C428.92266494 33.65571101 428.91739247 31.33750291 428.90906048 29.01896763 C428.90927785 27.73079122 428.90949521 26.44261481 428.90971917 25.11540276 C428.53341599 19.69584733 427.54722648 14.87116351 423.84767151 10.77139282 C423.12644104 9.9438147 423.12644104 9.9438147 422.39064026 9.09951782 C417.3331536 4.48727265 413.21387317 4.06041702 406.6362915 4.01434326 C405.716891 3.99670953 404.7974905 3.97907579 403.85022938 3.9609077 C400.73572695 3.90609923 397.62142698 3.87371325 394.50660706 3.8421936 C392.23890365 3.80940639 389.97120962 3.77596501 387.70352459 3.74193001 C357.76183367 3.33004928 327.81358131 3.37443363 297.86972072 3.38609051 C291.75930403 3.38841542 285.64889013 3.38864809 279.53847313 3.38757706 C278.65400847 3.38742382 277.76954381 3.38727059 276.8582772 3.38711271 C275.05897739 3.38679284 273.25967758 3.38646863 271.46037778 3.38614012 C254.75622976 3.38331764 238.05208732 3.38652039 221.34794023 3.39194049 C207.16287066 3.3964016 192.97780929 3.39563193 178.79273987 3.39102173 C162.13806404 3.38561107 145.48339304 3.38359606 128.82871646 3.38663399 C127.03612721 3.38695239 125.24353796 3.38726676 123.45094872 3.38757706 C122.12953901 3.38780847 122.12953901 3.38780847 120.78143415 3.38804456 C114.71471922 3.38889079 108.64800754 3.38745702 102.58129311 3.3850975 C83.07958418 3.37850304 63.57852091 3.40852277 44.0770039 3.49700858 C39.0914248 3.51847881 34.10593276 3.52642346 29.12031174 3.52918243 Z " fill="#EEEEEE" transform="translate(57.33982849121094,21.478607177734375)"/>
<path d="M0 0 C7.66214168 7.16903355 12.98876033 16.13833835 13.8359375 26.7734375 C14.20338574 38.79205711 10.8035308 49.3827528 2.5078125 58.29296875 C-2.45158166 62.91033573 -8.29473053 68.02734375 -15.3828125 68.02734375 C-15.36615791 69.75502487 -15.36615791 69.75502487 -15.34916687 71.51760864 C-15.24777482 82.37616695 -15.17283921 93.23462912 -15.12375164 104.09355354 C-15.09766661 109.67617662 -15.06228782 115.25841731 -15.00561523 120.84082031 C-14.95125751 126.22896962 -14.92138373 131.6167513 -14.90842628 137.00515366 C-14.89919324 139.0600755 -14.88116305 141.1149774 -14.85416222 143.16974258 C-14.8178223 146.0499634 -14.81286927 148.92866856 -14.81518555 151.80908203 C-14.79720917 152.65712906 -14.77923279 153.50517609 -14.76071167 154.37892151 C-14.79716309 158.57259681 -15.11043538 161.21853915 -17.79328918 164.54098511 C-21.43926794 168.04171079 -23.36342812 168.26718343 -28.41796875 168.17578125 C-30.92634821 167.98628141 -32.38566115 167.58068369 -34.3828125 166.02734375 C-37.96288952 161.47822073 -37.7934373 157.45360405 -37.72338867 151.92260742 C-37.72382675 151.01479523 -37.72426483 150.10698303 -37.72471619 149.17166138 C-37.72263079 146.17932421 -37.69931129 143.18755146 -37.67578125 140.1953125 C-37.67018442 138.11737881 -37.66591473 136.03944115 -37.66291809 133.96150208 C-37.65147625 128.4984744 -37.62201456 123.03568686 -37.58880615 117.57275391 C-37.55809115 111.99580127 -37.54440968 106.41880975 -37.52929688 100.84179688 C-37.49714439 89.90354046 -37.44595585 78.96546209 -37.3828125 68.02734375 C-38.54623169 67.81368164 -38.54623169 67.81368164 -39.7331543 67.59570312 C-48.42046398 65.73224998 -55.42478506 59.10079624 -60.3828125 52.02734375 C-65.92186051 41.85864368 -68.03183105 32.45099267 -65.76953125 20.89453125 C-62.71633312 10.59166883 -57.00449972 1.80101406 -47.6796875 -3.76171875 C-31.43264018 -12.32733894 -14.61003258 -12.09519091 0 0 Z M-38.3828125 17.02734375 C-39.1253125 17.54296875 -39.8678125 18.05859375 -40.6328125 18.58984375 C-43.95762935 23.22083865 -44.79249536 28.96178579 -44.04296875 34.5703125 C-42.47399665 40.11277606 -40.15749968 42.87605021 -35.3828125 46.02734375 C-30.79085175 48.499938 -26.41503317 48.7146471 -21.33203125 47.5625 C-16.18013124 45.92281808 -13.32661266 43.70279106 -10.3828125 39.02734375 C-8.40709158 33.92261027 -7.86247756 29.21511953 -9.484375 23.94921875 C-11.75952836 19.08236896 -15.31011484 14.96153782 -20.3828125 13.02734375 C-27.33658028 12.1944412 -32.96910419 12.15500627 -38.3828125 17.02734375 Z " fill="#070707" transform="translate(297.3828125,95.97265625)"/>
<path d="M0 0 C1.80460802 -0.00704366 3.6092114 -0.01537321 5.41380817 -0.02487212 C10.35617639 -0.04704477 15.29840643 -0.0505739 20.2408179 -0.05087268 C25.57775206 -0.05438118 30.91462535 -0.07500496 36.25152588 -0.09320068 C47.91272239 -0.12957744 59.57388118 -0.14357155 71.23512626 -0.15303779 C78.52030103 -0.15906417 85.80546393 -0.16982657 93.09063148 -0.18154335 C113.27330747 -0.21329246 133.45597291 -0.24000096 153.63867474 -0.24629498 C155.57470837 -0.24690568 155.57470837 -0.24690568 157.54985379 -0.24752872 C160.16621737 -0.2483364 162.78258094 -0.24914212 165.39894452 -0.2499459 C167.34700829 -0.25055427 167.34700829 -0.25055427 169.33442688 -0.25117493 C171.28487628 -0.2517779 171.28487628 -0.2517779 173.27472869 -0.25239304 C194.34495174 -0.25988301 215.41491912 -0.30436447 236.48504975 -0.36503234 C258.13309875 -0.42686239 279.78102039 -0.45865509 301.42915946 -0.46012241 C313.57760774 -0.46162231 325.72574064 -0.47581287 337.87410545 -0.52293968 C348.21792452 -0.5628994 358.56131984 -0.57522955 368.90519776 -0.55195405 C374.17920813 -0.54089608 379.452376 -0.54258271 384.72628784 -0.579422 C389.56232537 -0.61288368 394.39688269 -0.6088365 399.23291085 -0.57595644 C400.97446781 -0.57052868 402.71613266 -0.57838791 404.45754465 -0.60150524 C419.0901302 -0.78318883 429.70826803 2.9498836 440.7077179 12.97709656 C451.59943309 24.9244945 454.46146471 36.05254086 454.25917053 51.76583862 C454.26553704 53.57690978 454.27540542 55.38797138 454.28843617 57.19900686 C454.31390405 62.13631044 454.28996718 67.07228649 454.25737906 72.00950181 C454.23092309 77.34902603 454.25089673 82.68841066 454.26490784 88.0279541 C454.2850171 98.47165543 454.26258485 108.91484785 454.22550663 119.3584859 C454.18385986 131.52867353 454.1842543 143.69875272 454.18619695 155.86899821 C454.18819704 177.5863718 454.15161644 199.30350931 454.09346008 221.02079773 C454.03709435 242.08041178 454.00877811 263.13981814 454.01142883 284.19950867 C454.01166857 286.14587623 454.01166857 286.14587623 454.01191315 288.13156434 C454.01207457 289.42693053 454.01223599 290.72229671 454.0124023 292.05691642 C454.01516361 316.05619356 453.9915931 340.05538272 453.95578943 364.05463132 C453.94373941 372.53259061 453.93947304 381.01053369 453.93766022 389.4885006 C453.93492796 399.82161968 453.91701733 410.15459039 453.88032898 420.48764654 C453.86189838 425.75700741 453.84965968 431.02617892 453.85470581 436.29557419 C453.85910496 441.12352532 453.84489818 445.95105854 453.81611171 450.7789226 C453.80889457 452.52092239 453.80830181 454.26296559 453.81518087 456.00496676 C453.8707378 471.83186802 451.06440505 484.02012359 439.9811554 495.85990906 C430.90260029 504.59261444 421.3693381 508.56862506 408.85088348 508.55719757 C408.10950134 508.56044859 407.3681192 508.56369961 406.60427094 508.56704915 C404.11225507 508.57673763 401.62028273 508.57933944 399.12825012 508.58195496 C397.32653602 508.58740238 395.52482314 508.59326596 393.72311163 508.59951067 C388.76562123 508.61535957 383.80813579 508.62487652 378.8506279 508.63327551 C374.59999491 508.64128119 370.34937526 508.65297137 366.09875113 508.66469032 C350.87467409 508.70658873 335.65058137 508.73380339 320.4264679 508.75834656 C318.62418279 508.76130891 318.62418279 508.76130891 316.78548789 508.7643311 C292.92659893 508.80349496 269.06770472 508.83719519 245.20879364 508.85941315 C239.96364331 508.86438242 234.71849307 508.86942675 229.4733429 508.8745575 C228.16969117 508.87582817 226.86603944 508.87709884 225.52288312 508.87840801 C204.40576343 508.89976705 183.28879938 508.94876229 162.171758 509.00880164 C140.48999061 509.0699382 118.80830351 509.10460318 97.12645102 509.11388636 C84.95341639 509.11979591 72.78064545 509.13753643 60.60769653 509.18527222 C50.2403212 509.22589023 39.87325262 509.24274408 29.50580126 509.2286194 C24.21795877 509.22215644 18.93076951 509.22696625 13.64302826 509.26249313 C8.79654578 509.29479323 3.95117517 509.29441832 -0.89533645 509.2686761 C-2.64306875 509.26503987 -4.39087561 509.27311056 -6.13848132 509.29445761 C-21.24032968 509.46772461 -31.27581749 505.56287998 -42.50712585 494.87944031 C-46.21378896 490.76888773 -49.06723025 486.25238972 -51.7297821 481.41459656 C-52.50616278 480.08041628 -52.50616278 480.08041628 -53.29822791 478.71928287 C-54.91911822 474.97752161 -55.14835538 471.86205529 -55.10730553 467.86383438 C-55.11166585 467.12039961 -55.11602617 466.37696483 -55.12051862 465.61100173 C-55.13147383 463.11787774 -55.12105177 460.62530692 -55.11073303 458.13218689 C-55.11418951 456.32747004 -55.11895401 454.52275531 -55.12491477 452.718045 C-55.1374562 447.75696056 -55.13124001 442.79604891 -55.12195611 437.8349638 C-55.11517864 432.48512276 -55.12564051 427.13531178 -55.13389587 421.78547668 C-55.1472504 411.30328248 -55.14434749 400.82115265 -55.13565795 390.33895591 C-55.12888714 381.818965 -55.12796208 373.29899215 -55.1312294 364.77899933 C-55.1316891 363.56709127 -55.1321488 362.35518322 -55.13262243 361.10655068 C-55.1335816 358.64465119 -55.13455423 356.1827517 -55.1355402 353.72085223 C-55.14409951 330.62267311 -55.13425224 307.52452967 -55.1181391 284.42635641 C-55.10474222 264.60861648 -55.10705779 244.79092928 -55.12089539 224.97319031 C-55.13695333 201.96474932 -55.14326834 178.95633966 -55.13405859 155.94789386 C-55.13310294 153.49374819 -55.13215983 151.03960252 -55.1312294 148.58545685 C-55.13076657 147.3779536 -55.13030375 146.17045035 -55.1298269 144.92635609 C-55.12723715 136.419003 -55.13160783 127.91166978 -55.13866806 119.40431976 C-55.14708592 109.03290874 -55.14479714 98.66156582 -55.12882583 88.29016259 C-55.12094598 82.99884768 -55.11784664 77.70764629 -55.12777328 72.41633224 C-55.13672689 67.57032816 -55.13177619 62.72454258 -55.11584063 57.87855825 C-55.11249558 56.12756403 -55.11418067 54.37655127 -55.12146799 52.62556902 C-55.18264924 36.70060843 -52.71741118 24.51357642 -41.4172821 12.60209656 C-29.33782949 1.1488363 -15.90870242 -0.03394314 0 0 Z M-34.7297821 11.41459656 C-36.3075946 12.52834656 -36.3075946 12.52834656 -37.9172821 13.66459656 C-48.06122177 23.58311534 -52.092798 34.8910395 -52.27366848 48.94102968 C-52.28377251 51.39941525 -52.27438294 53.85730802 -52.26463318 56.31568909 C-52.27211695 58.11448874 -52.28132428 59.91328189 -52.29209447 61.71206486 C-52.31645184 66.62908577 -52.31604584 71.54583348 -52.31131697 76.46290088 C-52.31049804 81.77593302 -52.33260326 87.08887908 -52.35154724 92.40187073 C-52.38471061 102.80035612 -52.39576368 113.19875079 -52.39799675 123.59728466 C-52.3999 132.05131591 -52.40813195 140.50531733 -52.42079926 148.95933914 C-52.45600538 172.94469961 -52.47447944 196.92998861 -52.47147736 220.9153751 C-52.47131753 222.2072422 -52.47115771 223.49910931 -52.47099304 224.8301239 C-52.47082952 226.12357358 -52.470666 227.41702325 -52.47049752 228.74966837 C-52.46887132 249.71698281 -52.50716353 270.68401005 -52.56354651 291.65124141 C-52.62102553 313.19652582 -52.64862606 334.74167018 -52.6451714 356.2870332 C-52.64384453 368.37672447 -52.65478853 380.46611445 -52.69788361 392.55573654 C-52.73433508 402.84721299 -52.74297916 413.1382515 -52.71584591 423.42976461 C-52.70280126 428.67732956 -52.70249641 433.92405468 -52.73725891 439.17153931 C-52.76879903 443.98217197 -52.762918 448.79130171 -52.72812238 453.60189857 C-52.72199946 455.33529707 -52.72918365 457.06880885 -52.75156268 458.8020737 C-52.92348848 473.07095189 -49.42678544 482.51219219 -39.6047821 493.28959656 C-27.8661507 503.98792536 -17.96270613 506.60184744 -2.59922791 506.39682007 C-0.79997004 506.40246772 0.9992796 506.41162221 2.79850411 506.42394763 C7.70773981 506.44750819 12.61562232 506.4215955 17.52474666 506.38709867 C22.8322014 506.35859284 28.13953197 506.37652283 33.44702148 506.3885498 C43.82937315 506.40481928 54.21120141 506.3786556 64.59346977 506.33812358 C76.68945332 506.29256931 88.78533373 506.28989045 100.88138917 506.28906498 C122.46407317 506.28619237 144.04651808 506.24545532 165.62910461 506.1829071 C186.56370063 506.12227811 207.49813136 506.0868835 228.43281555 506.08036804 C229.72282647 506.07996246 231.01283738 506.07955689 232.34193954 506.07913902 C234.27363989 506.07854157 234.27363989 506.07854157 236.2443645 506.07793206 C238.83737739 506.07712619 241.43039028 506.07631155 244.02340317 506.07548809 C245.3022415 506.07508659 246.58107983 506.07468509 247.89867084 506.07427142 C267.86387594 506.06699781 287.82905512 506.03718913 307.79423307 506.00486445 C315.02553268 505.99341567 322.25682766 505.98519012 329.48813382 505.97928097 C340.95622822 505.96979311 352.42421393 505.9505616 363.89224806 505.91120627 C369.1309468 505.89339932 374.36954288 505.88019779 379.60827446 505.879879 C384.4058747 505.87939896 389.20322674 505.8650083 394.00075784 505.83959148 C395.73400601 505.83278225 397.46728261 505.83095364 399.20054016 505.83467635 C414.58252649 505.86258298 426.67371073 503.51793248 438.4577179 492.91459656 C446.93483491 483.98950182 450.37910738 473.00951524 450.41561222 460.93747711 C450.41916284 460.20199422 450.42271345 459.46651132 450.42637166 458.70874107 C450.43704364 456.24280654 450.44067769 453.77691308 450.44430542 451.31095886 C450.45047032 449.52559345 450.45704665 447.74022941 450.46399921 445.95486689 C450.48177523 441.04717459 450.49323558 436.13948485 450.50355589 431.23177195 C450.51320134 427.02266045 450.52651016 422.81356369 450.53982485 418.60446244 C450.58737661 403.53077931 450.62005632 388.45707527 450.64912415 373.38334656 C450.65143173 372.19353817 450.65373931 371.00372979 450.65611681 369.7778666 C450.70155918 346.14774336 450.74006752 322.51761078 450.76684666 298.8874588 C450.77283563 293.69370512 450.77892131 288.49995157 450.78511047 283.30619812 C450.78664346 282.01533666 450.78817644 280.72447521 450.78975587 279.39449674 C450.81546748 258.48502132 450.8723498 237.57574738 450.94157577 216.66637558 C451.01207919 195.19362563 451.05228552 173.72097985 451.06359619 152.24811602 C451.07075197 140.19407419 451.09147279 128.14038266 451.14662361 116.0864563 C451.19356129 105.82048676 451.21332811 95.55492029 451.19774211 85.28884727 C451.19064295 80.05344926 451.1963935 74.81891406 451.23731995 69.5836525 C451.27454301 64.78392217 451.27431957 59.98565549 451.24519634 55.18588263 C451.24114394 53.45632552 451.25043474 51.72667038 451.27496213 49.99728245 C451.46495165 35.73777994 447.96019561 26.3090478 438.1452179 15.53959656 C426.45176332 4.8802781 416.57429632 2.22680822 401.26701355 2.43910217 C399.48155671 2.43417184 397.69610675 2.42572971 395.91068089 2.41411269 C391.03949293 2.39248229 386.16968892 2.42032956 381.2986362 2.45675349 C376.03205414 2.48732838 370.76557994 2.47141877 365.49894714 2.46138 C355.19612388 2.44895681 344.89383985 2.47883833 334.59112011 2.52283125 C322.58560242 2.57231684 310.58018207 2.57804507 298.57457747 2.58163877 C277.15057855 2.5893845 255.72682181 2.63426929 234.30293274 2.70121765 C213.52753182 2.76608626 192.75225867 2.80857971 171.97676086 2.82426453 C170.69684174 2.82523551 169.41692262 2.82620649 168.09821807 2.82720689 C162.95302973 2.83106461 157.80784138 2.83488886 152.66265296 2.8386391 C132.84355054 2.85371589 113.02446901 2.88496574 93.20539226 2.91963231 C87.22335285 2.9300932 81.24131385 2.93995977 75.25927114 2.94835615 C62.68404253 2.96621952 50.1088749 2.98985672 37.53369986 3.03148822 C32.3352768 3.04863691 27.13689543 3.06283452 21.93844604 3.06851959 C17.17533187 3.07388117 12.41233807 3.08853698 7.64927234 3.11050053 C5.93078999 3.11687438 4.21229159 3.11998141 2.49379753 3.11939995 C-11.21689066 3.11791915 -23.21498721 3.16611691 -34.7297821 11.41459656 Z " fill="#FDFDFD" transform="translate(56.72978210449219,1.5854034423828125)"/>
<path d="M0 0 C8.37872351 1.69764986 14.49264153 11.93033888 19.13818359 18.59521484 C35.59503951 43.41844118 41.59820829 73.57377607 36.41357422 102.94482422 C31.84965067 123.78012737 20.62136438 147.65465108 2.80859375 160.3203125 C-0.3827245 161.85668219 -2.26118705 161.78389103 -5.67578125 161.18359375 C-9.24584251 159.8926019 -10.68324216 157.63622874 -12.609375 154.484375 C-13.85662523 150.37578599 -14.10329512 148.47221525 -12.171875 144.609375 C-10.22964829 142.06645962 -8.02877916 139.77099311 -5.859375 137.421875 C10.08928684 119.66154021 15.85071545 96.40928678 14.60644531 73.00537109 C12.79555274 51.85234313 3.29295953 33.58571717 -10.859375 18.08203125 C-13.0549308 14.82300311 -13.44755019 12.38615106 -13.609375 8.484375 C-10.28755551 2.19664526 -7.00641664 -0.22601344 0 0 Z " fill="#050505" transform="translate(342.609375,45.515625)"/>
<path d="M0 0 C3.48092393 1.74046197 5.42070616 3.04290583 7.4375 6.375 C8.13918527 9.64953125 7.81091684 11.74826381 7 15 C5.25 17.5 5.25 17.5 3 20 C-14.57593033 40.6265297 -21.80593919 63.96854844 -20 91 C-17.52076878 110.87976147 -8.79098463 126.51299361 4.1171875 141.625 C6.64264309 144.81063692 8.02670609 146.77151989 7.9375 150.875 C6.77509152 154.74969493 5.28000411 157.61735551 2 160 C-2.07374682 161.3283957 -5.58268282 161.50618471 -9.625 160.0625 C-27.30387021 144.70979692 -39.90563927 119.07300073 -43 96 C-43.26018143 91.58744689 -43.33013182 87.18988105 -43.31567383 82.77001953 C-43.31252702 80.76719726 -43.33680958 78.76439341 -43.36132812 76.76171875 C-43.37503409 48.93860906 -31.27936935 24.17755668 -13.0234375 3.79296875 C-8.6978213 -0.42401325 -5.73304302 -0.91000683 0 0 Z " fill="#050505" transform="translate(205,46)"/>
<path d="M0 0 C3.81357279 3.23324649 5.83136779 5.24622504 6.3125 10.25 C5.88422261 15.38932874 3.6437858 17.89472353 0.5390625 21.87109375 C-9.24587021 34.61137416 -11.33742744 47.1971489 -10 63 C-8.16460165 72.89136836 -2.96219113 81.91538236 3.9375 89.1875 C6.29569026 92.40321399 6.73979269 94.13103149 6.5 98.03515625 C5.5960421 101.5874283 3.59890985 103.46296895 1 106 C-2.06429776 107.53214888 -4.6165642 107.22938548 -8 107 C-19.5345289 101.07002276 -25.96560025 88.08007311 -30.35546875 76.390625 C-36.32612569 57.68112961 -34.91488828 39.17744105 -26.73046875 21.29296875 C-21.4097768 11.16804028 -12.87795845 -3.05578675 0 0 Z " fill="#050505" transform="translate(233,73)"/>
<path d="M0 0 C13.80516147 9.24100604 21.15259558 26.52228574 24.46875 42.21875 C24.75121385 44.13322718 24.87540726 46.06881246 25 48 C25.0515625 48.79277344 25.103125 49.58554688 25.15625 50.40234375 C25.86539828 70.52442612 17.68213894 88.51048012 4.67578125 103.44140625 C1.80056043 106.11556268 -0.48695005 106.93349352 -4.375 107.4375 C-9.1853299 106.85694294 -10.61392593 105.38607407 -14 102 C-15.61484741 98.77030518 -15.54219838 95.49543181 -15 92 C-13.4956243 89.60468336 -12.17138409 87.80850681 -10.3125 85.75 C-0.09645637 73.53176293 2.02173679 60.52014521 1 45 C-0.63450473 34.31780374 -5.84446158 26.10910931 -12.546875 17.84765625 C-15.3947579 14.22655784 -15.38128953 11.57547436 -15 7 C-13.25226375 3.56925846 -11.92801207 1.56169152 -8.625 -0.4375 C-5.15977235 -1.18004878 -3.40134336 -1.13378112 0 0 Z " fill="#050505" transform="translate(318,73)"/>
<path d="M0 0 C54.12 0 108.24 0 164 0 C164 27.39 164 54.78 164 83 C109.88 83 55.76 83 0 83 C0 55.61 0 28.22 0 0 Z M4 3 C4 28.08 4 53.16 4 79 C55.48 79 106.96 79 160 79 C160 53.92 160 28.84 160 3 C108.52 3 57.04 3 4 3 Z " fill="#EDEDED" transform="translate(175,407)"/>
<path d="M0 0 C7.66214168 7.16903355 12.98876033 16.13833835 13.8359375 26.7734375 C14.20338574 38.79205711 10.8035308 49.3827528 2.5078125 58.29296875 C-2.45158166 62.91033573 -8.29473053 68.02734375 -15.3828125 68.02734375 C-15.36615791 69.75502487 -15.36615791 69.75502487 -15.34916687 71.51760864 C-15.24777482 82.37616695 -15.17283921 93.23462912 -15.12375164 104.09355354 C-15.09766661 109.67617662 -15.06228782 115.25841731 -15.00561523 120.84082031 C-14.95125751 126.22896962 -14.92138373 131.6167513 -14.90842628 137.00515366 C-14.89919324 139.0600755 -14.88116305 141.1149774 -14.85416222 143.16974258 C-14.8178223 146.0499634 -14.81286927 148.92866856 -14.81518555 151.80908203 C-14.79720917 152.65712906 -14.77923279 153.50517609 -14.76071167 154.37892151 C-14.79716309 158.57259681 -15.11043538 161.21853915 -17.79328918 164.54098511 C-21.43926794 168.04171079 -23.36342812 168.26718343 -28.41796875 168.17578125 C-30.92634821 167.98628141 -32.38566115 167.58068369 -34.3828125 166.02734375 C-37.96288952 161.47822073 -37.7934373 157.45360405 -37.72338867 151.92260742 C-37.72382675 151.01479523 -37.72426483 150.10698303 -37.72471619 149.17166138 C-37.72263079 146.17932421 -37.69931129 143.18755146 -37.67578125 140.1953125 C-37.67018442 138.11737881 -37.66591473 136.03944115 -37.66291809 133.96150208 C-37.65147625 128.4984744 -37.62201456 123.03568686 -37.58880615 117.57275391 C-37.55809115 111.99580127 -37.54440968 106.41880975 -37.52929688 100.84179688 C-37.49714439 89.90354046 -37.44595585 78.96546209 -37.3828125 68.02734375 C-38.54623169 67.81368164 -38.54623169 67.81368164 -39.7331543 67.59570312 C-48.42046398 65.73224998 -55.42478506 59.10079624 -60.3828125 52.02734375 C-65.92186051 41.85864368 -68.03183105 32.45099267 -65.76953125 20.89453125 C-62.71633312 10.59166883 -57.00449972 1.80101406 -47.6796875 -3.76171875 C-31.43264018 -12.32733894 -14.61003258 -12.09519091 0 0 Z M-54.3828125 6.02734375 C-56.72863331 9.2116501 -58.66405589 12.46789171 -60.3828125 16.02734375 C-60.75664062 16.79433594 -61.13046875 17.56132813 -61.515625 18.3515625 C-64.27260816 26.85847001 -63.10413614 37.53612316 -59.64453125 45.6328125 C-55.16539478 54.13346469 -48.47036391 61.47134537 -39.3828125 65.02734375 C-37.71671928 65.07106048 -36.04871447 65.07782563 -34.3828125 65.02734375 C-34.38947433 66.19387985 -34.39613617 67.36041595 -34.40299988 68.56230164 C-34.46380451 79.55367484 -34.50878209 90.54501393 -34.53824902 101.53651714 C-34.55390751 107.18742061 -34.57514937 112.83818833 -34.60913086 118.48901367 C-34.6417174 123.94197233 -34.65966413 129.39480038 -34.66744423 134.84784889 C-34.67298898 136.92867908 -34.68381643 139.0095021 -34.70000267 141.09027672 C-34.72176733 144.00394536 -34.7247798 146.91707375 -34.72338867 149.83081055 C-34.7341745 150.69180359 -34.74496033 151.55279663 -34.756073 152.43988037 C-34.73187441 157.12120006 -34.44396719 160.23320822 -31.3828125 164.02734375 C-28.54197609 165.44776196 -26.52803972 165.34186647 -23.3828125 165.02734375 C-21.08005694 163.16024465 -19.70457379 161.67086634 -18.3828125 159.02734375 C-18.28936934 156.06749219 -18.25708015 153.13131699 -18.26928711 150.17138672 C-18.26914108 149.25425903 -18.26899506 148.33713135 -18.2688446 147.39221191 C-18.26954302 144.35129456 -18.2773321 141.31043795 -18.28515625 138.26953125 C-18.28702068 136.16488682 -18.28844447 134.06024195 -18.28944397 131.95559692 C-18.29326715 126.408781 -18.30309576 120.86199115 -18.31414795 115.31518555 C-18.32436634 109.65804395 -18.32894251 104.00089816 -18.33398438 98.34375 C-18.34471819 87.23826978 -18.36179224 76.13280893 -18.3828125 65.02734375 C-17.43970215 64.88039063 -16.4965918 64.7334375 -15.52490234 64.58203125 C-6.72145951 63.0279192 -0.38197403 57.16745055 4.6171875 50.02734375 C10.16827428 40.63630616 10.98694491 31.10042724 9.17578125 20.42578125 C6.66437304 11.48579981 0.86255237 3.96619372 -7.08984375 -0.72265625 C-7.84652344 -1.13515625 -8.60320312 -1.54765625 -9.3828125 -1.97265625 C-10.04667969 -2.38515625 -10.71054687 -2.79765625 -11.39453125 -3.22265625 C-26.03524834 -11.25413534 -43.41442341 -5.03560042 -54.3828125 6.02734375 Z " fill="#F8F8F8" transform="translate(297.3828125,95.97265625)"/>
<path d="M0 0 C0.79265574 -0.00467997 1.58531147 -0.00935994 2.40198708 -0.01418173 C5.06682529 -0.02617937 7.73115376 -0.01665605 10.39599609 -0.00723267 C12.30287985 -0.01129625 14.20976126 -0.01663693 16.11663818 -0.02316284 C21.30250545 -0.03686756 26.48819415 -0.03152478 31.67406464 -0.02202559 C37.09391267 -0.01444532 42.51374513 -0.02147004 47.93359375 -0.02618408 C57.03632358 -0.0316464 66.13898046 -0.02443752 75.24169922 -0.01016235 C85.77487598 0.00616505 96.30787856 0.00087688 106.8410511 -0.01564157 C115.87464454 -0.02924286 124.90818545 -0.03118274 133.94178581 -0.02332556 C139.34152966 -0.01864158 144.74119155 -0.01804408 150.14093018 -0.02793503 C155.2167402 -0.03658269 160.29232503 -0.03062313 165.36811066 -0.01325226 C167.23419063 -0.00927562 169.10028946 -0.01044147 170.966362 -0.01704025 C173.50745546 -0.02519952 176.04782054 -0.01500276 178.58886719 0 C179.33292627 -0.00669217 180.07698536 -0.01338433 180.84359169 -0.02027929 C183.74627619 0.01312025 185.79735173 0.04961323 188.25177002 1.68564415 C190.0530787 4.61446116 189.72021704 7.88931218 189.69287109 11.22470093 C189.69717636 12.37295349 189.69717636 12.37295349 189.7015686 13.54440308 C189.70360859 15.1616388 189.69808322 16.77889923 189.68554688 18.39608765 C189.66949117 20.87207184 189.68539656 23.34642377 189.70458984 25.82235718 C189.7026074 27.39397537 189.69876369 28.96559254 189.69287109 30.53720093 C189.69894379 31.27788818 189.70501648 32.01857544 189.71127319 32.78170776 C189.64237012 37.81522755 189.64237012 37.81522755 188.25177002 40.07625771 C185.22412994 42.09437858 182.10593731 41.79353485 178.58886719 41.76190186 C177.39988358 41.76892181 177.39988358 41.76892181 176.18688011 41.77608359 C173.5220419 41.78808122 170.85771343 41.77855791 168.19287109 41.76913452 C166.28598733 41.77319811 164.37910593 41.77853879 162.472229 41.7850647 C157.28636174 41.79876942 152.10067304 41.79342663 146.91480255 41.78392744 C141.49495451 41.77634717 136.07512206 41.7833719 130.65527344 41.78808594 C121.55254361 41.79354826 112.44988673 41.78633938 103.34716797 41.77206421 C92.8139912 41.75573681 82.28098863 41.76102498 71.74781609 41.77754343 C62.71422265 41.79114472 53.68068174 41.7930846 44.64708138 41.78522742 C39.24733753 41.78054343 33.84767563 41.77994594 28.44793701 41.78983688 C23.37212698 41.79848454 18.29654216 41.79252499 13.22075653 41.77515411 C11.35467656 41.77117748 9.48857773 41.77234332 7.62250519 41.77894211 C5.08141173 41.78710138 2.54104665 41.77690462 0 41.76190186 C-0.74405909 41.76859402 -1.48811817 41.77528619 -2.2547245 41.78218114 C-5.157409 41.74878161 -7.20848454 41.71228862 -9.66290283 40.07625771 C-11.46421151 37.1474407 -11.13134985 33.87258967 -11.10400391 30.53720093 C-11.10687408 29.77169922 -11.10974426 29.00619751 -11.11270142 28.21749878 C-11.1147414 26.60026306 -11.10921603 24.98300263 -11.09667969 23.36581421 C-11.08062398 20.88983001 -11.09652937 18.41547808 -11.11572266 15.93954468 C-11.11374021 14.36792649 -11.10989651 12.79630932 -11.10400391 11.22470093 C-11.1100766 10.48401367 -11.11614929 9.74332642 -11.12240601 8.98019409 C-11.05350293 3.9466743 -11.05350293 3.9466743 -9.66290283 1.68564415 C-6.63526275 -0.33247672 -3.51707013 -0.03163299 0 0 Z M-7.70556641 5.38095093 C-8.17396536 8.55004262 -8.17396536 8.55004262 -8.10400391 12.28720093 C-8.10687408 12.96770508 -8.10974426 13.64820923 -8.11270142 14.34933472 C-8.11474336 15.78843009 -8.10920427 17.22755314 -8.09667969 18.66659546 C-8.08062578 20.87279152 -8.09652172 23.07715577 -8.11572266 25.28329468 C-8.11374024 26.68043415 -8.10989661 28.07757248 -8.10400391 29.47470093 C-8.10062012 30.75022827 -8.09723633 32.02575562 -8.09375 33.3399353 C-7.96564941 34.34347046 -7.83754883 35.34700562 -7.70556641 36.38095093 C-4.07346948 38.80234888 -1.42365393 38.66089198 2.7722168 38.63491821 C3.54037122 38.63803819 4.30852564 38.64115818 5.09995747 38.6443727 C7.68178728 38.65236949 10.26338315 38.64602256 12.84521484 38.63973999 C14.6929844 38.64244911 16.54075287 38.64600959 18.38851929 38.65036011 C23.41320303 38.65949581 28.43780486 38.65593499 33.46249008 38.64960194 C38.71417211 38.64454806 43.965847 38.64923168 49.2175293 38.65237427 C58.03777326 38.6560157 66.85798377 38.65121017 75.67822266 38.64169312 C85.88417778 38.63080823 96.09005301 38.63433369 106.2960062 38.64534593 C115.04933895 38.65441375 123.80264761 38.65570655 132.55598354 38.65046859 C137.78803759 38.64734611 143.02005406 38.64694715 148.25210571 38.65354156 C153.17028174 38.65930707 158.08835448 38.65533274 163.00651932 38.64375305 C164.81454929 38.6411022 166.62258791 38.64187877 168.43061447 38.64627838 C170.89274493 38.65171855 173.35454139 38.64491846 175.81665039 38.63491821 C176.89772048 38.64161038 176.89772048 38.64161038 178.00063038 38.64843774 C181.66140223 38.61946552 183.15892858 38.47128761 186.29443359 36.38095093 C186.76283255 33.21185924 186.76283255 33.21185924 186.69287109 29.47470093 C186.69574127 28.79419678 186.69861145 28.11369263 186.7015686 27.41256714 C186.70361055 25.97347176 186.69807146 24.53434872 186.68554688 23.0953064 C186.66949297 20.88911033 186.6853889 18.68474609 186.70458984 16.47860718 C186.70260743 15.08146771 186.69876379 13.68432938 186.69287109 12.28720093 C186.68779541 10.37390991 186.68779541 10.37390991 186.68261719 8.42196655 C186.5545166 7.4184314 186.42641602 6.41489624 186.29443359 5.38095093 C182.66233667 2.95955298 180.01252112 3.10100988 175.81665039 3.12698364 C174.66441876 3.12230367 174.66441876 3.12230367 173.48890972 3.11752915 C170.90707991 3.10953236 168.32548403 3.1158793 165.74365234 3.12216187 C163.89588279 3.11945275 162.04811432 3.11589226 160.2003479 3.11154175 C155.17566416 3.10240604 150.15106233 3.10596687 145.12637711 3.11229992 C139.87469508 3.1173538 134.62302019 3.11267017 129.37133789 3.10952759 C120.55109392 3.10588616 111.73088342 3.11069169 102.91064453 3.12020874 C92.7046894 3.13109362 82.49881418 3.12756817 72.29286098 3.11655593 C63.53952823 3.1074881 54.78621957 3.10619531 46.03288364 3.11143327 C40.80082959 3.11455575 35.56881313 3.1149547 30.33676147 3.10836029 C25.41858545 3.10259479 20.50051271 3.10656912 15.58234787 3.1181488 C13.7743179 3.12079966 11.96627928 3.12002308 10.15825272 3.11562347 C7.69612226 3.11018331 5.2343258 3.1169834 2.7722168 3.12698364 C2.0515034 3.1225222 1.33079 3.11806076 0.58823681 3.11346412 C-3.07253504 3.14243634 -4.57006139 3.29061425 -7.70556641 5.38095093 Z " fill="#FEFEFE" transform="translate(167.70556640625,350.6190490722656)"/>
<path d="M0 0 C8.37872351 1.69764986 14.49264153 11.93033888 19.13818359 18.59521484 C35.59503951 43.41844118 41.59820829 73.57377607 36.41357422 102.94482422 C31.84965067 123.78012737 20.62136438 147.65465108 2.80859375 160.3203125 C-0.3827245 161.85668219 -2.26118705 161.78389103 -5.67578125 161.18359375 C-9.24584251 159.8926019 -10.68324216 157.63622874 -12.609375 154.484375 C-13.85662523 150.37578599 -14.10329512 148.47221525 -12.171875 144.609375 C-10.22964829 142.06645962 -8.02877916 139.77099311 -5.859375 137.421875 C10.08928684 119.66154021 15.85071545 96.40928678 14.60644531 73.00537109 C12.79555274 51.85234313 3.29295953 33.58571717 -10.859375 18.08203125 C-13.0549308 14.82300311 -13.44755019 12.38615106 -13.609375 8.484375 C-10.28755551 2.19664526 -7.00641664 -0.22601344 0 0 Z M-9.609375 8.484375 C-10.08300329 12.07041779 -10.10480092 13.80038271 -7.95703125 16.765625 C-6.82587891 17.86390625 -6.82587891 17.86390625 -5.671875 18.984375 C10.8756665 36.36449721 19.12182867 59.368161 18.79296875 83.22192383 C18.02307305 105.66044662 9.01282028 127.25597194 -6.60546875 143.375 C-9.01709739 145.91355647 -9.54306335 146.87430781 -9.921875 150.359375 C-9.84991495 153.51855555 -9.84991495 153.51855555 -8.046875 155.859375 C-4.63481571 158.13408119 -2.63325726 158.11972483 1.390625 157.484375 C4.01608938 155.53076078 4.01608938 155.53076078 6.390625 152.484375 C6.98617188 151.86433594 7.58171875 151.24429688 8.1953125 150.60546875 C19.71820347 138.43245359 27.46323153 122.73162775 31.390625 106.484375 C31.6690625 105.35128906 31.9475 104.21820313 32.234375 103.05078125 C38.08634802 76.14796083 33.49681575 48.2778954 19.02026367 24.79174805 C14.11908884 17.23469286 8.05239855 8.3957683 0.390625 3.484375 C-4.57651154 2.4654752 -6.66975588 4.62087559 -9.609375 8.484375 Z " fill="#F4F4F4" transform="translate(342.609375,45.515625)"/>
<path d="M0 0 C3.48092393 1.74046197 5.42070616 3.04290583 7.4375 6.375 C8.13918527 9.64953125 7.81091684 11.74826381 7 15 C5.25 17.5 5.25 17.5 3 20 C-14.57593033 40.6265297 -21.80593919 63.96854844 -20 91 C-17.52076878 110.87976147 -8.79098463 126.51299361 4.1171875 141.625 C6.64264309 144.81063692 8.02670609 146.77151989 7.9375 150.875 C6.77509152 154.74969493 5.28000411 157.61735551 2 160 C-2.07374682 161.3283957 -5.58268282 161.50618471 -9.625 160.0625 C-27.30387021 144.70979692 -39.90563927 119.07300073 -43 96 C-43.26018143 91.58744689 -43.33013182 87.18988105 -43.31567383 82.77001953 C-43.31252702 80.76719726 -43.33680958 78.76439341 -43.36132812 76.76171875 C-43.37503409 48.93860906 -31.27936935 24.17755668 -13.0234375 3.79296875 C-8.6978213 -0.42401325 -5.73304302 -0.91000683 0 0 Z M-16.234375 12.64453125 C-34.657617 36.37239638 -43.29347108 64.24232971 -39.53125 94.26171875 C-36.02336952 115.24636089 -28.11765497 134.02334085 -14 150 C-13.01684024 151.20508659 -12.03685714 152.41278509 -11.0625 153.625 C-8.40285808 156.68761796 -7.69108939 156.93601024 -3.625 157.3125 C-0.01811399 157.29443922 -0.01811399 157.29443922 2.4375 155.375 C4.1447433 153.06498452 4.1447433 153.06498452 4.6875 150.25 C3.80985526 146.10113395 1.97470027 144.41223013 -0.875 141.3671875 C-12.95142441 127.9144059 -20.42714145 111.79737691 -23 94 C-23.18046875 93.03964844 -23.3609375 92.07929688 -23.546875 91.08984375 C-26.98289726 67.65972643 -19.92686068 44.92948094 -6.29296875 25.96875 C-4.07618991 23.09864451 -1.74368617 20.36986495 0.625 17.625 C3.32831334 14.3131719 3.97014198 13.47026378 4.25 9.0625 C2.89500208 5.74275511 2.22473578 4.5227919 -1 3 C-8.2229081 2.28474449 -11.88010207 7.49095996 -16.234375 12.64453125 Z " fill="#F5F5F5" transform="translate(205,46)"/>
<path d="M0 0 C13.80516147 9.24100604 21.15259558 26.52228574 24.46875 42.21875 C24.75121385 44.13322718 24.87540726 46.06881246 25 48 C25.0515625 48.79277344 25.103125 49.58554688 25.15625 50.40234375 C25.86539828 70.52442612 17.68213894 88.51048012 4.67578125 103.44140625 C1.80056043 106.11556268 -0.48695005 106.93349352 -4.375 107.4375 C-9.1853299 106.85694294 -10.61392593 105.38607407 -14 102 C-15.61484741 98.77030518 -15.54219838 95.49543181 -15 92 C-13.4956243 89.60468336 -12.17138409 87.80850681 -10.3125 85.75 C-0.09645637 73.53176293 2.02173679 60.52014521 1 45 C-0.63450473 34.31780374 -5.84446158 26.10910931 -12.546875 17.84765625 C-15.3947579 14.22655784 -15.38128953 11.57547436 -15 7 C-13.25226375 3.56925846 -11.92801207 1.56169152 -8.625 -0.4375 C-5.15977235 -1.18004878 -3.40134336 -1.13378112 0 0 Z M-9.9375 5.0625 C-12.27312617 7.85660305 -12.27312617 7.85660305 -12.25 11.3125 C-10.82534537 15.51523115 -8.97475174 17.40152497 -5.98046875 20.5625 C3.18510089 31.8432011 5.71407855 44.8374421 5 59 C3.5366111 72.31683903 -2.56248203 83.56248203 -12 93 C-12.45892595 96.51843231 -12.41140736 98.34860502 -10.5 101.375 C-7.72801013 103.17679341 -5.54459495 103.95272028 -2.20703125 103.7421875 C5.47988097 101.15720817 9.8333864 92.07964413 13.3125 85.25 C21.08071271 69.05675933 23.99101388 51.83535606 19.15625 34.2421875 C14.97632845 22.52146153 9.1203752 10.69965145 -1 3 C-5.17474463 2.41543229 -6.44830952 2.61264285 -9.9375 5.0625 Z " fill="#F4F4F4" transform="translate(318,73)"/>
<path d="M0 0 C3.81357279 3.23324649 5.83136779 5.24622504 6.3125 10.25 C5.88422261 15.38932874 3.6437858 17.89472353 0.5390625 21.87109375 C-9.24587021 34.61137416 -11.33742744 47.1971489 -10 63 C-8.16460165 72.89136836 -2.96219113 81.91538236 3.9375 89.1875 C6.29569026 92.40321399 6.73979269 94.13103149 6.5 98.03515625 C5.5960421 101.5874283 3.59890985 103.46296895 1 106 C-2.06429776 107.53214888 -4.6165642 107.22938548 -8 107 C-19.5345289 101.07002276 -25.96560025 88.08007311 -30.35546875 76.390625 C-36.32612569 57.68112961 -34.91488828 39.17744105 -26.73046875 21.29296875 C-21.4097768 11.16804028 -12.87795845 -3.05578675 0 0 Z M-15.28125 9.84765625 C-19.96712073 16.63721894 -24.07808691 23.23114873 -27 31 C-27.31839844 31.81210938 -27.63679687 32.62421875 -27.96484375 33.4609375 C-33.31198748 49.47772747 -30.54377271 68.46797369 -23.25 83.3125 C-19.3529155 90.87372533 -14.61894636 99.70213282 -7 104 C-3.00418408 104.08154726 -1.53311172 103.50505321 1.375 100.75 C3.1888683 97.68037672 3.44297441 96.4857867 3 93 C1.47347317 90.87455468 1.47347317 90.87455468 -0.625 88.9375 C-9.52039592 79.47531779 -14.60399549 66.64218119 -14.4375 53.6875 C-14.43065186 52.86008301 -14.42380371 52.03266602 -14.41674805 51.18017578 C-14.23630792 44.24776085 -12.93757475 38.31819355 -10 32 C-9.63777344 31.21625 -9.27554688 30.4325 -8.90234375 29.625 C-6.63342916 25.19484813 -3.87729295 21.63723435 -0.625 17.875 C2.56376991 14.02530965 2.56376991 14.02530965 3.25 9.0625 C1.88345117 5.71445536 1.27115282 4.50296211 -2 3 C-8.4580744 2.03815913 -11.38048278 4.97837662 -15.28125 9.84765625 Z " fill="#F5F5F5" transform="translate(233,73)"/>
<path d="M0 0 C3.9323173 2.65202795 6.18648186 5.30944559 7.6875 9.8125 C8.52048827 15.84571504 7.7225619 20.16702347 4.16015625 25.1484375 C1.27886756 28.40421729 -1.43078219 29.56999477 -5.70703125 30.12109375 C-11.41267203 30.40338182 -14.93440477 29.77363378 -19.3125 25.8125 C-22.74167072 22.11260527 -23.61219749 19.2332651 -23.8125 14.3125 C-23.62610303 9.41292246 -22.66462688 6.53708542 -19.3125 2.8125 C-13.71268065 -2.10855337 -6.84968957 -2.45554909 0 0 Z " fill="#080808" transform="translate(67.3125,438.1875)"/>
<path d="M0 0 C3.58162867 2.3905289 5.8716311 5.33416918 7.1875 9.4375 C7.9712922 14.53618945 7.79420413 18.24575974 5.4375 22.875 C2.10707813 26.66798046 -0.66578757 29.06550493 -5.828125 29.67578125 C-11.43380623 29.86198395 -15.5079987 29.20672653 -19.8125 25.4375 C-23.43174223 21.30428254 -24.47832636 17.0775023 -24.19140625 11.64453125 C-23.43408869 7.23335165 -21.67221166 4.06595218 -18.3046875 1.1171875 C-12.64444915 -2.64752917 -6.09909147 -3.01689535 0 0 Z " fill="#080808" transform="translate(460.8125,438.5625)"/>
<path d="M0 0 C4.41694738 4.09375611 6.78493451 7.21531143 7.0625 13.3125 C6.83022433 18.13947879 5.92945776 21.80942956 2.5625 25.375 C-1.64192575 28.50971566 -6.15614256 30.12519106 -11.41796875 29.82421875 C-16.59479215 28.67270097 -20.35950919 25.85723736 -23.4375 21.625 C-24.99024281 16.57858586 -25.58682964 12.09933693 -23.48828125 7.125 C-18.22904681 -1.90031083 -9.66104111 -4.56703761 0 0 Z " fill="#050505" transform="translate(461.4375,45.625)"/>
<path d="M0 0 C4.43960327 4.22303726 6.75458683 7.90331929 7.0625 14 C6.84343708 18.44168952 5.49348291 21.03122257 2.5625 24.4375 C-1.75997253 28.24539246 -4.34008942 29.81768019 -10.2109375 29.7109375 C-14.79589186 29.14787293 -18.64394357 27.33685611 -21.828125 23.96484375 C-25.0256735 19.20229792 -25.36585899 14.00765393 -24.4375 8.4375 C-19.2642423 -1.3738508 -10.4234191 -4.73791777 0 0 Z " fill="#050505" transform="translate(68.4375,45.5625)"/>
<path d="M0 0 C1.01725914 0.00636726 1.01725914 0.00636726 2.05506897 0.01286316 C4.19469027 0.02948934 6.33332572 0.06710701 8.47265625 0.10546875 C9.93423107 0.12053653 11.39582083 0.13422125 12.85742188 0.14648438 C16.41698022 0.17933898 19.97597181 0.23100634 23.53515625 0.29296875 C23.61690421 3.12689801 23.6760061 5.95841694 23.72265625 8.79296875 C23.74779297 9.58445312 23.77292969 10.3759375 23.79882812 11.19140625 C23.90650676 19.94926857 21.4534623 26.10590871 15.5078125 32.53125 C9.72540314 37.69534232 3.28947028 39.42273379 -4.3203125 39.390625 C-5.31276726 39.38850258 -5.31276726 39.38850258 -6.32527161 39.38633728 C-8.43434203 39.38074871 -10.54330552 39.3681984 -12.65234375 39.35546875 C-14.08398284 39.35045227 -15.5156236 39.34588962 -16.94726562 39.34179688 C-20.45315963 39.33078305 -23.95899125 39.3135263 -27.46484375 39.29296875 C-28.45512923 18.16180014 -28.45512923 18.16180014 -24.08203125 12.046875 C-17.03024085 4.39891874 -10.69918756 -0.13318491 0 0 Z M-18.46484375 11.29296875 C-23.02176275 17.28951141 -24.59695296 21.89306463 -24.52734375 29.48046875 C-24.51832031 30.75277344 -24.50929688 32.02507812 -24.5 33.3359375 C-24.48839844 34.31175781 -24.47679687 35.28757812 -24.46484375 36.29296875 C-21.1732551 36.35202292 -17.88180619 36.3869125 -14.58984375 36.41796875 C-13.213125 36.44310547 -13.213125 36.44310547 -11.80859375 36.46875 C-2.73255866 36.53266574 5.55438835 36.02902145 12.77734375 30.078125 C17.20660878 25.5799603 20.44667209 20.33328435 20.6328125 13.9375 C20.62121094 12.67292969 20.60960937 11.40835937 20.59765625 10.10546875 C20.58863281 8.83316406 20.57960938 7.56085938 20.5703125 6.25 C20.55871094 5.27417969 20.54710937 4.29835938 20.53515625 3.29296875 C17.2435676 3.23391458 13.95211869 3.199025 10.66015625 3.16796875 C9.74234375 3.15121094 8.82453125 3.13445312 7.87890625 3.1171875 C-2.21611234 3.04609582 -11.08909229 3.80248338 -18.46484375 11.29296875 Z " fill="#F8F8F8" transform="translate(306.46484375,296.70703125)"/>
<path d="M0 0 C4.10751239 -0.09985537 8.21454209 -0.17192603 12.32299805 -0.21972656 C13.71667814 -0.23967995 15.1102763 -0.26685319 16.50366211 -0.30175781 C27.6867931 -0.57461497 36.04095592 0.60656053 44.49609375 8.35546875 C48.99565388 13.27576697 51.14499219 18.70109365 51.09765625 25.328125 C51.09443359 26.12734375 51.09121094 26.9265625 51.08789062 27.75 C51.07532227 28.9875 51.07532227 28.9875 51.0625 30.25 C51.05798828 31.09046875 51.05347656 31.9309375 51.04882812 32.796875 C51.03707961 34.86461401 51.01914522 36.93231624 51 39 C46.76832516 39.1249586 42.53766827 39.21496477 38.3046875 39.2746582 C36.86927552 39.29957855 35.43398743 39.33352875 33.99902344 39.37719727 C25.11895767 39.64037913 17.47695848 39.47138932 10 34 C5.28007252 29.53221232 0.43860108 24.38282922 -0.2355957 17.64575195 C-0.29458309 14.96571673 -0.26203865 12.3045688 -0.1875 9.625 C-0.17396484 8.69816406 -0.16042969 7.77132813 -0.14648438 6.81640625 C-0.11133881 4.54366002 -0.06214132 2.27214153 0 0 Z M3 3 C2.40875785 12.11826788 2.4516555 19.43533983 8 27 C13.43947349 32.94748809 19.03602805 35.25118118 27 36 C30.64709908 36.11478358 34.28907612 36.09491935 37.9375 36.0625 C38.90751953 36.05798828 39.87753906 36.05347656 40.87695312 36.04882812 C43.2513676 36.0371315 45.62565021 36.02074086 48 36 C48.59124215 26.88173212 48.5483445 19.56466017 43 12 C37.56052651 6.05251191 31.96397195 3.74881882 24 3 C20.35290092 2.88521642 16.71092388 2.90508065 13.0625 2.9375 C11.6074707 2.94426758 11.6074707 2.94426758 10.12304688 2.95117188 C7.7486324 2.9628685 5.37434979 2.97925914 3 3 Z " fill="#F8F8F8" transform="translate(184,297)"/>
<path d="M0 0 C5.71463734 2.84214706 9.8312263 7.53831889 12.25 13.4375 C13.22512271 20.63753393 12.47915024 27.40422472 8.25 33.4375 C1.82015924 39.58272004 -3.66210704 40.86531261 -12.44921875 40.77734375 C-18.11797208 40.19369696 -21.57460862 37.88004471 -25.30859375 33.6875 C-30.02262327 27.49115525 -30.68590919 21.11620951 -29.75 13.4375 C-27.29211989 7.14447936 -22.62023889 2.70846662 -16.859375 -0.671875 C-11.46620568 -2.94899093 -5.32568707 -2.09963636 0 0 Z M-20.75 6.4375 C-21.4925 6.953125 -22.235 7.46875 -23 8 C-26.32481685 12.6309949 -27.15968286 18.37194204 -26.41015625 23.98046875 C-24.84118415 29.52293231 -22.52468718 32.28620646 -17.75 35.4375 C-13.15803925 37.91009425 -8.78222067 38.12480335 -3.69921875 36.97265625 C1.45268126 35.33297433 4.30619984 33.11294731 7.25 28.4375 C9.22572092 23.33276652 9.77033494 18.62527578 8.1484375 13.359375 C5.87328414 8.49252521 2.32269766 4.37169407 -2.75 2.4375 C-9.70376778 1.60459745 -15.33629169 1.56516252 -20.75 6.4375 Z " fill="#F4F4F4" transform="translate(279.75,106.5625)"/>
<path d="M0 0 C4.41694738 4.09375611 6.78493451 7.21531143 7.0625 13.3125 C6.83022433 18.13947879 5.92945776 21.80942956 2.5625 25.375 C-1.64192575 28.50971566 -6.15614256 30.12519106 -11.41796875 29.82421875 C-16.59479215 28.67270097 -20.35950919 25.85723736 -23.4375 21.625 C-24.99024281 16.57858586 -25.58682964 12.09933693 -23.48828125 7.125 C-18.22904681 -1.90031083 -9.66104111 -4.56703761 0 0 Z M-19.4375 6.375 C-21.40502105 10.3100421 -20.90172595 15.0855522 -20.4375 19.375 C-18.63631522 22.37697464 -17.53417268 23.82666366 -14.4375 25.375 C-9.91160015 25.79154299 -5.77108109 25.88573318 -1.5 24.25 C1.741666 21.30303091 3.39358192 18.60236171 3.73046875 14.16015625 C3.58150674 10.84437228 3.35460859 8.34901725 1.21875 5.72265625 C-2.89333135 2.24552864 -5.94352918 0.97636451 -11.33203125 1.015625 C-15.05343453 1.65081814 -16.84062849 3.71479016 -19.4375 6.375 Z " fill="#F5F5F5" transform="translate(461.4375,45.625)"/>
<path d="M0 0 C4.43960327 4.22303726 6.75458683 7.90331929 7.0625 14 C6.84343708 18.44168952 5.49348291 21.03122257 2.5625 24.4375 C-1.75997253 28.24539246 -4.34008942 29.81768019 -10.2109375 29.7109375 C-14.79589186 29.14787293 -18.64394357 27.33685611 -21.828125 23.96484375 C-25.0256735 19.20229792 -25.36585899 14.00765393 -24.4375 8.4375 C-19.2642423 -1.3738508 -10.4234191 -4.73791777 0 0 Z M-18.4375 4.4375 C-21.61475642 8.38168038 -21.96266147 11.448466 -21.4375 16.4375 C-19.81541398 20.65492366 -18.28349808 23.0826696 -14.4375 25.4375 C-10.01877419 26.2985508 -5.52231281 26.41438372 -1.38671875 24.4765625 C1.38636122 22.18662057 2.40052881 20.30984876 3.05859375 16.765625 C3.25700934 12.31630562 3.04268218 9.30894173 0.875 5.375 C-2.72065006 2.36242833 -5.26797086 1.54192225 -9.9375 1.125 C-13.75438865 1.46579363 -15.47323142 2.04961697 -18.4375 4.4375 Z " fill="#F5F5F5" transform="translate(68.4375,45.5625)"/>
<path d="M0 0 C3.9323173 2.65202795 6.18648186 5.30944559 7.6875 9.8125 C8.52048827 15.84571504 7.7225619 20.16702347 4.16015625 25.1484375 C1.27886756 28.40421729 -1.43078219 29.56999477 -5.70703125 30.12109375 C-11.41267203 30.40338182 -14.93440477 29.77363378 -19.3125 25.8125 C-22.74167072 22.11260527 -23.61219749 19.2332651 -23.8125 14.3125 C-23.62610303 9.41292246 -22.66462688 6.53708542 -19.3125 2.8125 C-13.71268065 -2.10855337 -6.84968957 -2.45554909 0 0 Z M-19.1875 7.5625 C-20.88452328 10.95654657 -20.94807611 14.14734441 -20.3125 17.8125 C-18.10778552 22.14027286 -15.90950194 25.07585482 -11.3125 26.8125 C-6.43165865 27.10588391 -3.25401253 26.55369071 0.625 23.5 C3.97866737 19.13006979 5.36376608 16.4480507 4.6875 10.8125 C2.40231238 6.49603449 0.23197291 3.7148375 -4.3125 1.8125 C-10.98285253 0.96354604 -14.40915743 3.10271361 -19.1875 7.5625 Z " fill="#F9F9F9" transform="translate(67.3125,438.1875)"/>
<path d="M0 0 C3.58162867 2.3905289 5.8716311 5.33416918 7.1875 9.4375 C7.9712922 14.53618945 7.79420413 18.24575974 5.4375 22.875 C2.10707813 26.66798046 -0.66578757 29.06550493 -5.828125 29.67578125 C-11.43380623 29.86198395 -15.5079987 29.20672653 -19.8125 25.4375 C-23.43174223 21.30428254 -24.47832636 17.0775023 -24.19140625 11.64453125 C-23.43408869 7.23335165 -21.67221166 4.06595218 -18.3046875 1.1171875 C-12.64444915 -2.64752917 -6.09909147 -3.01689535 0 0 Z M-19.75 7.625 C-21.30636332 11.74478525 -20.94567978 15.2187023 -19.8125 19.4375 C-17.69141796 22.87511572 -15.7082915 25.21310839 -11.8125 26.4375 C-7.5887056 26.90681049 -5.35922865 26.72137834 -1.5625 24.75 C2.40713737 21.41189585 3.96578086 19.17957896 4.625 14 C4.09629625 9.6948409 3.01407232 7.71037321 0.1875 4.4375 C-7.60445362 -0.64420889 -13.66648976 0.75652069 -19.75 7.625 Z " fill="#FAFAFA" transform="translate(460.8125,438.5625)"/>
</svg>
