<?xml version="1.0" encoding="UTF-8"?>
<svg version="1.1" xmlns="http://www.w3.org/2000/svg" width="512" height="512">
<path d="M0 0 C1.80460802 -0.00704366 3.6092114 -0.01537321 5.41380817 -0.02487212 C10.35617639 -0.04704477 15.29840643 -0.0505739 20.2408179 -0.05087268 C25.57775206 -0.05438118 30.91462535 -0.07500496 36.25152588 -0.09320068 C47.91272239 -0.12957744 59.57388118 -0.14357155 71.23512626 -0.15303779 C78.52030103 -0.15906417 85.80546393 -0.16982657 93.09063148 -0.18154335 C113.27330747 -0.21329246 133.45597291 -0.24000096 153.63867474 -0.24629498 C155.57470837 -0.24690568 155.57470837 -0.24690568 157.54985379 -0.24752872 C160.16621737 -0.2483364 162.78258094 -0.24914212 165.39894452 -0.2499459 C167.34700829 -0.25055427 167.34700829 -0.25055427 169.33442688 -0.25117493 C171.28487628 -0.2517779 171.28487628 -0.2517779 173.27472869 -0.25239304 C194.34495174 -0.25988301 215.41491912 -0.30436447 236.48504975 -0.36503234 C258.13309875 -0.42686239 279.78102039 -0.45865509 301.42915946 -0.46012241 C313.57760774 -0.46162231 325.72574064 -0.47581287 337.87410545 -0.52293968 C348.21792452 -0.5628994 358.56131984 -0.57522955 368.90519776 -0.55195405 C374.17920813 -0.54089608 379.452376 -0.54258271 384.72628784 -0.579422 C389.56232537 -0.61288368 394.39688269 -0.6088365 399.23291085 -0.57595644 C400.97446781 -0.57052868 402.71613266 -0.57838791 404.45754465 -0.60150524 C419.0901302 -0.78318883 429.70826803 2.9498836 440.7077179 12.97709656 C451.59943309 24.9244945 454.46146471 36.05254086 454.25917053 51.76583862 C454.26553704 53.57690978 454.27540542 55.38797138 454.28843617 57.19900686 C454.31390405 62.13631044 454.28996718 67.07228649 454.25737906 72.00950181 C454.23092309 77.34902603 454.25089673 82.68841066 454.26490784 88.0279541 C454.2850171 98.47165543 454.26258485 108.91484785 454.22550663 119.3584859 C454.18385986 131.52867353 454.1842543 143.69875272 454.18619695 155.86899821 C454.18819704 177.5863718 454.15161644 199.30350931 454.09346008 221.02079773 C454.03709435 242.08041178 454.00877811 263.13981814 454.01142883 284.19950867 C454.01166857 286.14587623 454.01166857 286.14587623 454.01191315 288.13156434 C454.01207457 289.42693053 454.01223599 290.72229671 454.0124023 292.05691642 C454.01516361 316.05619356 453.9915931 340.05538272 453.95578943 364.05463132 C453.94373941 372.53259061 453.93947304 381.01053369 453.93766022 389.4885006 C453.93492796 399.82161968 453.91701733 410.15459039 453.88032898 420.48764654 C453.86189838 425.75700741 453.84965968 431.02617892 453.85470581 436.29557419 C453.85910496 441.12352532 453.84489818 445.95105854 453.81611171 450.7789226 C453.80889457 452.52092239 453.80830181 454.26296559 453.81518087 456.00496676 C453.8707378 471.83186802 451.06440505 484.02012359 439.9811554 495.85990906 C430.90260029 504.59261444 421.3693381 508.56862506 408.85088348 508.55719757 C408.10950134 508.56044859 407.3681192 508.56369961 406.60427094 508.56704915 C404.11225507 508.57673763 401.62028273 508.57933944 399.12825012 508.58195496 C397.32653602 508.58740238 395.52482314 508.59326596 393.72311163 508.59951067 C388.76562123 508.61535957 383.80813579 508.62487652 378.8506279 508.63327551 C374.59999491 508.64128119 370.34937526 508.65297137 366.09875113 508.66469032 C350.87467409 508.70658873 335.65058137 508.73380339 320.4264679 508.75834656 C318.62418279 508.76130891 318.62418279 508.76130891 316.78548789 508.7643311 C292.92659893 508.80349496 269.06770472 508.83719519 245.20879364 508.85941315 C239.96364331 508.86438242 234.71849307 508.86942675 229.4733429 508.8745575 C228.16969117 508.87582817 226.86603944 508.87709884 225.52288312 508.87840801 C204.40576343 508.89976705 183.28879938 508.94876229 162.171758 509.00880164 C140.48999061 509.0699382 118.80830351 509.10460318 97.12645102 509.11388636 C84.95341639 509.11979591 72.78064545 509.13753643 60.60769653 509.18527222 C50.2403212 509.22589023 39.87325262 509.24274408 29.50580126 509.2286194 C24.21795877 509.22215644 18.93076951 509.22696625 13.64302826 509.26249313 C8.79654578 509.29479323 3.95117517 509.29441832 -0.89533645 509.2686761 C-2.64306875 509.26503987 -4.39087561 509.27311056 -6.13848132 509.29445761 C-21.24032968 509.46772461 -31.27581749 505.56287998 -42.50712585 494.87944031 C-46.21378896 490.76888773 -49.06723025 486.25238972 -51.7297821 481.41459656 C-52.50616278 480.08041628 -52.50616278 480.08041628 -53.29822791 478.71928287 C-54.91911822 474.97752161 -55.14835538 471.86205529 -55.10730553 467.86383438 C-55.11166585 467.12039961 -55.11602617 466.37696483 -55.12051862 465.61100173 C-55.13147383 463.11787774 -55.12105177 460.62530692 -55.11073303 458.13218689 C-55.11418951 456.32747004 -55.11895401 454.52275531 -55.12491477 452.718045 C-55.1374562 447.75696056 -55.13124001 442.79604891 -55.12195611 437.8349638 C-55.11517864 432.48512276 -55.12564051 427.13531178 -55.13389587 421.78547668 C-55.1472504 411.30328248 -55.14434749 400.82115265 -55.13565795 390.33895591 C-55.12888714 381.818965 -55.12796208 373.29899215 -55.1312294 364.77899933 C-55.1316891 363.56709127 -55.1321488 362.35518322 -55.13262243 361.10655068 C-55.1335816 358.64465119 -55.13455423 356.1827517 -55.1355402 353.72085223 C-55.14409951 330.62267311 -55.13425224 307.52452967 -55.1181391 284.42635641 C-55.10474222 264.60861648 -55.10705779 244.79092928 -55.12089539 224.97319031 C-55.13695333 201.96474932 -55.14326834 178.95633966 -55.13405859 155.94789386 C-55.13310294 153.49374819 -55.13215983 151.03960252 -55.1312294 148.58545685 C-55.13076657 147.3779536 -55.13030375 146.17045035 -55.1298269 144.92635609 C-55.12723715 136.419003 -55.13160783 127.91166978 -55.13866806 119.40431976 C-55.14708592 109.03290874 -55.14479714 98.66156582 -55.12882583 88.29016259 C-55.12094598 82.99884768 -55.11784664 77.70764629 -55.12777328 72.41633224 C-55.13672689 67.57032816 -55.13177619 62.72454258 -55.11584063 57.87855825 C-55.11249558 56.12756403 -55.11418067 54.37655127 -55.12146799 52.62556902 C-55.18264924 36.70060843 -52.71741118 24.51357642 -41.4172821 12.60209656 C-29.33782949 1.1488363 -15.90870242 -0.03394314 0 0 Z " fill="#FDFDFD" transform="translate(56.72978210449219,1.5854034423828125)"/>
<path d="M0 0 C1.80460802 -0.00704366 3.6092114 -0.01537321 5.41380817 -0.02487212 C10.35617639 -0.04704477 15.29840643 -0.0505739 20.2408179 -0.05087268 C25.57775206 -0.05438118 30.91462535 -0.07500496 36.25152588 -0.09320068 C47.91272239 -0.12957744 59.57388118 -0.14357155 71.23512626 -0.15303779 C78.52030103 -0.15906417 85.80546393 -0.16982657 93.09063148 -0.18154335 C113.27330747 -0.21329246 133.45597291 -0.24000096 153.63867474 -0.24629498 C155.57470837 -0.24690568 155.57470837 -0.24690568 157.54985379 -0.24752872 C160.16621737 -0.2483364 162.78258094 -0.24914212 165.39894452 -0.2499459 C167.34700829 -0.25055427 167.34700829 -0.25055427 169.33442688 -0.25117493 C171.28487628 -0.2517779 171.28487628 -0.2517779 173.27472869 -0.25239304 C194.34495174 -0.25988301 215.41491912 -0.30436447 236.48504975 -0.36503234 C258.13309875 -0.42686239 279.78102039 -0.45865509 301.42915946 -0.46012241 C313.57760774 -0.46162231 325.72574064 -0.47581287 337.87410545 -0.52293968 C348.21792452 -0.5628994 358.56131984 -0.57522955 368.90519776 -0.55195405 C374.17920813 -0.54089608 379.452376 -0.54258271 384.72628784 -0.579422 C389.56232537 -0.61288368 394.39688269 -0.6088365 399.23291085 -0.57595644 C400.97446781 -0.57052868 402.71613266 -0.57838791 404.45754465 -0.60150524 C419.0901302 -0.78318883 429.70826803 2.9498836 440.7077179 12.97709656 C451.59943309 24.9244945 454.46146471 36.05254086 454.25917053 51.76583862 C454.26553704 53.57690978 454.27540542 55.38797138 454.28843617 57.19900686 C454.31390405 62.13631044 454.28996718 67.07228649 454.25737906 72.00950181 C454.23092309 77.34902603 454.25089673 82.68841066 454.26490784 88.0279541 C454.2850171 98.47165543 454.26258485 108.91484785 454.22550663 119.3584859 C454.18385986 131.52867353 454.1842543 143.69875272 454.18619695 155.86899821 C454.18819704 177.5863718 454.15161644 199.30350931 454.09346008 221.02079773 C454.03709435 242.08041178 454.00877811 263.13981814 454.01142883 284.19950867 C454.01166857 286.14587623 454.01166857 286.14587623 454.01191315 288.13156434 C454.01207457 289.42693053 454.01223599 290.72229671 454.0124023 292.05691642 C454.01516361 316.05619356 453.9915931 340.05538272 453.95578943 364.05463132 C453.94373941 372.53259061 453.93947304 381.01053369 453.93766022 389.4885006 C453.93492796 399.82161968 453.91701733 410.15459039 453.88032898 420.48764654 C453.86189838 425.75700741 453.84965968 431.02617892 453.85470581 436.29557419 C453.85910496 441.12352532 453.84489818 445.95105854 453.81611171 450.7789226 C453.80889457 452.52092239 453.80830181 454.26296559 453.81518087 456.00496676 C453.8707378 471.83186802 451.06440505 484.02012359 439.9811554 495.85990906 C430.90260029 504.59261444 421.3693381 508.56862506 408.85088348 508.55719757 C408.10950134 508.56044859 407.3681192 508.56369961 406.60427094 508.56704915 C404.11225507 508.57673763 401.62028273 508.57933944 399.12825012 508.58195496 C397.32653602 508.58740238 395.52482314 508.59326596 393.72311163 508.59951067 C388.76562123 508.61535957 383.80813579 508.62487652 378.8506279 508.63327551 C374.59999491 508.64128119 370.34937526 508.65297137 366.09875113 508.66469032 C350.87467409 508.70658873 335.65058137 508.73380339 320.4264679 508.75834656 C318.62418279 508.76130891 318.62418279 508.76130891 316.78548789 508.7643311 C292.92659893 508.80349496 269.06770472 508.83719519 245.20879364 508.85941315 C239.96364331 508.86438242 234.71849307 508.86942675 229.4733429 508.8745575 C228.16969117 508.87582817 226.86603944 508.87709884 225.52288312 508.87840801 C204.40576343 508.89976705 183.28879938 508.94876229 162.171758 509.00880164 C140.48999061 509.0699382 118.80830351 509.10460318 97.12645102 509.11388636 C84.95341639 509.11979591 72.78064545 509.13753643 60.60769653 509.18527222 C50.2403212 509.22589023 39.87325262 509.24274408 29.50580126 509.2286194 C24.21795877 509.22215644 18.93076951 509.22696625 13.64302826 509.26249313 C8.79654578 509.29479323 3.95117517 509.29441832 -0.89533645 509.2686761 C-2.64306875 509.26503987 -4.39087561 509.27311056 -6.13848132 509.29445761 C-21.24032968 509.46772461 -31.27581749 505.56287998 -42.50712585 494.87944031 C-46.21378896 490.76888773 -49.06723025 486.25238972 -51.7297821 481.41459656 C-52.50616278 480.08041628 -52.50616278 480.08041628 -53.29822791 478.71928287 C-54.91911822 474.97752161 -55.14835538 471.86205529 -55.10730553 467.86383438 C-55.11166585 467.12039961 -55.11602617 466.37696483 -55.12051862 465.61100173 C-55.13147383 463.11787774 -55.12105177 460.62530692 -55.11073303 458.13218689 C-55.11418951 456.32747004 -55.11895401 454.52275531 -55.12491477 452.718045 C-55.1374562 447.75696056 -55.13124001 442.79604891 -55.12195611 437.8349638 C-55.11517864 432.48512276 -55.12564051 427.13531178 -55.13389587 421.78547668 C-55.1472504 411.30328248 -55.14434749 400.82115265 -55.13565795 390.33895591 C-55.12888714 381.818965 -55.12796208 373.29899215 -55.1312294 364.77899933 C-55.1316891 363.56709127 -55.1321488 362.35518322 -55.13262243 361.10655068 C-55.1335816 358.64465119 -55.13455423 356.1827517 -55.1355402 353.72085223 C-55.14409951 330.62267311 -55.13425224 307.52452967 -55.1181391 284.42635641 C-55.10474222 264.60861648 -55.10705779 244.79092928 -55.12089539 224.97319031 C-55.13695333 201.96474932 -55.14326834 178.95633966 -55.13405859 155.94789386 C-55.13310294 153.49374819 -55.13215983 151.03960252 -55.1312294 148.58545685 C-55.13076657 147.3779536 -55.13030375 146.17045035 -55.1298269 144.92635609 C-55.12723715 136.419003 -55.13160783 127.91166978 -55.13866806 119.40431976 C-55.14708592 109.03290874 -55.14479714 98.66156582 -55.12882583 88.29016259 C-55.12094598 82.99884768 -55.11784664 77.70764629 -55.12777328 72.41633224 C-55.13672689 67.57032816 -55.13177619 62.72454258 -55.11584063 57.87855825 C-55.11249558 56.12756403 -55.11418067 54.37655127 -55.12146799 52.62556902 C-55.18264924 36.70060843 -52.71741118 24.51357642 -41.4172821 12.60209656 C-29.33782949 1.1488363 -15.90870242 -0.03394314 0 0 Z M-29.1047821 28.53959656 C-29.75189148 29.22279968 -30.39900085 29.90600281 -31.0657196 30.60990906 C-36.28995442 39.41507478 -35.02489711 50.89328402 -35.01739502 60.79838562 C-35.02328567 62.56530674 -35.03002637 64.3322252 -35.0375399 66.09914017 C-35.05554322 70.93712247 -35.06112593 75.77505023 -35.06452668 80.6130619 C-35.07030126 85.83741208 -35.08742821 91.06172766 -35.10287476 96.28605652 C-35.13755936 108.88863185 -35.15320131 121.49120414 -35.16699806 134.09381676 C-35.17396631 140.03184081 -35.1831213 145.9698614 -35.19210625 151.90788269 C-35.221295 171.64878306 -35.24609329 191.38968007 -35.25673008 211.13059998 C-35.25742077 212.39287076 -35.25811147 213.65514155 -35.25882309 214.95566297 C-35.25951511 216.22090511 -35.26020712 217.48614726 -35.26092011 218.78973007 C-35.26233209 221.35348766 -35.2637529 223.91724523 -35.2651825 226.48100281 C-35.26588767 227.75270781 -35.26659284 229.02441281 -35.26731937 230.33465433 C-35.27957838 250.95556888 -35.32239833 271.57629995 -35.37812269 292.19713831 C-35.43489069 313.37620092 -35.46537904 334.55517067 -35.46974224 355.73431015 C-35.47282444 367.62268096 -35.48733128 379.5107964 -35.53102303 391.39909363 C-35.56810826 401.51794635 -35.58131348 411.63647447 -35.56331814 421.7553854 C-35.55486126 426.91732286 -35.5577226 432.07859729 -35.59113693 437.240448 C-35.62147047 441.96816867 -35.61934611 446.69473539 -35.59164893 451.42246199 C-35.58730991 453.1302832 -35.5947487 454.83818467 -35.61532194 456.54588747 C-35.74480833 468.01318474 -34.01146077 474.89239931 -25.84957606 483.36679363 C-16.11440077 492.68536796 7.19754508 488.54046523 19.6999054 488.51225281 C22.14612295 488.5103845 24.59234089 488.50896255 27.03855896 488.50796509 C33.4334977 488.50417241 39.82841323 488.49437037 46.2233429 488.48326111 C53.9195101 488.47116398 61.61568512 488.46662926 69.31185913 488.4608078 C80.96466146 488.45115648 92.617413 488.43197727 104.2702179 488.41459656 C104.2702179 460.69459656 104.2702179 432.97459656 104.2702179 404.41459656 C101.6302179 403.75459656 98.9902179 403.09459656 96.2702179 402.41459656 C90.64465238 399.6018138 88.35329209 396.1682204 86.2702179 390.41459656 C85.728746 387.17365598 85.68471802 384.00817682 85.70381165 380.72709656 C85.69761307 379.82515564 85.69141449 378.92321472 85.68502808 377.99394226 C85.67796376 376.09803845 85.68104429 374.20207217 85.69380188 372.30619812 C85.7076828 369.4218894 85.67352941 366.54082037 85.63545227 363.65678406 C85.63450102 361.80522077 85.63636024 359.95365347 85.64131165 358.10209656 C85.62805344 357.24978455 85.61479523 356.39747253 85.60113525 355.51933289 C85.69653663 349.31981489 87.31040692 345.2063104 91.2702179 340.41459656 C97.09935177 335.21028307 103.81609142 334.64917355 111.3327179 334.60209656 C112.77421204 334.56439148 112.77421204 334.56439148 114.24482727 334.52592468 C116.58703716 334.46766076 118.92740498 334.43093953 121.2702179 334.41459656 C120.86029602 333.61795593 120.45037415 332.82131531 120.0280304 332.00053406 C119.48920227 330.94092468 118.95037415 329.88131531 118.3952179 328.78959656 C117.86154602 327.74545593 117.32787415 326.70131531 116.7780304 325.62553406 C114.02435599 319.76149167 112.98130218 314.85416405 113.0749054 308.39115906 C113.07773529 307.64498322 113.08056519 306.89880737 113.08348083 306.13002014 C113.09460102 303.76637667 113.11968968 301.40312388 113.1452179 299.03959656 C113.15525828 297.42892498 113.16438227 295.81824741 113.17256165 294.20756531 C113.1945135 290.27642712 113.22898604 286.34557789 113.2702179 282.41459656 C115.95834084 281.51855558 117.54675073 281.28004044 120.30757141 281.25346375 C121.11593948 281.2438562 121.92430756 281.23424866 122.75717163 281.22434998 C123.62901596 281.2201001 124.50086029 281.21585022 125.39912415 281.21147156 C126.30339645 281.20577148 127.20766876 281.20007141 128.13934326 281.19419861 C130.05673555 281.1847487 131.97414408 281.17821466 133.89155579 281.17436218 C136.79737091 281.16471392 139.70246112 281.13371459 142.60810852 281.10209656 C144.47594289 281.09556031 146.34378229 281.09031228 148.21162415 281.08647156 C149.06929886 281.07412476 149.92697357 281.06177795 150.81063843 281.04905701 C161.06366297 281.08611036 169.34285403 284.60901558 178.2702179 289.41459656 C178.27608414 288.67179443 178.28195038 287.92899231 178.28799438 287.16368103 C178.34592367 280.15982588 178.41800137 273.15629219 178.50593281 266.15275955 C178.55064043 262.55223585 178.58989531 258.95182538 178.61665344 255.35112 C178.64268311 251.87552014 178.68308211 248.40035599 178.73340416 244.92502594 C178.75818288 242.95536134 178.76811876 240.98552817 178.77786255 239.01573181 C178.80755379 237.21431732 178.80755379 237.21431732 178.83784485 235.37651062 C178.85449944 233.79099396 178.85449944 233.79099396 178.87149048 232.17344666 C179.32174819 229.05805129 180.10731097 227.66775141 182.2702179 225.41459656 C184.2077179 224.88334656 184.2077179 224.88334656 186.2702179 224.91459656 C187.2911554 224.89912781 187.2911554 224.89912781 188.3327179 224.88334656 C191.09717887 225.64134392 191.77289895 227.01901889 193.2702179 229.41459656 C193.65497875 231.54661179 193.65497875 231.54661179 193.66894531 233.88182068 C193.68148346 234.77080551 193.69402161 235.65979034 193.7069397 236.57571411 C193.70550461 237.54316055 193.70406952 238.51060699 193.70259094 239.50737 C193.71787842 241.04443352 193.71787842 241.04443352 193.73347473 242.61254883 C193.76367019 245.99974488 193.77288088 249.38665844 193.78193665 252.77397156 C193.79877843 255.12239019 193.81692799 257.47079977 193.83633423 259.81919861 C193.88389444 266.00052566 193.913665 272.18181606 193.93977356 278.36326599 C193.9695486 284.67081442 194.01608944 290.97823647 194.06123352 297.28569031 C194.14733523 309.66192637 194.21465008 322.03818839 194.2702179 334.41459656 C198.2302179 334.41459656 202.1902179 334.41459656 206.2702179 334.41459656 C206.28480042 332.7088446 206.29938293 331.00309265 206.31440735 329.24565125 C206.36608315 323.60566421 206.43137554 317.96594456 206.50593281 312.32621384 C206.55063344 308.90729384 206.58988976 305.48849291 206.61665344 302.06938171 C206.64767201 298.13731926 206.70246143 294.2057603 206.75849915 290.27397156 C206.76488907 289.04781128 206.77127899 287.821651 206.77786255 286.55833435 C206.80755379 284.84701324 206.80755379 284.84701324 206.83784485 283.10112 C206.84894791 282.09740356 206.86005096 281.09368713 206.87149048 280.05955505 C207.329974 277.01820444 208.16256718 275.62409097 210.2702179 273.41459656 C213.10590648 272.75200002 215.31261016 273.13291963 218.2702179 273.41459656 C221.11635814 276.2607368 220.72600866 279.21828798 220.8952179 283.03959656 C220.93388977 283.74600281 220.97256165 284.45240906 221.0124054 285.18022156 C221.10669514 286.9245818 221.1895468 288.66955347 221.2702179 290.41459656 C222.37881165 289.84869812 223.4874054 289.28279968 224.6295929 288.69975281 C226.09302693 287.95865481 227.55657457 287.21778111 229.0202179 286.47709656 C229.74982727 286.10391296 230.47943665 285.73072937 231.2311554 285.34623718 C232.29463196 284.80966492 232.29463196 284.80966492 233.3795929 284.26225281 C234.02895813 283.93233337 234.67832336 283.60241394 235.34736633 283.26249695 C238.7343139 281.76898896 241.82991486 281.28924637 245.51631165 281.28520203 C246.34397034 281.28204987 247.17162903 281.27889771 248.02436829 281.27565002 C249.35262634 281.27868637 249.35262634 281.27868637 250.7077179 281.28178406 C251.6248053 281.28082733 252.5418927 281.27987061 253.48677063 281.27888489 C255.42337615 281.27820519 257.35998396 281.28004482 259.29658508 281.28422546 C262.25920229 281.28957666 265.2216679 281.28427335 268.1842804 281.27787781 C270.06709323 281.27853863 271.94990597 281.27981987 273.8327179 281.28178406 C274.71822327 281.27975983 275.60372864 281.2777356 276.5160675 281.27565002 C277.3437262 281.27880219 278.17138489 281.28195435 279.02412415 281.28520203 C279.74930237 281.28599762 280.47448059 281.28679321 281.22163391 281.28761292 C283.34490463 281.41922609 285.22732781 281.83526254 287.2702179 282.41459656 C287.39536345 287.03689586 287.48526892 291.65817428 287.5448761 296.28178406 C287.56976555 297.84901643 287.60369072 299.41613591 287.64741516 300.98295593 C287.92706018 311.27389268 287.21937953 319.11228938 282.2702179 328.41459656 C281.66534818 329.66425651 281.06102359 330.91418079 280.4577179 332.16459656 C280.0658429 332.90709656 279.6739679 333.64959656 279.2702179 334.41459656 C279.82370911 334.41870544 280.37720032 334.42281433 280.94746399 334.42704773 C303.16023142 334.71597551 303.16023142 334.71597551 309.2702179 340.41459656 C313.85453861 346.17670083 315.01212279 350.83791051 314.89912415 358.10209656 C314.9015361 359.00403748 314.90394806 359.90597839 314.90643311 360.83525085 C314.90545904 362.73121056 314.89217138 364.62720027 314.86714172 366.522995 C314.83280682 369.4071266 314.84651275 372.28819253 314.86592102 375.17240906 C314.85902187 377.02398446 314.84934886 378.87555203 314.83662415 380.72709656 C314.84158401 381.57940857 314.84654388 382.43172058 314.85165405 383.30986023 C314.73844245 389.13221216 313.49014146 393.52187965 310.2702179 398.41459656 C308.3405304 400.21928406 308.3405304 400.21928406 306.3952179 401.28959656 C305.75842102 401.65826843 305.12162415 402.02694031 304.4655304 402.40678406 C301.82094379 403.62084695 299.03083527 404.49439077 296.2702179 405.41459656 C296.2702179 432.80459656 296.2702179 460.19459656 296.2702179 488.41459656 C318.38921625 488.6250014 318.38921625 488.6250014 340.50835609 488.76637363 C348.42130178 488.80511248 356.33372901 488.8542348 364.24629211 488.94267273 C370.51265806 489.01267759 376.77863218 489.057659 383.04537833 489.07321602 C386.36061139 489.08230348 389.67446954 489.10722572 392.98940659 489.15470695 C396.70005213 489.20572918 400.40839756 489.21251118 404.11933899 489.20927429 C405.74854279 489.24702469 405.74854279 489.24702469 407.41065979 489.28553772 C416.41314661 489.20089441 421.84814286 485.7606742 428.17807579 479.53952694 C435.69636193 470.73632054 433.41321451 457.42271838 433.39720154 446.49983215 C433.39835494 444.78383662 433.39994393 443.06784134 433.40192878 441.35184658 C433.4060921 436.654546 433.40404496 431.95726582 433.40094256 427.25996518 C433.39867643 422.18692466 433.40217415 417.11388761 433.40492249 412.04084778 C433.40936635 402.10933495 433.40840979 392.17782969 433.40550984 382.24631657 C433.40325014 374.1726676 433.40294576 366.09902075 433.40403366 358.02537155 C433.40418689 356.87564085 433.40434013 355.72591015 433.404498 354.54133912 C433.40481773 352.20555124 433.40514195 349.86976335 433.40547059 347.53397547 C433.4083214 325.63654688 433.40504475 303.73912248 433.39967023 281.84169458 C433.39520374 263.06277048 433.39597761 244.28385257 433.40058899 225.50492859 C433.40594384 203.68817285 433.40804549 181.87142079 433.40497673 160.05466449 C433.40465818 157.72692736 433.40434381 155.39919023 433.40403366 153.07145309 C433.40387939 151.92622165 433.40372511 150.7809902 433.40356616 149.60105477 C433.40270365 141.54043845 433.40415818 133.47982448 433.40651321 125.41920853 C433.40932157 115.59108537 433.40855113 105.76297021 433.40323247 95.93484797 C433.40060927 90.92277788 433.39956695 85.9107211 433.40288162 80.89865112 C433.40587312 76.30566323 433.40420441 71.71270091 433.39890407 67.11971532 C433.39779202 65.46301517 433.39834399 63.80631284 433.40077986 62.14961411 C434.37430156 44.26938345 434.37430156 44.26938345 427.6452179 28.54740906 C426.4695929 27.49166687 426.4695929 27.49166687 425.2702179 26.41459656 C424.48484299 25.67483391 424.48484299 25.67483391 423.68360192 24.92012656 C416.1750761 18.85256968 407.94333517 19.58173054 398.80340576 19.66615295 C397.01529163 19.66066815 395.22718396 19.65256088 393.43909222 19.64206564 C388.53773541 19.62092625 383.6371099 19.63712648 378.73578513 19.65956664 C373.44532043 19.67726911 368.15495047 19.6603584 362.86448669 19.64784241 C352.50561826 19.62887336 342.14702861 19.64205964 331.78818088 19.66636829 C319.7253535 19.69362042 307.6625924 19.69033153 295.59974206 19.68610163 C274.07748993 19.67972294 252.55537022 19.70305147 231.03315735 19.74223328 C210.14769966 19.78024588 189.26239715 19.79440701 168.37690735 19.7832489 C145.63396774 19.77113439 122.89109637 19.77148512 100.14816242 19.79422057 C97.72330765 19.79663515 95.29845288 19.79904712 92.8735981 19.80145645 C91.08397936 19.80326707 91.08397936 19.80326707 89.25820671 19.80511426 C80.84906515 19.81287391 72.43994899 19.81208483 64.03080559 19.80828476 C53.78417583 19.80404136 43.537682 19.81448526 33.29109054 19.84351186 C28.06276355 19.85800286 22.83463456 19.86615137 17.60629082 19.85702515 C12.82026389 19.84887417 8.03464585 19.85919724 3.24868096 19.8842773 C1.51733471 19.8901344 -0.21405009 19.88926532 -1.94538648 19.88099115 C-12.73139943 19.83412388 -21.33297386 19.94302499 -29.1047821 28.53959656 Z " fill="#020202" transform="translate(56.72978210449219,1.5854034423828125)"/>
<path d="M0 0 C54.12 0 108.24 0 164 0 C164 27.39 164 54.78 164 83 C109.88 83 55.76 83 0 83 C0 55.61 0 28.22 0 0 Z " fill="#FCFCFC" transform="translate(175,407)"/>
<path d="M0 0 C0.79265574 -0.00467997 1.58531147 -0.00935994 2.40198708 -0.01418173 C5.06682529 -0.02617937 7.73115376 -0.01665605 10.39599609 -0.00723267 C12.30287985 -0.01129625 14.20976126 -0.01663693 16.11663818 -0.02316284 C21.30250545 -0.03686756 26.48819415 -0.03152478 31.67406464 -0.02202559 C37.09391267 -0.01444532 42.51374513 -0.02147004 47.93359375 -0.02618408 C57.03632358 -0.0316464 66.13898046 -0.02443752 75.24169922 -0.01016235 C85.77487598 0.00616505 96.30787856 0.00087688 106.8410511 -0.01564157 C115.87464454 -0.02924286 124.90818545 -0.03118274 133.94178581 -0.02332556 C139.34152966 -0.01864158 144.74119155 -0.01804408 150.14093018 -0.02793503 C155.2167402 -0.03658269 160.29232503 -0.03062313 165.36811066 -0.01325226 C167.23419063 -0.00927562 169.10028946 -0.01044147 170.966362 -0.01704025 C173.50745546 -0.02519952 176.04782054 -0.01500276 178.58886719 0 C179.33292627 -0.00669217 180.07698536 -0.01338433 180.84359169 -0.02027929 C183.74627619 0.01312025 185.79735173 0.04961323 188.25177002 1.68564415 C190.0530787 4.61446116 189.72021704 7.88931218 189.69287109 11.22470093 C189.69717636 12.37295349 189.69717636 12.37295349 189.7015686 13.54440308 C189.70360859 15.1616388 189.69808322 16.77889923 189.68554688 18.39608765 C189.66949117 20.87207184 189.68539656 23.34642377 189.70458984 25.82235718 C189.7026074 27.39397537 189.69876369 28.96559254 189.69287109 30.53720093 C189.69894379 31.27788818 189.70501648 32.01857544 189.71127319 32.78170776 C189.64237012 37.81522755 189.64237012 37.81522755 188.25177002 40.07625771 C185.22412994 42.09437858 182.10593731 41.79353485 178.58886719 41.76190186 C177.39988358 41.76892181 177.39988358 41.76892181 176.18688011 41.77608359 C173.5220419 41.78808122 170.85771343 41.77855791 168.19287109 41.76913452 C166.28598733 41.77319811 164.37910593 41.77853879 162.472229 41.7850647 C157.28636174 41.79876942 152.10067304 41.79342663 146.91480255 41.78392744 C141.49495451 41.77634717 136.07512206 41.7833719 130.65527344 41.78808594 C121.55254361 41.79354826 112.44988673 41.78633938 103.34716797 41.77206421 C92.8139912 41.75573681 82.28098863 41.76102498 71.74781609 41.77754343 C62.71422265 41.79114472 53.68068174 41.7930846 44.64708138 41.78522742 C39.24733753 41.78054343 33.84767563 41.77994594 28.44793701 41.78983688 C23.37212698 41.79848454 18.29654216 41.79252499 13.22075653 41.77515411 C11.35467656 41.77117748 9.48857773 41.77234332 7.62250519 41.77894211 C5.08141173 41.78710138 2.54104665 41.77690462 0 41.76190186 C-0.74405909 41.76859402 -1.48811817 41.77528619 -2.2547245 41.78218114 C-5.157409 41.74878161 -7.20848454 41.71228862 -9.66290283 40.07625771 C-11.46421151 37.1474407 -11.13134985 33.87258967 -11.10400391 30.53720093 C-11.10687408 29.77169922 -11.10974426 29.00619751 -11.11270142 28.21749878 C-11.1147414 26.60026306 -11.10921603 24.98300263 -11.09667969 23.36581421 C-11.08062398 20.88983001 -11.09652937 18.41547808 -11.11572266 15.93954468 C-11.11374021 14.36792649 -11.10989651 12.79630932 -11.10400391 11.22470093 C-11.1100766 10.48401367 -11.11614929 9.74332642 -11.12240601 8.98019409 C-11.05350293 3.9466743 -11.05350293 3.9466743 -9.66290283 1.68564415 C-6.63526275 -0.33247672 -3.51707013 -0.03163299 0 0 Z " fill="#FEFEFE" transform="translate(167.70556640625,350.6190490722656)"/>
<path d="M0 0 C1.80460802 -0.00704366 3.6092114 -0.01537321 5.41380817 -0.02487212 C10.35617639 -0.04704477 15.29840643 -0.0505739 20.2408179 -0.05087268 C25.57775206 -0.05438118 30.91462535 -0.07500496 36.25152588 -0.09320068 C47.91272239 -0.12957744 59.57388118 -0.14357155 71.23512626 -0.15303779 C78.52030103 -0.15906417 85.80546393 -0.16982657 93.09063148 -0.18154335 C113.27330747 -0.21329246 133.45597291 -0.24000096 153.63867474 -0.24629498 C155.57470837 -0.24690568 155.57470837 -0.24690568 157.54985379 -0.24752872 C160.16621737 -0.2483364 162.78258094 -0.24914212 165.39894452 -0.2499459 C167.34700829 -0.25055427 167.34700829 -0.25055427 169.33442688 -0.25117493 C171.28487628 -0.2517779 171.28487628 -0.2517779 173.27472869 -0.25239304 C194.34495174 -0.25988301 215.41491912 -0.30436447 236.48504975 -0.36503234 C258.13309875 -0.42686239 279.78102039 -0.45865509 301.42915946 -0.46012241 C313.57760774 -0.46162231 325.72574064 -0.47581287 337.87410545 -0.52293968 C348.21792452 -0.5628994 358.56131984 -0.57522955 368.90519776 -0.55195405 C374.17920813 -0.54089608 379.452376 -0.54258271 384.72628784 -0.579422 C389.56232537 -0.61288368 394.39688269 -0.6088365 399.23291085 -0.57595644 C400.97446781 -0.57052868 402.71613266 -0.57838791 404.45754465 -0.60150524 C419.0901302 -0.78318883 429.70826803 2.9498836 440.7077179 12.97709656 C451.59943309 24.9244945 454.46146471 36.05254086 454.25917053 51.76583862 C454.26553704 53.57690978 454.27540542 55.38797138 454.28843617 57.19900686 C454.31390405 62.13631044 454.28996718 67.07228649 454.25737906 72.00950181 C454.23092309 77.34902603 454.25089673 82.68841066 454.26490784 88.0279541 C454.2850171 98.47165543 454.26258485 108.91484785 454.22550663 119.3584859 C454.18385986 131.52867353 454.1842543 143.69875272 454.18619695 155.86899821 C454.18819704 177.5863718 454.15161644 199.30350931 454.09346008 221.02079773 C454.03709435 242.08041178 454.00877811 263.13981814 454.01142883 284.19950867 C454.01166857 286.14587623 454.01166857 286.14587623 454.01191315 288.13156434 C454.01207457 289.42693053 454.01223599 290.72229671 454.0124023 292.05691642 C454.01516361 316.05619356 453.9915931 340.05538272 453.95578943 364.05463132 C453.94373941 372.53259061 453.93947304 381.01053369 453.93766022 389.4885006 C453.93492796 399.82161968 453.91701733 410.15459039 453.88032898 420.48764654 C453.86189838 425.75700741 453.84965968 431.02617892 453.85470581 436.29557419 C453.85910496 441.12352532 453.84489818 445.95105854 453.81611171 450.7789226 C453.80889457 452.52092239 453.80830181 454.26296559 453.81518087 456.00496676 C453.8707378 471.83186802 451.06440505 484.02012359 439.9811554 495.85990906 C430.90260029 504.59261444 421.3693381 508.56862506 408.85088348 508.55719757 C408.10950134 508.56044859 407.3681192 508.56369961 406.60427094 508.56704915 C404.11225507 508.57673763 401.62028273 508.57933944 399.12825012 508.58195496 C397.32653602 508.58740238 395.52482314 508.59326596 393.72311163 508.59951067 C388.76562123 508.61535957 383.80813579 508.62487652 378.8506279 508.63327551 C374.59999491 508.64128119 370.34937526 508.65297137 366.09875113 508.66469032 C350.87467409 508.70658873 335.65058137 508.73380339 320.4264679 508.75834656 C318.62418279 508.76130891 318.62418279 508.76130891 316.78548789 508.7643311 C292.92659893 508.80349496 269.06770472 508.83719519 245.20879364 508.85941315 C239.96364331 508.86438242 234.71849307 508.86942675 229.4733429 508.8745575 C228.16969117 508.87582817 226.86603944 508.87709884 225.52288312 508.87840801 C204.40576343 508.89976705 183.28879938 508.94876229 162.171758 509.00880164 C140.48999061 509.0699382 118.80830351 509.10460318 97.12645102 509.11388636 C84.95341639 509.11979591 72.78064545 509.13753643 60.60769653 509.18527222 C50.2403212 509.22589023 39.87325262 509.24274408 29.50580126 509.2286194 C24.21795877 509.22215644 18.93076951 509.22696625 13.64302826 509.26249313 C8.79654578 509.29479323 3.95117517 509.29441832 -0.89533645 509.2686761 C-2.64306875 509.26503987 -4.39087561 509.27311056 -6.13848132 509.29445761 C-21.24032968 509.46772461 -31.27581749 505.56287998 -42.50712585 494.87944031 C-46.21378896 490.76888773 -49.06723025 486.25238972 -51.7297821 481.41459656 C-52.50616278 480.08041628 -52.50616278 480.08041628 -53.29822791 478.71928287 C-54.91911822 474.97752161 -55.14835538 471.86205529 -55.10730553 467.86383438 C-55.11166585 467.12039961 -55.11602617 466.37696483 -55.12051862 465.61100173 C-55.13147383 463.11787774 -55.12105177 460.62530692 -55.11073303 458.13218689 C-55.11418951 456.32747004 -55.11895401 454.52275531 -55.12491477 452.718045 C-55.1374562 447.75696056 -55.13124001 442.79604891 -55.12195611 437.8349638 C-55.11517864 432.48512276 -55.12564051 427.13531178 -55.13389587 421.78547668 C-55.1472504 411.30328248 -55.14434749 400.82115265 -55.13565795 390.33895591 C-55.12888714 381.818965 -55.12796208 373.29899215 -55.1312294 364.77899933 C-55.1316891 363.56709127 -55.1321488 362.35518322 -55.13262243 361.10655068 C-55.1335816 358.64465119 -55.13455423 356.1827517 -55.1355402 353.72085223 C-55.14409951 330.62267311 -55.13425224 307.52452967 -55.1181391 284.42635641 C-55.10474222 264.60861648 -55.10705779 244.79092928 -55.12089539 224.97319031 C-55.13695333 201.96474932 -55.14326834 178.95633966 -55.13405859 155.94789386 C-55.13310294 153.49374819 -55.13215983 151.03960252 -55.1312294 148.58545685 C-55.13076657 147.3779536 -55.13030375 146.17045035 -55.1298269 144.92635609 C-55.12723715 136.419003 -55.13160783 127.91166978 -55.13866806 119.40431976 C-55.14708592 109.03290874 -55.14479714 98.66156582 -55.12882583 88.29016259 C-55.12094598 82.99884768 -55.11784664 77.70764629 -55.12777328 72.41633224 C-55.13672689 67.57032816 -55.13177619 62.72454258 -55.11584063 57.87855825 C-55.11249558 56.12756403 -55.11418067 54.37655127 -55.12146799 52.62556902 C-55.18264924 36.70060843 -52.71741118 24.51357642 -41.4172821 12.60209656 C-29.33782949 1.1488363 -15.90870242 -0.03394314 0 0 Z M-41.5422821 17.10209656 C-48.56952892 25.77185649 -51.84197367 34.76568754 -51.87517643 45.79990292 C-51.87872705 46.53760871 -51.88227766 47.27531451 -51.88593587 48.03537503 C-51.89662888 50.51489288 -51.90024543 52.99436993 -51.90386963 55.47390747 C-51.91003302 57.26665943 -51.9166092 59.05941001 -51.92356342 60.85215908 C-51.9413561 65.78491389 -51.9528057 70.71766614 -51.9631201 75.65044153 C-51.97275951 79.87993257 -51.98606993 84.1094089 -51.99938906 88.33888971 C-52.04696476 103.48780114 -52.07962406 118.63673345 -52.10868835 133.78569031 C-52.11099593 134.98136679 -52.11330352 136.17704328 -52.11568102 137.40895239 C-52.16112335 161.15325756 -52.19963731 184.897572 -52.22641087 208.64190578 C-52.23239991 213.86195322 -52.23848557 219.08200053 -52.24467468 224.30204773 C-52.24620766 225.59945592 -52.24774065 226.8968641 -52.24932008 228.23358769 C-52.27502866 249.24659065 -52.33190679 270.25939303 -52.40113998 291.27229284 C-52.47164311 312.84897229 -52.51184984 334.42554806 -52.5231604 356.00234085 C-52.53031661 368.11564162 -52.5510411 380.22859382 -52.60618782 392.34177971 C-52.6531253 402.65900991 -52.67289246 412.97583906 -52.65730632 423.29317223 C-52.65020689 428.55489008 -52.65595976 433.81574945 -52.69688416 439.07733154 C-52.734105 443.90115492 -52.73388529 448.72352192 -52.70476054 453.54738761 C-52.70070786 455.28572274 -52.71000078 457.0241554 -52.73452634 458.76232224 C-52.9290832 473.43977382 -49.19230985 482.83907818 -39.0422821 493.85209656 C-27.55028118 504.43725306 -17.69658903 506.44934061 -2.7396698 506.28329468 C-0.9434147 506.28922152 0.85283244 506.29821017 2.64905882 506.30997115 C7.55463024 506.3332587 12.45919012 506.31321356 17.36470389 506.2856921 C22.66678653 506.26360569 27.96875292 506.28205847 33.27084351 506.2953186 C43.64558933 506.31485152 54.01994856 506.29705037 64.39465439 506.26635506 C76.48415718 506.23189598 88.57357366 506.23374887 100.6631152 506.23683355 C122.23844737 506.24102132 143.81359847 506.21107139 165.38887024 506.16239929 C186.30981135 506.1152231 207.23057155 506.0939706 228.15156555 506.10087585 C254.59117959 506.10954589 281.03068313 506.09530907 307.47027752 506.06212347 C315.89113997 506.05222548 324.31198173 506.05047796 332.73284912 506.05147362 C342.99937394 506.05223225 353.26575649 506.03801604 363.53223073 506.00519445 C368.76727643 505.98875596 374.00212848 505.97852319 379.23719978 505.98562622 C384.03505354 505.99192161 388.83249453 505.97957206 393.63027388 505.9527031 C395.36024096 505.94618456 397.09024917 505.9462786 398.82021183 505.95388075 C413.95314861 506.01371197 426.60845063 503.92553153 438.2702179 493.41459656 C449.77037975 481.05192257 450.56981866 467.00737268 450.55783081 450.94346619 C450.5637199 449.15479743 450.57046023 447.3661313 450.57797569 445.57746863 C450.59599787 440.67460951 450.60156393 435.7718042 450.60496247 430.86891603 C450.61073265 425.57632415 450.62785945 420.28376649 450.64331055 414.99119568 C450.67801484 402.21910831 450.69364124 389.44702391 450.70743385 376.6748997 C450.71440093 370.65656814 450.72355633 364.63824001 450.73254204 358.61991119 C450.76173628 338.60969694 450.78653213 318.59948601 450.79716587 298.58925247 C450.79785657 297.30939558 450.79854726 296.0295387 450.79925888 294.71089827 C450.7999509 293.42802471 450.80064291 292.14515115 450.8013559 290.82340264 C450.80276788 288.2239178 450.80418869 285.62443296 450.80561829 283.02494812 C450.80632346 281.73552086 450.80702863 280.4460936 450.80775516 279.11759278 C450.82000776 258.22058175 450.86281169 237.32375203 450.91855849 216.42681625 C450.97535496 194.96187776 451.00581703 173.49703093 451.01017803 152.03201652 C451.01325846 139.98424621 451.02773334 127.93672804 451.07145882 115.88903046 C451.10858319 105.63153477 451.12172858 95.37435954 451.10375393 85.1168063 C451.09530874 79.88564821 451.09809536 74.65514435 451.13157272 69.42407227 C451.16198436 64.62954553 451.15971622 59.83615521 451.13208472 55.04162189 C451.1277582 53.31285631 451.13512266 51.58401076 451.15575773 49.85536292 C451.3117933 35.90503084 448.14122494 25.71055893 438.28974915 15.19194031 C434.32289827 11.70080462 429.86559813 8.99663808 425.2702179 6.41459656 C423.932896 5.63604059 423.932896 5.63604059 422.5685575 4.84175622 C418.70816643 3.17140232 415.9497689 3.03862633 411.75069046 3.03707314 C410.64060342 3.03053265 410.64060342 3.03053265 409.50809038 3.02386004 C407.02645232 3.0129054 404.54537004 3.02332662 402.06373596 3.03364563 C400.2672687 3.03018913 398.47080357 3.02542461 396.67434287 3.0194639 C391.73606132 3.00692277 386.79795335 3.01313851 381.85967112 3.02242255 C376.53437013 3.02920015 371.20909934 3.01873808 365.88380432 3.01048279 C355.44973696 2.99712839 345.01573427 3.00003112 334.58166435 3.00872071 C326.10076572 3.01549158 317.61988524 3.01641655 309.13898468 3.01314926 C307.32944868 3.01245971 307.32944868 3.01245971 305.4833564 3.01175623 C303.03273091 3.01079707 300.58210543 3.00982443 298.13147995 3.00883846 C275.13917101 3.00027919 252.14689793 3.01012636 229.15459487 3.02623956 C209.42781842 3.03963641 189.70109494 3.03732089 169.97431946 3.02348328 C147.07135386 3.00742522 124.16841973 3.00111039 101.26544929 3.01032007 C98.82253759 3.01127572 96.37962588 3.01221883 93.93671417 3.01314926 C92.13375163 3.0138435 92.13375163 3.0138435 90.2943656 3.01455177 C81.8260858 3.01714148 73.35782596 3.0127709 64.88954926 3.0057106 C54.56571526 2.99729261 44.24194968 2.99958181 33.91812351 3.01555283 C28.65111163 3.02343251 23.38421378 3.02653232 18.11720276 3.01660538 C13.29340338 3.00765141 8.46982351 3.01260307 3.64604399 3.02853803 C1.90312509 3.03188292 0.16018757 3.03019834 -1.5827193 3.02291067 C-17.21421916 2.96257602 -30.27191788 5.18629297 -41.5422821 17.10209656 Z " fill="#FEFEFE" transform="translate(56.72978210449219,1.5854034423828125)"/>
<path d="M0 0 C5.00795489 3.22080236 8.48744808 6.1688659 11.67578125 11.234375 C12.25714844 12.13800781 12.83851563 13.04164062 13.4375 13.97265625 C17.99745584 22.64461257 18.4946055 32.76495742 16.18359375 42.2109375 C12.24284638 52.72865634 5.42261487 60.42919102 -4.75 65.1796875 C-7.01171875 65.921875 -7.01171875 65.921875 -11.01171875 65.921875 C-11.00727753 67.09063171 -11.0028363 68.25938843 -10.9982605 69.46356201 C-10.9577433 80.46998069 -10.92774822 91.47638427 -10.90809441 102.48286057 C-10.89765058 108.14160008 -10.88348037 113.80027947 -10.86083984 119.45898438 C-10.83913294 124.91841474 -10.82715464 130.3777872 -10.82196426 135.83725739 C-10.81826465 137.92169354 -10.81104037 140.00612647 -10.80025864 142.09053802 C-10.78577243 145.00671779 -10.78373962 147.92265732 -10.78466797 150.83886719 C-10.77747742 151.70345551 -10.77028687 152.56804382 -10.76287842 153.45883179 C-10.76562775 154.25526093 -10.76837708 155.05169006 -10.77120972 155.87225342 C-10.76936613 156.56175457 -10.76752254 157.25125572 -10.76562309 157.96165085 C-11.06474151 160.34421681 -11.73847832 161.88908889 -13.01171875 163.921875 C-16.50295892 166.24936845 -17.90394126 166.42486816 -22.01171875 165.921875 C-24.31447431 164.0547759 -25.68995746 162.56539759 -27.01171875 159.921875 C-27.10516191 156.96202344 -27.1374511 154.02584824 -27.12524414 151.06591797 C-27.12539017 150.14879028 -27.12553619 149.2316626 -27.12568665 148.28674316 C-27.12498823 145.24582581 -27.11719915 142.2049692 -27.109375 139.1640625 C-27.10751057 137.05941807 -27.10608678 134.9547732 -27.10508728 132.85012817 C-27.1012641 127.30331225 -27.09143549 121.7565224 -27.0803833 116.2097168 C-27.07016491 110.5525752 -27.06558874 104.89542941 -27.06054688 99.23828125 C-27.04981306 88.13280103 -27.03273901 77.02734018 -27.01171875 65.921875 C-28.11708984 65.78015869 -29.22246094 65.63844238 -30.36132812 65.49243164 C-38.01114917 64.29676338 -43.69182836 58.89586083 -48.5078125 53.07421875 C-54.96759306 43.82918216 -56.5103195 32.94842158 -55.01171875 21.921875 C-51.10068621 10.13628029 -43.78448539 2.71914748 -33.01171875 -3.078125 C-21.32052184 -7.82122931 -10.60592814 -5.83263733 0 0 Z " fill="#070707" transform="translate(290.01171875,95.078125)"/>
<path d="M0 0 C2 1.625 2 1.625 3 4 C2.78135713 9.90335741 0.88943789 12.92800333 -3.0625 17.0625 C-19.07646293 34.92643261 -26.39580782 57.91004575 -25.17724609 81.75683594 C-24.68757725 87.95391213 -23.45572062 93.96624212 -22 100 C-21.70996094 101.20462891 -21.70996094 101.20462891 -21.4140625 102.43359375 C-17.39675763 116.23329686 -9.17719335 129.3629485 0.5 139.8125 C2.57542273 142.18279153 2.98950244 142.94646243 3.625 146.1875 C2.83314727 149.75083727 2.04253011 150.97164659 -1 153 C-4.4375 153.5625 -4.4375 153.5625 -8 153 C-10.4375 151.0625 -10.4375 151.0625 -13 148 C-13.59554687 147.37996094 -14.19109375 146.75992188 -14.8046875 146.12109375 C-33.1218538 126.77046865 -41.07585895 100.38359551 -41.25 74.25 C-41.2593457 73.27949707 -41.26869141 72.30899414 -41.27832031 71.30908203 C-41.25144 65.26204475 -40.52064467 59.84155431 -39 54 C-38.70029297 52.54400391 -38.70029297 52.54400391 -38.39453125 51.05859375 C-34.04104114 31.45327925 -23.32787757 13.94212702 -9 0 C-5.8168485 -1.59157575 -3.38676935 -0.77242108 0 0 Z " fill="#050505" transform="translate(206,50)"/>
<path d="M0 0 C10.00959518 2.57481548 16.86630143 15.75301964 21.92285156 24.14013672 C25.78798822 30.82871201 28.40585416 37.53557616 30.64453125 44.9375 C31.20476431 46.47999191 31.76700097 48.0217589 32.33203125 49.5625 C40.17877849 74.08358513 35.89522844 102.03808425 24.75195312 124.79638672 C19.49035633 134.96927117 12.2567802 147.52933403 2.64453125 153.9375 C-1.26601116 154.36410463 -3.47577453 154.52396281 -6.79296875 152.3125 C-8.82981374 149.21649561 -8.76055778 147.60130521 -8.35546875 143.9375 C-6.6328125 141.296875 -6.6328125 141.296875 -4.29296875 138.6875 C3.45422326 129.67744283 8.99962011 120.90346757 13.64453125 109.9375 C13.95261719 109.25171875 14.26070313 108.5659375 14.578125 107.859375 C23.19468092 87.32250596 21.39549279 62.98283047 13.31689453 42.65161133 C8.542747 31.39942546 1.82434175 21.61088145 -6.921875 13.03515625 C-8.86920066 10.18579963 -8.7522281 8.31897176 -8.35546875 4.9375 C-5.75452041 1.23311903 -4.60980627 -0.08586368 0 0 Z " fill="#050505" transform="translate(341.35546875,49.0625)"/>
<path d="M0 0 C1.01725914 0.00636726 1.01725914 0.00636726 2.05506897 0.01286316 C4.19469027 0.02948934 6.33332572 0.06710701 8.47265625 0.10546875 C9.93423107 0.12053653 11.39582083 0.13422125 12.85742188 0.14648438 C16.41698022 0.17933898 19.97597181 0.23100634 23.53515625 0.29296875 C23.61690421 3.12689801 23.6760061 5.95841694 23.72265625 8.79296875 C23.74779297 9.58445312 23.77292969 10.3759375 23.79882812 11.19140625 C23.90650676 19.94926857 21.4534623 26.10590871 15.5078125 32.53125 C9.72540314 37.69534232 3.28947028 39.42273379 -4.3203125 39.390625 C-5.31276726 39.38850258 -5.31276726 39.38850258 -6.32527161 39.38633728 C-8.43434203 39.38074871 -10.54330552 39.3681984 -12.65234375 39.35546875 C-14.08398284 39.35045227 -15.5156236 39.34588962 -16.94726562 39.34179688 C-20.45315963 39.33078305 -23.95899125 39.3135263 -27.46484375 39.29296875 C-28.34809248 16.77012611 -28.34809248 16.77012611 -21.44140625 9.0234375 C-14.89153315 2.82005939 -9.06703804 -0.11286769 0 0 Z " fill="#FDFDFD" transform="translate(306.46484375,296.70703125)"/>
<path d="M0 0 C4.10751239 -0.09985537 8.21454209 -0.17192603 12.32299805 -0.21972656 C13.71667814 -0.23967995 15.1102763 -0.26685319 16.50366211 -0.30175781 C27.6867931 -0.57461497 36.04095592 0.60656053 44.49609375 8.35546875 C48.99565388 13.27576697 51.14499219 18.70109365 51.09765625 25.328125 C51.09443359 26.12734375 51.09121094 26.9265625 51.08789062 27.75 C51.07532227 28.9875 51.07532227 28.9875 51.0625 30.25 C51.05798828 31.09046875 51.05347656 31.9309375 51.04882812 32.796875 C51.03707961 34.86461401 51.01914522 36.93231624 51 39 C46.76832516 39.1249586 42.53766827 39.21496477 38.3046875 39.2746582 C36.86927552 39.29957855 35.43398743 39.33352875 33.99902344 39.37719727 C23.98661937 39.67393867 15.61029244 39.15656597 7.86572266 32.03833008 C1.88636414 25.90110872 -0.36809084 19.39117964 -0.26367188 10.8984375 C-0.23853516 10.10695313 -0.21339844 9.31546875 -0.1875 8.5 C-0.17396484 7.67757813 -0.16042969 6.85515625 -0.14648438 6.0078125 C-0.11155016 4.00491779 -0.05776057 2.00236644 0 0 Z " fill="#FDFDFD" transform="translate(184,297)"/>
<path d="M0 0 C2.9375 2.0625 2.9375 2.0625 5 5 C5.37444384 8.8942159 4.77264073 11.04178275 2.30859375 14.09765625 C0.90193513 15.61108213 -0.51251125 17.1172972 -1.93359375 18.6171875 C-5.18665319 22.36835245 -7.1178654 26.43724945 -9 31 C-9.3196875 31.721875 -9.639375 32.44375 -9.96875 33.1875 C-14.66984434 45.72375156 -13.19276957 60.35629531 -7.85546875 72.38671875 C-4.94552406 78.33436181 -1.18636615 84.10720916 3.73828125 88.578125 C5 90 5 90 5 93.4375 C4 97 4 97 1.8125 99.5 C-1.7525902 101.40138144 -3.15040539 101.05341996 -7 100 C-17.86235664 91.76924523 -25.29627619 75.01546209 -27.546875 61.78515625 C-30.03172171 41.0281178 -25.80089811 23.05795383 -12.75 6.3125 C-8.93881743 1.6552349 -6.28069349 -0.87929709 0 0 Z " fill="#050505" transform="translate(231,76)"/>
<path d="M0 0 C11.4035997 8.36109143 19.45935444 24.22560949 21.7109375 38 C23.79200247 59.59807966 19.53535884 78.64103492 5.5625 95.8125 C2.74218403 98.77238792 0.85417396 100.63491284 -3.3125 100.875 C-7.29670146 99.92959626 -8.81997848 99.45170074 -11 96 C-11.6875 93.25 -11.6875 93.25 -11 90 C-9.42161488 87.87491165 -7.68531801 85.98935631 -5.875 84.05859375 C4.08528621 73.12302952 6.41457592 59.18341334 6.2734375 44.84375 C5.44324873 33.17366783 -0.43758498 21.58741146 -8.5 13.1875 C-10.94970577 10.50854369 -10.9936489 10.19053309 -11.125 6.25 C-10 3 -10 3 -8.3125 1.0625 C-5.03317716 -0.4442159 -3.59300485 -0.76005872 0 0 Z " fill="#050505" transform="translate(317,76)"/>
<path d="M0 0 C5.71463734 2.84214706 9.8312263 7.53831889 12.25 13.4375 C13.22512271 20.63753393 12.47915024 27.40422472 8.25 33.4375 C1.82015924 39.58272004 -3.66210704 40.86531261 -12.44921875 40.77734375 C-18.11797208 40.19369696 -21.57460862 37.88004471 -25.30859375 33.6875 C-30.02262327 27.49115525 -30.68590919 21.11620951 -29.75 13.4375 C-27.29211989 7.14447936 -22.62023889 2.70846662 -16.859375 -0.671875 C-11.46620568 -2.94899093 -5.32568707 -2.09963636 0 0 Z " fill="#FBFBFB" transform="translate(279.75,106.5625)"/>
<path d="M0 0 C3.68987463 3.10284912 5.45685744 5.38613463 6.1875 10.1875 C5.61874199 14.25005719 4.34895161 17.13600359 1.75 20.3125 C-2.26132797 23.01578624 -5.442379 24.0136114 -10.25 23.3125 C-14.01115969 21.24754958 -17.34650288 19.22524408 -19.25 15.3125 C-19.90745489 11.49195656 -20.12656941 7.95780686 -18.265625 4.46484375 C-13.28238016 -1.79497307 -7.3801385 -3.83199499 0 0 Z " fill="#080808" transform="translate(66.25,441.6875)"/>
<path d="M0 0 C3.43761572 2.12108204 5.77560839 4.1042085 7 8 C7.46931049 12.2237944 7.28387834 14.45327135 5.3125 18.25 C1.97439585 22.21963737 -0.25792104 23.77828086 -5.4375 24.4375 C-9.7426591 23.90879625 -11.72712679 22.82657232 -15 20 C-17.64201025 15.94891762 -18.70236884 12.8162435 -18 8 C-13.70401532 -0.11463772 -8.70805474 -2.33900563 0 0 Z " fill="#080808" transform="translate(458,441)"/>
<path d="M0 0 C4.36350222 2.22291622 7.09544338 4.45022584 9 9 C9.69137142 12.66426854 9.57818769 14.91232018 7.81640625 18.2265625 C5.33545339 21.59399491 3.4107564 23.66793894 -0.73828125 24.64453125 C-5.17145162 24.80650094 -8.15140741 24.46759184 -12.0625 22.3125 C-15.07507167 18.71684994 -15.89557775 16.16952914 -16.3125 11.5 C-15.97170637 7.68311135 -15.38788303 5.96426858 -13 3 C-9.04758244 -0.27486027 -4.98604927 -0.87989105 0 0 Z " fill="#070707" transform="translate(63,47)"/>
<path d="M0 0 C3.81520039 2.01557757 7.00081488 4.1126956 9 8 C9.79311077 14.00498153 8.37898256 17.21310803 5 22 C0.65424199 24.78906858 -4.00491778 24.67894321 -9 24 C-11.93423195 22.20353146 -13.47205355 21.0558929 -15 18 C-16.03037808 8.99155166 -16.03037808 8.99155166 -13.953125 4.9765625 C-9.90264169 0.09215616 -6.17333364 -0.8392055 0 0 Z " fill="#050505" transform="translate(456,47)"/>
</svg>
