<?xml version="1.0" encoding="UTF-8"?>
<svg version="1.1" xmlns="http://www.w3.org/2000/svg" width="512" height="512">
<path d="M0 0 C0.74138214 -0.00325102 1.48276428 -0.00650204 2.24661255 -0.00985157 C4.73862841 -0.01954006 7.23060076 -0.02214187 9.72263336 -0.02475739 C11.52434746 -0.03020481 13.32606034 -0.03606839 15.12777185 -0.0423131 C20.08526225 -0.058162 25.0427477 -0.06767895 30.00025558 -0.07607794 C34.25088858 -0.08408362 38.50150822 -0.0957738 42.75213236 -0.10749274 C57.97620939 -0.14939116 73.20030211 -0.17660582 88.42441559 -0.20114899 C89.62593899 -0.20312389 90.82746239 -0.20509879 92.06539559 -0.20713353 C115.92428456 -0.24629739 139.78317876 -0.27999762 163.64208984 -0.30221558 C168.88724017 -0.30718485 174.13239042 -0.31222918 179.37754059 -0.31735992 C180.68119232 -0.3186306 181.98484404 -0.31990127 183.32800037 -0.32121044 C204.44512005 -0.34256948 225.5620841 -0.39156472 246.67912549 -0.45160407 C268.36089287 -0.51274063 290.04257998 -0.54740561 311.72443247 -0.55668879 C323.89746709 -0.56259834 336.07023803 -0.58033886 348.24318695 -0.62807465 C358.61056228 -0.66869266 368.97763086 -0.68554651 379.34508222 -0.67142183 C384.63292471 -0.66495887 389.92011397 -0.66976868 395.20785522 -0.70529556 C400.05433771 -0.73759566 404.89970832 -0.73722075 409.74621993 -0.71147853 C411.49395224 -0.7078423 413.24175909 -0.71591299 414.9893648 -0.73726004 C429.00799216 -0.89809899 438.31160721 1.95756 448.95566559 11.76760101 C459.61443764 23.33135704 461.61527186 33.19658556 461.44936371 48.25333405 C461.45529041 50.06267616 461.46427893 51.87201035 461.47604018 53.68132395 C461.4993296 58.62302805 461.47928123 63.56372814 461.45176113 68.50537503 C461.42967625 73.84629347 461.44812708 79.18709644 461.46138763 84.52802277 C461.48092088 94.97863296 461.46311932 105.42885938 461.43242409 115.87942988 C461.39796808 128.05614185 461.39981772 140.2327681 461.40290258 152.40951853 C461.40709033 174.1390667 461.37713993 195.86843508 461.32846832 217.59792328 C461.2812863 238.67120784 461.26004039 259.74431277 461.26694489 280.81764984 C461.27561316 307.44732515 461.26138277 334.07689074 461.2281925 360.70654653 C461.21829169 369.18949441 461.21654721 377.67242174 461.21754265 386.15537453 C461.21830098 396.49585507 461.20409907 406.8361943 461.17126348 417.1766246 C461.15481635 422.45002611 461.14459732 427.72323518 461.15169525 432.99666214 C461.15798451 437.82838707 461.14566517 442.65970158 461.11877213 447.49135249 C461.11224646 449.23476071 461.11235629 450.97820976 461.11994978 452.72161365 C461.18071812 468.22687527 458.76876845 479.68706896 447.70175934 491.07619476 C439.30402738 498.96497327 430.58744838 502.257553 419.17415524 502.28240871 C418.43416187 502.28536014 417.69416851 502.28831156 416.9317511 502.29135242 C414.44446738 502.30003573 411.9572302 502.30162336 409.46993256 502.30323029 C407.67163071 502.30796179 405.87332993 502.31311277 404.07503039 502.31864792 C399.12700917 502.33255254 394.17899531 502.34013718 389.23095953 502.34662092 C384.98847177 502.35299308 380.74599607 502.36306297 376.50351583 502.37318157 C362.52680223 502.40649985 348.55008128 502.42802494 334.57334098 502.44638142 C330.93412711 502.45117682 327.29491353 502.45616008 323.65569997 502.46118665 C301.05666612 502.49215598 278.45762971 502.51884111 255.85858059 502.53560543 C250.62442203 502.53955492 245.39026351 502.54355792 240.15610504 502.54763031 C238.85518162 502.54863867 237.5542582 502.54964703 236.21391285 502.55068595 C215.13816977 502.56769412 194.06254407 502.60880568 172.9868583 502.6596533 C151.34916497 502.7114275 129.71153202 502.74054735 108.07377726 502.74780232 C95.92483971 502.75246455 83.77609446 502.76721604 71.62721825 502.80754662 C61.28106015 502.84185112 50.93512907 502.85578407 40.58891737 502.84312247 C35.31139242 502.83729687 30.03434758 502.84115323 24.75689507 502.87129211 C19.9210442 502.89868337 15.0860139 502.89813404 10.25014455 502.87578166 C8.505127 502.87256307 6.76005421 502.87940171 5.01512837 502.89757889 C-9.3791638 503.0383799 -19.43357239 499.83911807 -30.15761566 489.65041351 C-33.8751036 485.52843206 -36.73452991 480.98592732 -39.41933441 476.14260101 C-39.77244523 475.58210009 -40.12555604 475.02159917 -40.48936719 474.44411337 C-41.77708032 471.25724011 -41.69538565 468.22083764 -41.67381001 464.83793449 C-41.67701648 464.09680741 -41.68022296 463.35568032 -41.68352661 462.59209484 C-41.69186458 460.09488558 -41.68588909 457.5979138 -41.68003082 455.10070038 C-41.6830498 453.29771091 -41.686938 451.49472272 -41.69162339 449.69173682 C-41.70194532 444.72616909 -41.6997109 439.76067323 -41.6954428 434.7950995 C-41.69298308 429.44386396 -41.70198046 424.09264607 -41.70948029 418.74141693 C-41.72225152 408.25227853 -41.72401787 397.7631657 -41.72168002 387.27402084 C-41.71989898 378.74826374 -41.7216419 370.22251443 -41.72590446 361.69675827 C-41.72649965 360.48457924 -41.72709484 359.2724002 -41.72770807 358.02348847 C-41.72891979 355.56110592 -41.73013393 353.09872336 -41.73135044 350.63634081 C-41.74223585 327.52482679 -41.74005908 304.41332734 -41.7339656 281.30181248 C-41.72879863 260.15679599 -41.7400443 239.0118256 -41.75906382 217.86681823 C-41.77843591 196.16362078 -41.78669912 174.46044514 -41.78294057 152.75723898 C-41.78102717 140.56929548 -41.7835293 128.3813912 -41.79765511 116.19345474 C-41.80956205 105.81468015 -41.81098168 95.43596889 -41.79886494 85.05719344 C-41.79297073 79.76183884 -41.79189176 74.46660013 -41.80386734 69.1712532 C-41.81470767 64.32147358 -41.81164468 59.47190685 -41.79760566 54.62213726 C-41.79495358 52.8697353 -41.79734128 51.11731674 -41.80534152 49.36493103 C-41.87180411 33.71788266 -39.5716408 22.76308535 -28.79433441 10.95510101 C-20.65199728 3.11084559 -11.06107853 -0.01009712 0 0 Z " fill="#FDFDFD" transform="translate(46.419334411621094,4.857398986816406)"/>
<path d="M0 0 C0.74138214 -0.00325102 1.48276428 -0.00650204 2.24661255 -0.00985157 C4.73862841 -0.01954006 7.23060076 -0.02214187 9.72263336 -0.02475739 C11.52434746 -0.03020481 13.32606034 -0.03606839 15.12777185 -0.0423131 C20.08526225 -0.058162 25.0427477 -0.06767895 30.00025558 -0.07607794 C34.25088858 -0.08408362 38.50150822 -0.0957738 42.75213236 -0.10749274 C57.97620939 -0.14939116 73.20030211 -0.17660582 88.42441559 -0.20114899 C89.62593899 -0.20312389 90.82746239 -0.20509879 92.06539559 -0.20713353 C115.92428456 -0.24629739 139.78317876 -0.27999762 163.64208984 -0.30221558 C168.88724017 -0.30718485 174.13239042 -0.31222918 179.37754059 -0.31735992 C180.68119232 -0.3186306 181.98484404 -0.31990127 183.32800037 -0.32121044 C204.44512005 -0.34256948 225.5620841 -0.39156472 246.67912549 -0.45160407 C268.36089287 -0.51274063 290.04257998 -0.54740561 311.72443247 -0.55668879 C323.89746709 -0.56259834 336.07023803 -0.58033886 348.24318695 -0.62807465 C358.61056228 -0.66869266 368.97763086 -0.68554651 379.34508222 -0.67142183 C384.63292471 -0.66495887 389.92011397 -0.66976868 395.20785522 -0.70529556 C400.05433771 -0.73759566 404.89970832 -0.73722075 409.74621993 -0.71147853 C411.49395224 -0.7078423 413.24175909 -0.71591299 414.9893648 -0.73726004 C429.00799216 -0.89809899 438.31160721 1.95756 448.95566559 11.76760101 C459.61443764 23.33135704 461.61527186 33.19658556 461.44936371 48.25333405 C461.45529041 50.06267616 461.46427893 51.87201035 461.47604018 53.68132395 C461.4993296 58.62302805 461.47928123 63.56372814 461.45176113 68.50537503 C461.42967625 73.84629347 461.44812708 79.18709644 461.46138763 84.52802277 C461.48092088 94.97863296 461.46311932 105.42885938 461.43242409 115.87942988 C461.39796808 128.05614185 461.39981772 140.2327681 461.40290258 152.40951853 C461.40709033 174.1390667 461.37713993 195.86843508 461.32846832 217.59792328 C461.2812863 238.67120784 461.26004039 259.74431277 461.26694489 280.81764984 C461.27561316 307.44732515 461.26138277 334.07689074 461.2281925 360.70654653 C461.21829169 369.18949441 461.21654721 377.67242174 461.21754265 386.15537453 C461.21830098 396.49585507 461.20409907 406.8361943 461.17126348 417.1766246 C461.15481635 422.45002611 461.14459732 427.72323518 461.15169525 432.99666214 C461.15798451 437.82838707 461.14566517 442.65970158 461.11877213 447.49135249 C461.11224646 449.23476071 461.11235629 450.97820976 461.11994978 452.72161365 C461.18071812 468.22687527 458.76876845 479.68706896 447.70175934 491.07619476 C439.30402738 498.96497327 430.58744838 502.257553 419.17415524 502.28240871 C418.43416187 502.28536014 417.69416851 502.28831156 416.9317511 502.29135242 C414.44446738 502.30003573 411.9572302 502.30162336 409.46993256 502.30323029 C407.67163071 502.30796179 405.87332993 502.31311277 404.07503039 502.31864792 C399.12700917 502.33255254 394.17899531 502.34013718 389.23095953 502.34662092 C384.98847177 502.35299308 380.74599607 502.36306297 376.50351583 502.37318157 C362.52680223 502.40649985 348.55008128 502.42802494 334.57334098 502.44638142 C330.93412711 502.45117682 327.29491353 502.45616008 323.65569997 502.46118665 C301.05666612 502.49215598 278.45762971 502.51884111 255.85858059 502.53560543 C250.62442203 502.53955492 245.39026351 502.54355792 240.15610504 502.54763031 C238.85518162 502.54863867 237.5542582 502.54964703 236.21391285 502.55068595 C215.13816977 502.56769412 194.06254407 502.60880568 172.9868583 502.6596533 C151.34916497 502.7114275 129.71153202 502.74054735 108.07377726 502.74780232 C95.92483971 502.75246455 83.77609446 502.76721604 71.62721825 502.80754662 C61.28106015 502.84185112 50.93512907 502.85578407 40.58891737 502.84312247 C35.31139242 502.83729687 30.03434758 502.84115323 24.75689507 502.87129211 C19.9210442 502.89868337 15.0860139 502.89813404 10.25014455 502.87578166 C8.505127 502.87256307 6.76005421 502.87940171 5.01512837 502.89757889 C-9.3791638 503.0383799 -19.43357239 499.83911807 -30.15761566 489.65041351 C-33.8751036 485.52843206 -36.73452991 480.98592732 -39.41933441 476.14260101 C-39.77244523 475.58210009 -40.12555604 475.02159917 -40.48936719 474.44411337 C-41.77708032 471.25724011 -41.69538565 468.22083764 -41.67381001 464.83793449 C-41.67701648 464.09680741 -41.68022296 463.35568032 -41.68352661 462.59209484 C-41.69186458 460.09488558 -41.68588909 457.5979138 -41.68003082 455.10070038 C-41.6830498 453.29771091 -41.686938 451.49472272 -41.69162339 449.69173682 C-41.70194532 444.72616909 -41.6997109 439.76067323 -41.6954428 434.7950995 C-41.69298308 429.44386396 -41.70198046 424.09264607 -41.70948029 418.74141693 C-41.72225152 408.25227853 -41.72401787 397.7631657 -41.72168002 387.27402084 C-41.71989898 378.74826374 -41.7216419 370.22251443 -41.72590446 361.69675827 C-41.72649965 360.48457924 -41.72709484 359.2724002 -41.72770807 358.02348847 C-41.72891979 355.56110592 -41.73013393 353.09872336 -41.73135044 350.63634081 C-41.74223585 327.52482679 -41.74005908 304.41332734 -41.7339656 281.30181248 C-41.72879863 260.15679599 -41.7400443 239.0118256 -41.75906382 217.86681823 C-41.77843591 196.16362078 -41.78669912 174.46044514 -41.78294057 152.75723898 C-41.78102717 140.56929548 -41.7835293 128.3813912 -41.79765511 116.19345474 C-41.80956205 105.81468015 -41.81098168 95.43596889 -41.79886494 85.05719344 C-41.79297073 79.76183884 -41.79189176 74.46660013 -41.80386734 69.1712532 C-41.81470767 64.32147358 -41.81164468 59.47190685 -41.79760566 54.62213726 C-41.79495358 52.8697353 -41.79734128 51.11731674 -41.80534152 49.36493103 C-41.87180411 33.71788266 -39.5716408 22.76308535 -28.79433441 10.95510101 C-20.65199728 3.11084559 -11.06107853 -0.01009712 0 0 Z M-18.85683441 25.76760101 C-19.51554535 26.54361664 -20.17425629 27.31963226 -20.85292816 28.11916351 C-27.20813963 36.32863867 -24.57566308 51.56515101 -24.58669281 61.61504364 C-24.59214973 63.36719001 -24.59801435 65.11933514 -24.60424852 66.87147892 C-24.61999138 71.6593236 -24.62957963 76.44716323 -24.63801336 81.23502564 C-24.64605501 85.34785595 -24.657737 89.46067279 -24.66942817 93.57349409 C-24.71117194 108.28661619 -24.73851635 122.99975413 -24.76308441 137.71291351 C-24.76604676 139.45508063 -24.76604676 139.45508063 -24.76906896 141.23244303 C-24.80822759 164.30770639 -24.84189786 187.38297532 -24.864151 210.45826149 C-24.8691199 215.52247501 -24.87416431 220.58668844 -24.87929535 225.65090179 C-24.88056602 226.90951334 -24.88183669 228.16812488 -24.88314587 229.46487616 C-24.90453183 249.87872853 -24.95356324 270.29242056 -25.01353949 290.70619215 C-25.07464502 311.67738879 -25.10933552 332.64850255 -25.11862421 353.6197871 C-25.12453524 365.38964922 -25.14229214 377.15923875 -25.19001007 388.9290123 C-25.23058369 398.94533345 -25.24749843 408.96133739 -25.23335725 418.97773708 C-25.22688628 424.0870417 -25.2317645 429.19567037 -25.26723099 434.30487061 C-25.29945445 438.9843922 -25.29921297 443.66276115 -25.27341396 448.3423122 C-25.26976815 450.03258231 -25.27790675 451.72292881 -25.29919547 453.41306879 C-25.43426929 464.82671925 -23.65889308 471.66208411 -15.53910208 480.09544384 C-5.80150514 489.41274396 17.50661814 485.26847278 30.01035309 485.24025726 C32.45657065 485.23838895 34.90278858 485.236967 37.34900665 485.23596954 C43.7439454 485.23217687 50.13886093 485.22237482 56.53379059 485.21126556 C64.22995779 485.19916844 71.92613281 485.19463372 79.62230682 485.18881226 C91.27510916 485.17916094 102.92786069 485.15998173 114.58066559 485.14260101 C114.58066559 457.42260101 114.58066559 429.70260101 114.58066559 401.14260101 C111.94066559 400.48260101 109.30066559 399.82260101 106.58066559 399.14260101 C100.95510007 396.32981825 98.66373978 392.89622485 96.58066559 387.14260101 C96.0391937 383.90166043 95.99516571 380.73618128 96.01425934 377.45510101 C96.00806076 376.5531601 96.00186218 375.65121918 95.99547577 374.72194672 C95.98841145 372.82604291 95.99149199 370.93007662 96.00424957 369.03420258 C96.01813049 366.14989386 95.9839771 363.26882482 95.94589996 360.38478851 C95.94494871 358.53322523 95.94680793 356.68165792 95.95175934 354.83010101 C95.93850113 353.977789 95.92524292 353.12547699 95.91158295 352.24733734 C96.00698432 346.04781934 97.62085461 341.93431486 101.58066559 337.14260101 C107.40979947 331.93828753 114.12653912 331.37717801 121.64316559 331.33010101 C123.08465973 331.29239594 123.08465973 331.29239594 124.55527496 331.25392914 C126.89748485 331.19566521 129.23785267 331.15894398 131.58066559 331.14260101 C131.17074371 330.34596039 130.76082184 329.54931976 130.33847809 328.72853851 C129.79964996 327.66892914 129.26082184 326.60931976 128.70566559 325.51760101 C128.17199371 324.47346039 127.63832184 323.42931976 127.08847809 322.35353851 C124.33480368 316.48949613 123.29174988 311.58216851 123.38535309 305.11916351 C123.38818298 304.37298767 123.39101288 303.62681183 123.39392853 302.8580246 C123.40504871 300.49438113 123.43013737 298.13112833 123.45566559 295.76760101 C123.46570597 294.15692943 123.47482997 292.54625187 123.48300934 290.93556976 C123.50496119 287.00443157 123.53943374 283.07358234 123.58066559 279.14260101 C126.26878853 278.24656003 127.85719842 278.00804489 130.6180191 277.9814682 C131.42638718 277.97186066 132.23475525 277.96225311 133.06761932 277.95235443 C133.93946365 277.94810455 134.81130798 277.94385468 135.70957184 277.93947601 C136.61384415 277.93377594 137.51811646 277.92807587 138.44979095 277.92220306 C140.36718324 277.91275316 142.28459177 277.90621912 144.20200348 277.90236664 C147.1078186 277.89271838 150.01290881 277.86171904 152.91855621 277.83010101 C154.78639058 277.82356476 156.65422998 277.81831674 158.52207184 277.81447601 C159.37974655 277.80212921 160.23742126 277.78978241 161.12108612 277.77706146 C171.37411066 277.81411482 179.65330173 281.33702004 188.58066559 286.14260101 C188.58653183 285.39979889 188.59239807 284.65699677 188.59844208 283.89168549 C188.65637137 276.88783034 188.72844906 269.88429665 188.8163805 262.88076401 C188.86108812 259.2802403 188.900343 255.67982984 188.92710114 252.07912445 C188.9531308 248.6035246 188.9935298 245.12836044 189.04385185 241.6530304 C189.06863058 239.68336579 189.07856645 237.71353262 189.08831024 235.74373627 C189.11800148 233.94232178 189.11800148 233.94232178 189.14829254 232.10451508 C189.16494713 230.51899841 189.16494713 230.51899841 189.18193817 228.90145111 C189.63219589 225.78605575 190.41775867 224.39575587 192.58066559 222.14260101 C194.51816559 221.61135101 194.51816559 221.61135101 196.58066559 221.64260101 C197.60160309 221.62713226 197.60160309 221.62713226 198.64316559 221.61135101 C201.40762656 222.36934838 202.08334664 223.74702334 203.58066559 226.14260101 C203.96542645 228.27461624 203.96542645 228.27461624 203.97939301 230.60982513 C203.99193115 231.49880997 204.0044693 232.3877948 204.01738739 233.30371857 C204.0159523 234.27116501 204.01451721 235.23861145 204.01303864 236.23537445 C204.02832611 237.77243797 204.02832611 237.77243797 204.04392242 239.34055328 C204.07411789 242.72774934 204.08332857 246.11466289 204.09238434 249.50197601 C204.10922613 251.85039464 204.12737568 254.19880423 204.14678192 256.54720306 C204.19434213 262.72853012 204.2241127 268.90982052 204.25022125 275.09127045 C204.27999629 281.39881887 204.32653713 287.70624092 204.37168121 294.01369476 C204.45778293 306.38993082 204.52509777 318.76619284 204.58066559 331.14260101 C208.54066559 331.14260101 212.50066559 331.14260101 216.58066559 331.14260101 C216.59524811 329.43684906 216.60983063 327.73109711 216.62485504 325.9736557 C216.67653084 320.33366866 216.74182324 314.69394901 216.8163805 309.05421829 C216.86108113 305.63529829 216.90033746 302.21649736 216.92710114 298.79738617 C216.95811971 294.86532372 217.01290912 290.93376475 217.06894684 287.00197601 C217.07533676 285.77581573 217.08172668 284.54965546 217.08831024 283.28633881 C217.11800148 281.5750177 217.11800148 281.5750177 217.14829254 279.82912445 C217.1593956 278.82540802 217.17049866 277.82169159 217.18193817 276.78755951 C217.64042169 273.74620889 218.47301487 272.35209542 220.58066559 270.14260101 C223.41635417 269.48000447 225.62305785 269.86092409 228.58066559 270.14260101 C231.42680583 272.98874126 231.03645635 275.94629243 231.20566559 279.76760101 C231.24433746 280.47400726 231.28300934 281.18041351 231.32285309 281.90822601 C231.41714283 283.65258626 231.4999945 285.39755792 231.58066559 287.14260101 C232.68925934 286.57670258 233.79785309 286.01080414 234.94004059 285.42775726 C236.40347462 284.68665926 237.86702226 283.94578557 239.33066559 283.20510101 C240.06027496 282.83191742 240.78988434 282.45873383 241.54160309 282.07424164 C242.60507965 281.53766937 242.60507965 281.53766937 243.69004059 280.99025726 C244.33940582 280.66033783 244.98877106 280.3304184 245.65781403 279.9905014 C249.0447616 278.49699342 252.14036255 278.01725083 255.82675934 278.01320648 C256.65441803 278.01005432 257.48207672 278.00690216 258.33481598 278.00365448 C259.66307404 278.00669083 259.66307404 278.00669083 261.01816559 278.00978851 C261.93525299 278.00883179 262.85234039 278.00787506 263.79721832 278.00688934 C265.73382384 278.00620964 267.67043165 278.00804928 269.60703278 278.01222992 C272.56964998 278.01758112 275.53211559 278.01227781 278.49472809 278.00588226 C280.37754092 278.00654308 282.26035366 278.00782432 284.14316559 278.00978851 C285.02867096 278.00776428 285.91417633 278.00574005 286.8265152 278.00365448 C287.65417389 278.00680664 288.48183258 278.0099588 289.33457184 278.01320648 C290.05975006 278.01400208 290.78492828 278.01479767 291.5320816 278.01561737 C293.65535232 278.14723055 295.5377755 278.563267 297.58066559 279.14260101 C297.70581115 283.76490031 297.79571661 288.38617873 297.85532379 293.00978851 C297.88021324 294.57702089 297.91413841 296.14414037 297.95786285 297.71096039 C298.23750787 308.00189713 297.52982722 315.84029384 292.58066559 325.14260101 C291.97579587 326.39226096 291.37147129 327.64218524 290.76816559 328.89260101 C290.37629059 329.63510101 289.98441559 330.37760101 289.58066559 331.14260101 C290.1341568 331.1467099 290.68764801 331.15081879 291.25791168 331.15505219 C313.47067911 331.44397996 313.47067911 331.44397996 319.58066559 337.14260101 C324.1649863 342.90470529 325.32257048 347.56591497 325.20957184 354.83010101 C325.2119838 355.73204193 325.21439575 356.63398285 325.2168808 357.56325531 C325.21590673 359.45921501 325.20261907 361.35520472 325.17758942 363.25099945 C325.14325452 366.13513106 325.15696044 369.01619698 325.17636871 371.90041351 C325.16946956 373.75198891 325.15979656 375.60355648 325.14707184 377.45510101 C325.15203171 378.30741302 325.15699158 379.15972504 325.16210175 380.03786469 C325.04889015 385.86021662 323.80058915 390.24988411 320.58066559 395.14260101 C318.65097809 396.94728851 318.65097809 396.94728851 316.70566559 398.01760101 C316.06886871 398.38627289 315.43207184 398.75494476 314.77597809 399.13478851 C312.13139149 400.3488514 309.34128297 401.22239522 306.58066559 402.14260101 C306.58066559 429.53260101 306.58066559 456.92260101 306.58066559 485.14260101 C328.69966394 485.35300586 328.69966394 485.35300586 350.81880379 485.49437809 C358.73174947 485.53311693 366.6441767 485.58223926 374.55673981 485.67067719 C380.82310575 485.74068205 387.08907988 485.78566346 393.35582602 485.80122048 C396.67105908 485.81030793 399.98491724 485.83523018 403.29985428 485.88271141 C407.01049982 485.93373364 410.71884525 485.94051564 414.42978668 485.93727875 C416.05899048 485.97502914 416.05899048 485.97502914 417.72110748 486.01354218 C426.75548444 485.92859903 432.04152476 482.43528464 438.48852348 476.33833218 C446.37001488 467.36801154 443.72433145 452.34346715 443.70764923 441.06325531 C443.70880322 439.35378327 443.71039261 437.64431148 443.71237648 435.9348402 C443.71653161 431.26486142 443.71449642 426.59490321 443.71139026 421.92492437 C443.70912078 416.87782245 443.71262347 411.83072397 443.71537018 406.78362274 C443.7198103 396.90719527 443.71885922 387.03077542 443.71595754 377.15434766 C443.71369661 369.12555965 443.71339398 361.09677377 443.71448135 353.06798553 C443.71463459 351.92407654 443.71478782 350.78016754 443.7149457 349.60159463 C443.71526543 347.27756381 443.71558964 344.95353299 443.71591829 342.62950218 C443.71876793 320.851288 443.71549413 299.07307803 443.71011792 277.29486454 C443.70565035 258.61943344 443.70642643 239.94400856 443.71103668 221.26857758 C443.71639154 199.5668048 443.71849329 177.86503571 443.71542442 156.16326237 C443.71510588 153.84791374 443.71479151 151.53256512 443.71448135 149.21721649 C443.71432708 148.07810324 443.7141728 146.93898999 443.71401385 145.76535815 C443.71315144 137.7488014 443.71460566 129.732247 443.71696091 121.71569061 C443.71976921 111.94251263 443.71899888 102.16934268 443.71368016 92.39616561 C443.71105708 87.41243533 443.71001447 82.42871842 443.71332932 77.44498825 C443.71632098 72.87798603 443.71465184 68.31100952 443.70935176 63.74400961 C443.7082398 62.09679045 443.70879149 60.44956909 443.71122755 58.80235136 C444.67816742 40.96137666 444.67816742 40.96137666 437.95566559 25.27541351 C436.78004059 24.21967133 436.78004059 24.21967133 435.58066559 23.14260101 C434.79529068 22.40283836 434.79529068 22.40283836 433.99404961 21.64813101 C426.4855238 15.58057414 418.25378287 16.30973499 409.11385345 16.39415741 C407.32573933 16.38867261 405.53763165 16.38056533 403.74953991 16.3700701 C398.8481831 16.3489307 393.94755759 16.36513094 389.04623282 16.3875711 C383.75576812 16.40527357 378.46539816 16.38836285 373.17493439 16.37584686 C362.81606595 16.35687781 352.45747631 16.3700641 342.09862857 16.39437275 C330.03580119 16.42162488 317.9730401 16.41833599 305.91018976 16.41410609 C284.38793762 16.40772739 262.86581791 16.43105593 241.34360504 16.47023773 C220.45814735 16.50825033 199.57284485 16.52241146 178.68735504 16.51125336 C155.94441544 16.49913884 133.20154406 16.49948958 110.45861012 16.52222502 C108.03375534 16.52463961 105.60890057 16.52705158 103.18404579 16.52946091 C101.39442705 16.53127152 101.39442705 16.53127152 99.5686544 16.53311872 C91.15951285 16.54087836 82.75039669 16.54008929 74.34125328 16.53628922 C64.09462352 16.53204581 53.84812969 16.54248972 43.60153823 16.57151632 C38.37321124 16.58600731 33.14508226 16.59415582 27.91673851 16.5850296 C23.13071159 16.57687863 18.34509354 16.5872017 13.55912865 16.61228175 C11.8277824 16.61813886 10.0963976 16.61726978 8.36506122 16.6089956 C-2.64374349 16.56116027 -11.25444838 16.62026329 -18.85683441 25.76760101 Z " fill="#010101" transform="translate(46.419334411621094,4.857398986816406)"/>
<path d="M0 0 C54.12 0 108.24 0 164 0 C164 27.39 164 54.78 164 83 C109.88 83 55.76 83 0 83 C0 55.61 0 28.22 0 0 Z " fill="#FCFCFC" transform="translate(175,407)"/>
<path d="M0 0 C0.79265574 -0.00467997 1.58531147 -0.00935994 2.40198708 -0.01418173 C5.06682529 -0.02617937 7.73115376 -0.01665605 10.39599609 -0.00723267 C12.30287985 -0.01129625 14.20976126 -0.01663693 16.11663818 -0.02316284 C21.30250545 -0.03686756 26.48819415 -0.03152478 31.67406464 -0.02202559 C37.09391267 -0.01444532 42.51374513 -0.02147004 47.93359375 -0.02618408 C57.03632358 -0.0316464 66.13898046 -0.02443752 75.24169922 -0.01016235 C85.77487598 0.00616505 96.30787856 0.00087688 106.8410511 -0.01564157 C115.87464454 -0.02924286 124.90818545 -0.03118274 133.94178581 -0.02332556 C139.34152966 -0.01864158 144.74119155 -0.01804408 150.14093018 -0.02793503 C155.2167402 -0.03658269 160.29232503 -0.03062313 165.36811066 -0.01325226 C167.23419063 -0.00927562 169.10028946 -0.01044147 170.966362 -0.01704025 C173.50745546 -0.02519952 176.04782054 -0.01500276 178.58886719 0 C179.33292627 -0.00669217 180.07698536 -0.01338433 180.84359169 -0.02027929 C183.74627619 0.01312025 185.79735173 0.04961323 188.25177002 1.68564415 C190.0530787 4.61446116 189.72021704 7.88931218 189.69287109 11.22470093 C189.69717636 12.37295349 189.69717636 12.37295349 189.7015686 13.54440308 C189.70360859 15.1616388 189.69808322 16.77889923 189.68554688 18.39608765 C189.66949117 20.87207184 189.68539656 23.34642377 189.70458984 25.82235718 C189.7026074 27.39397537 189.69876369 28.96559254 189.69287109 30.53720093 C189.69894379 31.27788818 189.70501648 32.01857544 189.71127319 32.78170776 C189.64237012 37.81522755 189.64237012 37.81522755 188.25177002 40.07625771 C185.22412994 42.09437858 182.10593731 41.79353485 178.58886719 41.76190186 C177.39988358 41.76892181 177.39988358 41.76892181 176.18688011 41.77608359 C173.5220419 41.78808122 170.85771343 41.77855791 168.19287109 41.76913452 C166.28598733 41.77319811 164.37910593 41.77853879 162.472229 41.7850647 C157.28636174 41.79876942 152.10067304 41.79342663 146.91480255 41.78392744 C141.49495451 41.77634717 136.07512206 41.7833719 130.65527344 41.78808594 C121.55254361 41.79354826 112.44988673 41.78633938 103.34716797 41.77206421 C92.8139912 41.75573681 82.28098863 41.76102498 71.74781609 41.77754343 C62.71422265 41.79114472 53.68068174 41.7930846 44.64708138 41.78522742 C39.24733753 41.78054343 33.84767563 41.77994594 28.44793701 41.78983688 C23.37212698 41.79848454 18.29654216 41.79252499 13.22075653 41.77515411 C11.35467656 41.77117748 9.48857773 41.77234332 7.62250519 41.77894211 C5.08141173 41.78710138 2.54104665 41.77690462 0 41.76190186 C-0.74405909 41.76859402 -1.48811817 41.77528619 -2.2547245 41.78218114 C-5.157409 41.74878161 -7.20848454 41.71228862 -9.66290283 40.07625771 C-11.46421151 37.1474407 -11.13134985 33.87258967 -11.10400391 30.53720093 C-11.10687408 29.77169922 -11.10974426 29.00619751 -11.11270142 28.21749878 C-11.1147414 26.60026306 -11.10921603 24.98300263 -11.09667969 23.36581421 C-11.08062398 20.88983001 -11.09652937 18.41547808 -11.11572266 15.93954468 C-11.11374021 14.36792649 -11.10989651 12.79630932 -11.10400391 11.22470093 C-11.1100766 10.48401367 -11.11614929 9.74332642 -11.12240601 8.98019409 C-11.05350293 3.9466743 -11.05350293 3.9466743 -9.66290283 1.68564415 C-6.63526275 -0.33247672 -3.51707013 -0.03163299 0 0 Z " fill="#FEFEFE" transform="translate(167.70556640625,350.6190490722656)"/>
<path d="M0 0 C5.00795489 3.22080236 8.48744808 6.1688659 11.67578125 11.234375 C12.25714844 12.13800781 12.83851563 13.04164062 13.4375 13.97265625 C17.99745584 22.64461257 18.4946055 32.76495742 16.18359375 42.2109375 C12.24284638 52.72865634 5.42261487 60.42919102 -4.75 65.1796875 C-7.01171875 65.921875 -7.01171875 65.921875 -11.01171875 65.921875 C-11.00727753 67.09063171 -11.0028363 68.25938843 -10.9982605 69.46356201 C-10.9577433 80.46998069 -10.92774822 91.47638427 -10.90809441 102.48286057 C-10.89765058 108.14160008 -10.88348037 113.80027947 -10.86083984 119.45898438 C-10.83913294 124.91841474 -10.82715464 130.3777872 -10.82196426 135.83725739 C-10.81826465 137.92169354 -10.81104037 140.00612647 -10.80025864 142.09053802 C-10.78577243 145.00671779 -10.78373962 147.92265732 -10.78466797 150.83886719 C-10.77747742 151.70345551 -10.77028687 152.56804382 -10.76287842 153.45883179 C-10.76562775 154.25526093 -10.76837708 155.05169006 -10.77120972 155.87225342 C-10.76936613 156.56175457 -10.76752254 157.25125572 -10.76562309 157.96165085 C-11.06474151 160.34421681 -11.73847832 161.88908889 -13.01171875 163.921875 C-16.50295892 166.24936845 -17.90394126 166.42486816 -22.01171875 165.921875 C-24.31447431 164.0547759 -25.68995746 162.56539759 -27.01171875 159.921875 C-27.10516191 156.96202344 -27.1374511 154.02584824 -27.12524414 151.06591797 C-27.12539017 150.14879028 -27.12553619 149.2316626 -27.12568665 148.28674316 C-27.12498823 145.24582581 -27.11719915 142.2049692 -27.109375 139.1640625 C-27.10751057 137.05941807 -27.10608678 134.9547732 -27.10508728 132.85012817 C-27.1012641 127.30331225 -27.09143549 121.7565224 -27.0803833 116.2097168 C-27.07016491 110.5525752 -27.06558874 104.89542941 -27.06054688 99.23828125 C-27.04981306 88.13280103 -27.03273901 77.02734018 -27.01171875 65.921875 C-28.11708984 65.78015869 -29.22246094 65.63844238 -30.36132812 65.49243164 C-38.01114917 64.29676338 -43.69182836 58.89586083 -48.5078125 53.07421875 C-54.96759306 43.82918216 -56.5103195 32.94842158 -55.01171875 21.921875 C-51.10068621 10.13628029 -43.78448539 2.71914748 -33.01171875 -3.078125 C-21.32052184 -7.82122931 -10.60592814 -5.83263733 0 0 Z " fill="#070707" transform="translate(290.01171875,95.078125)"/>
<path d="M0 0 C2 1.625 2 1.625 3 4 C2.78135713 9.90335741 0.88943789 12.92800333 -3.0625 17.0625 C-19.07646293 34.92643261 -26.39580782 57.91004575 -25.17724609 81.75683594 C-24.68757725 87.95391213 -23.45572062 93.96624212 -22 100 C-21.70996094 101.20462891 -21.70996094 101.20462891 -21.4140625 102.43359375 C-17.39675763 116.23329686 -9.17719335 129.3629485 0.5 139.8125 C2.57542273 142.18279153 2.98950244 142.94646243 3.625 146.1875 C2.83314727 149.75083727 2.04253011 150.97164659 -1 153 C-4.4375 153.5625 -4.4375 153.5625 -8 153 C-10.4375 151.0625 -10.4375 151.0625 -13 148 C-13.59554687 147.37996094 -14.19109375 146.75992188 -14.8046875 146.12109375 C-33.1218538 126.77046865 -41.07585895 100.38359551 -41.25 74.25 C-41.2593457 73.27949707 -41.26869141 72.30899414 -41.27832031 71.30908203 C-41.25144 65.26204475 -40.52064467 59.84155431 -39 54 C-38.70029297 52.54400391 -38.70029297 52.54400391 -38.39453125 51.05859375 C-34.04104114 31.45327925 -23.32787757 13.94212702 -9 0 C-5.8168485 -1.59157575 -3.38676935 -0.77242108 0 0 Z " fill="#050505" transform="translate(206,50)"/>
<path d="M0 0 C10.00959518 2.57481548 16.86630143 15.75301964 21.92285156 24.14013672 C25.78798822 30.82871201 28.40585416 37.53557616 30.64453125 44.9375 C31.20476431 46.47999191 31.76700097 48.0217589 32.33203125 49.5625 C40.17877849 74.08358513 35.89522844 102.03808425 24.75195312 124.79638672 C19.49035633 134.96927117 12.2567802 147.52933403 2.64453125 153.9375 C-1.26601116 154.36410463 -3.47577453 154.52396281 -6.79296875 152.3125 C-8.82981374 149.21649561 -8.76055778 147.60130521 -8.35546875 143.9375 C-6.6328125 141.296875 -6.6328125 141.296875 -4.29296875 138.6875 C3.45422326 129.67744283 8.99962011 120.90346757 13.64453125 109.9375 C13.95261719 109.25171875 14.26070313 108.5659375 14.578125 107.859375 C23.19468092 87.32250596 21.39549279 62.98283047 13.31689453 42.65161133 C8.542747 31.39942546 1.82434175 21.61088145 -6.921875 13.03515625 C-8.86920066 10.18579963 -8.7522281 8.31897176 -8.35546875 4.9375 C-5.75452041 1.23311903 -4.60980627 -0.08586368 0 0 Z " fill="#050505" transform="translate(341.35546875,49.0625)"/>
<path d="M0 0 C1.01725914 0.00636726 1.01725914 0.00636726 2.05506897 0.01286316 C4.19469027 0.02948934 6.33332572 0.06710701 8.47265625 0.10546875 C9.93423107 0.12053653 11.39582083 0.13422125 12.85742188 0.14648438 C16.41698022 0.17933898 19.97597181 0.23100634 23.53515625 0.29296875 C23.61690421 3.12689801 23.6760061 5.95841694 23.72265625 8.79296875 C23.74779297 9.58445312 23.77292969 10.3759375 23.79882812 11.19140625 C23.90650676 19.94926857 21.4534623 26.10590871 15.5078125 32.53125 C9.72540314 37.69534232 3.28947028 39.42273379 -4.3203125 39.390625 C-5.31276726 39.38850258 -5.31276726 39.38850258 -6.32527161 39.38633728 C-8.43434203 39.38074871 -10.54330552 39.3681984 -12.65234375 39.35546875 C-14.08398284 39.35045227 -15.5156236 39.34588962 -16.94726562 39.34179688 C-20.45315963 39.33078305 -23.95899125 39.3135263 -27.46484375 39.29296875 C-28.34809248 16.77012611 -28.34809248 16.77012611 -21.44140625 9.0234375 C-14.89153315 2.82005939 -9.06703804 -0.11286769 0 0 Z " fill="#FDFDFD" transform="translate(306.46484375,296.70703125)"/>
<path d="M0 0 C4.10751239 -0.09985537 8.21454209 -0.17192603 12.32299805 -0.21972656 C13.71667814 -0.23967995 15.1102763 -0.26685319 16.50366211 -0.30175781 C27.6867931 -0.57461497 36.04095592 0.60656053 44.49609375 8.35546875 C48.99565388 13.27576697 51.14499219 18.70109365 51.09765625 25.328125 C51.09443359 26.12734375 51.09121094 26.9265625 51.08789062 27.75 C51.07532227 28.9875 51.07532227 28.9875 51.0625 30.25 C51.05798828 31.09046875 51.05347656 31.9309375 51.04882812 32.796875 C51.03707961 34.86461401 51.01914522 36.93231624 51 39 C46.76832516 39.1249586 42.53766827 39.21496477 38.3046875 39.2746582 C36.86927552 39.29957855 35.43398743 39.33352875 33.99902344 39.37719727 C23.98661937 39.67393867 15.61029244 39.15656597 7.86572266 32.03833008 C1.88636414 25.90110872 -0.36809084 19.39117964 -0.26367188 10.8984375 C-0.23853516 10.10695313 -0.21339844 9.31546875 -0.1875 8.5 C-0.17396484 7.67757813 -0.16042969 6.85515625 -0.14648438 6.0078125 C-0.11155016 4.00491779 -0.05776057 2.00236644 0 0 Z " fill="#FDFDFD" transform="translate(184,297)"/>
<path d="M0 0 C2.9375 2.0625 2.9375 2.0625 5 5 C5.37444384 8.8942159 4.77264073 11.04178275 2.30859375 14.09765625 C0.90193513 15.61108213 -0.51251125 17.1172972 -1.93359375 18.6171875 C-5.18665319 22.36835245 -7.1178654 26.43724945 -9 31 C-9.3196875 31.721875 -9.639375 32.44375 -9.96875 33.1875 C-14.66984434 45.72375156 -13.19276957 60.35629531 -7.85546875 72.38671875 C-4.94552406 78.33436181 -1.18636615 84.10720916 3.73828125 88.578125 C5 90 5 90 5 93.4375 C4 97 4 97 1.8125 99.5 C-1.7525902 101.40138144 -3.15040539 101.05341996 -7 100 C-17.86235664 91.76924523 -25.29627619 75.01546209 -27.546875 61.78515625 C-30.03172171 41.0281178 -25.80089811 23.05795383 -12.75 6.3125 C-8.93881743 1.6552349 -6.28069349 -0.87929709 0 0 Z " fill="#050505" transform="translate(231,76)"/>
<path d="M0 0 C11.4035997 8.36109143 19.45935444 24.22560949 21.7109375 38 C23.79200247 59.59807966 19.53535884 78.64103492 5.5625 95.8125 C2.74218403 98.77238792 0.85417396 100.63491284 -3.3125 100.875 C-7.29670146 99.92959626 -8.81997848 99.45170074 -11 96 C-11.6875 93.25 -11.6875 93.25 -11 90 C-9.42161488 87.87491165 -7.68531801 85.98935631 -5.875 84.05859375 C4.08528621 73.12302952 6.41457592 59.18341334 6.2734375 44.84375 C5.44324873 33.17366783 -0.43758498 21.58741146 -8.5 13.1875 C-10.94970577 10.50854369 -10.9936489 10.19053309 -11.125 6.25 C-10 3 -10 3 -8.3125 1.0625 C-5.03317716 -0.4442159 -3.59300485 -0.76005872 0 0 Z " fill="#050505" transform="translate(317,76)"/>
<path d="M0 0 C5.71463734 2.84214706 9.8312263 7.53831889 12.25 13.4375 C13.22512271 20.63753393 12.47915024 27.40422472 8.25 33.4375 C1.82015924 39.58272004 -3.66210704 40.86531261 -12.44921875 40.77734375 C-18.11797208 40.19369696 -21.57460862 37.88004471 -25.30859375 33.6875 C-30.02262327 27.49115525 -30.68590919 21.11620951 -29.75 13.4375 C-27.29211989 7.14447936 -22.62023889 2.70846662 -16.859375 -0.671875 C-11.46620568 -2.94899093 -5.32568707 -2.09963636 0 0 Z " fill="#FBFBFB" transform="translate(279.75,106.5625)"/>
<path d="M0 0 C3.43761572 2.12108204 5.77560839 4.1042085 7 8 C7.46931049 12.2237944 7.28387834 14.45327135 5.3125 18.25 C1.97439585 22.21963737 -0.25792104 23.77828086 -5.4375 24.4375 C-9.7426591 23.90879625 -11.72712679 22.82657232 -15 20 C-17.64201025 15.94891762 -18.70236884 12.8162435 -18 8 C-13.70401532 -0.11463772 -8.70805474 -2.33900563 0 0 Z " fill="#070707" transform="translate(458,441)"/>
<path d="M0 0 C3.68987463 3.10284912 5.45685744 5.38613463 6.1875 10.1875 C5.61874199 14.25005719 4.34895161 17.13600359 1.75 20.3125 C-2.26132797 23.01578624 -5.442379 24.0136114 -10.25 23.3125 C-14.01115969 21.24754958 -17.34650288 19.22524408 -19.25 15.3125 C-19.90745489 11.49195656 -20.12656941 7.95780686 -18.265625 4.46484375 C-13.28238016 -1.79497307 -7.3801385 -3.83199499 0 0 Z " fill="#080808" transform="translate(66.25,441.6875)"/>
<path d="M0 0 C4.36350222 2.22291622 7.09544338 4.45022584 9 9 C9.69137142 12.66426854 9.57818769 14.91232018 7.81640625 18.2265625 C5.33545339 21.59399491 3.4107564 23.66793894 -0.73828125 24.64453125 C-5.17145162 24.80650094 -8.15140741 24.46759184 -12.0625 22.3125 C-15.07507167 18.71684994 -15.89557775 16.16952914 -16.3125 11.5 C-15.97170637 7.68311135 -15.38788303 5.96426858 -13 3 C-9.04758244 -0.27486027 -4.98604927 -0.87989105 0 0 Z " fill="#070707" transform="translate(63,47)"/>
<path d="M0 0 C3.3792573 2.03005291 6.22397384 4.44794768 8 8 C8.59639589 14.08323808 7.42872436 17.14264048 4 22 C-0.34575801 24.78906858 -5.00491778 24.67894321 -10 24 C-12.93423195 22.20353146 -14.47205355 21.0558929 -16 18 C-17.03037808 8.99155166 -17.03037808 8.99155166 -14.953125 4.9765625 C-10.68160231 -0.17439133 -6.438101 -1.14478468 0 0 Z " fill="#050506" transform="translate(457,47)"/>
</svg>
